<svg width="24" height="25" viewBox="0 0 24 25" fill="none" xmlns="http://www.w3.org/2000/svg">
<path d="M21.75 12.5C21.75 12.6989 21.671 12.8897 21.5303 13.0303C21.3897 13.171 21.1989 13.25 21 13.25H8.56031L14.0306 18.7194C14.1003 18.7891 14.1556 18.8718 14.1933 18.9628C14.231 19.0539 14.2504 19.1515 14.2504 19.25C14.2504 19.3485 14.231 19.4461 14.1933 19.5372C14.1556 19.6282 14.1003 19.7109 14.0306 19.7806C13.9609 19.8503 13.8782 19.9056 13.7872 19.9433C13.6961 19.981 13.5985 20.0004 13.5 20.0004C13.4015 20.0004 13.3039 19.981 13.2128 19.9433C13.1218 19.9056 13.0391 19.8503 12.9694 19.7806L6.21937 13.0306C6.14964 12.961 6.09432 12.8783 6.05658 12.7872C6.01884 12.6962 5.99941 12.5986 5.99941 12.5C5.99941 12.4014 6.01884 12.3038 6.05658 12.2128C6.09432 12.1217 6.14964 12.039 6.21937 11.9694L12.9694 5.21938C13.0391 5.14969 13.1218 5.09442 13.2128 5.05671C13.3039 5.01899 13.4015 4.99958 13.5 4.99958C13.5985 4.99958 13.6961 5.01899 13.7872 5.05671C13.8782 5.09442 13.9609 5.14969 14.0306 5.21938C14.1003 5.28906 14.1556 5.37178 14.1933 5.46283C14.231 5.55387 14.2504 5.65145 14.2504 5.75C14.2504 5.84855 14.231 5.94613 14.1933 6.03717C14.1556 6.12822 14.1003 6.21094 14.0306 6.28062L8.56031 11.75H21C21.1989 11.75 21.3897 11.829 21.5303 11.9697C21.671 12.1103 21.75 12.3011 21.75 12.5ZM3.75 3.5C3.55109 3.5 3.36032 3.57902 3.21967 3.71967C3.07902 3.86032 3 4.05109 3 4.25V20.75C3 20.9489 3.07902 21.1397 3.21967 21.2803C3.36032 21.421 3.55109 21.5 3.75 21.5C3.94891 21.5 4.13968 21.421 4.28033 21.2803C4.42098 21.1397 4.5 20.9489 4.5 20.75V4.25C4.5 4.05109 4.42098 3.86032 4.28033 3.71967C4.13968 3.57902 3.94891 3.5 3.75 3.5Z" fill="#F8F9FC"/>
</svg>
