<svg width="52" height="53" viewBox="0 0 52 53" fill="none" xmlns="http://www.w3.org/2000/svg">
<rect x="0.5" y="1" width="51" height="51" rx="25.5" fill="#101323"/>
<rect x="0.5" y="1" width="51" height="51" rx="25.5" stroke="url(#paint0_linear_538_8719)"/>
<path d="M34.8394 26.0366L26.5894 15.5366C26.5193 15.4473 26.4297 15.3751 26.3276 15.3254C26.2254 15.2758 26.1133 15.25 25.9998 15.25C25.8862 15.25 25.7741 15.2758 25.6719 15.3254C25.5698 15.3751 25.4802 15.4473 25.4101 15.5366L17.1601 26.0366C17.0564 26.1687 17 26.3318 17 26.4997C17 26.6676 17.0564 26.8307 17.1601 26.9628L25.4101 37.4628C25.4802 37.5521 25.5698 37.6243 25.6719 37.674C25.7741 37.7236 25.8862 37.7494 25.9998 37.7494C26.1133 37.7494 26.2254 37.7236 26.3276 37.674C26.4297 37.6243 26.5193 37.5521 26.5894 37.4628L34.8394 26.9628C34.9432 26.8307 34.9995 26.6676 34.9995 26.4997C34.9995 26.3318 34.9432 26.1687 34.8394 26.0366ZM26.7498 29.0853V18.1681L33.0704 26.2119L26.7498 29.0853ZM25.2498 29.0853L18.9291 26.2119L25.2498 18.1681V29.0853ZM25.2498 30.7325V34.8313L20.2407 28.4563L25.2498 30.7325Z" fill="#FCFCFD"/>
<defs>
<linearGradient id="paint0_linear_538_8719" x1="0" y1="0.5" x2="52" y2="52.5" gradientUnits="userSpaceOnUse">
<stop stop-color="#E8D07A"/>
<stop offset="1" stop-color="#5312D6"/>
</linearGradient>
</defs>
</svg>
