<svg width="267" height="350" viewBox="0 0 267 350" fill="none" xmlns="http://www.w3.org/2000/svg">
<g opacity="0.64" clip-path="url(#clip0_578_5439)" filter="url(#filter0_f_578_5439)">
<path d="M157.581 303.553L46.6084 237.113L88.913 47.2818L220.466 190.529L157.581 303.553Z" fill="#760CAC"/>
<path opacity="0.5" d="M143.691 251.717L79.6517 219.758L108.621 120.834L183.171 192.02L143.691 251.717Z" fill="#9612C8"/>
<path d="M88.9141 47.2812L108.621 120.83L183.171 192.015L220.467 190.528L88.9141 47.2812Z" fill="#B518E6"/>
<path opacity="0.5" d="M157.582 303.555L143.692 251.714L183.172 192.018L220.467 190.53L157.582 303.555Z" fill="#760CAC"/>
<path d="M46.6089 237.116L79.6515 219.756L143.691 251.715L157.581 303.555L46.6089 237.116Z" fill="#370173"/>
<path opacity="0.5" d="M88.913 47.2818L108.62 120.83L79.651 219.754L46.6084 237.113L88.913 47.2818Z" fill="#570692"/>
<path d="M88.9141 47.2812L111.796 118.84L184.625 188.365L220.467 190.528L186.315 195.378L148.59 253.622L157.582 303.552L143.691 251.712L183.171 192.015L108.621 120.83L88.9141 47.2812Z" fill="#D622F5"/>
<path d="M108.623 120.833L82.1458 219.089L143.693 251.716L79.402 221.637L73.3228 223.083L78.285 218.971L108.623 120.833Z" fill="#D622F5"/>
<path opacity="0.5" d="M46.6094 237.113L71.677 230.396L115.443 257.178L153.379 301.037L46.6094 237.113Z" fill="#280061"/>
<path opacity="0.5" d="M47.2857 234.08L72.8366 155.346L88.9139 47.283L47.2857 234.08Z" fill="#30016A"/>
<path d="M155.025 218.697L141.37 243.063L93.1505 209.583L112.418 135.014L101.59 204.955L138.27 231.494L149.044 215.296L137.035 183.365L155.025 218.697Z" fill="#C71EEB"/>
<path d="M88.9141 47.2812L152.362 124.313L220.467 190.528L88.9141 47.2812Z" fill="#D622F5"/>
<path d="M220.468 190.53L191.36 234.84L157.583 303.554L220.468 190.53Z" fill="#D622F5"/>
<path d="M106.152 79.3555L185.128 183.744L115.961 115.962L106.152 79.3555Z" fill="#D622F5"/>
<path d="M158.657 283.939L152.828 253.547L197.761 198.051L158.657 283.939Z" fill="#D622F5"/>
</g>
<defs>
<filter id="filter0_f_578_5439" x="-44.4058" y="-22.4122" width="335.313" height="395.662" filterUnits="userSpaceOnUse" color-interpolation-filters="sRGB">
<feFlood flood-opacity="0" result="BackgroundImageFix"/>
<feBlend mode="normal" in="SourceGraphic" in2="BackgroundImageFix" result="shape"/>
<feGaussianBlur stdDeviation="23.2029" result="effect1_foregroundBlur_578_5439"/>
</filter>
<clipPath id="clip0_578_5439">
<rect width="179.966" height="265.311" fill="white" transform="translate(2 70.5723) rotate(-15)"/>
</clipPath>
</defs>
</svg>
