<svg width="16" height="12" viewBox="0 0 16 12" fill="none" xmlns="http://www.w3.org/2000/svg">
<path d="M15.4693 8.89974L13.625 1.62537C13.5764 1.43599 13.4737 1.26488 13.3294 1.133C13.1851 1.00112 13.0054 0.914191 12.8125 0.882866L10.5587 0.512866C10.3103 0.472905 10.0558 0.526781 9.8449 0.664015C9.63396 0.801249 9.48161 1.01203 9.41747 1.25537L9.40435 1.30849C9.39585 1.34224 9.39449 1.3774 9.40036 1.4117C9.40623 1.44601 9.4192 1.47871 9.43844 1.50772C9.45768 1.53672 9.48276 1.56139 9.51208 1.58014C9.54141 1.59889 9.57432 1.61132 9.60872 1.61662C10.1259 1.69252 10.6361 1.80998 11.1343 1.96787C11.2589 2.00545 11.3645 2.08901 11.4298 2.20159C11.495 2.31418 11.5149 2.44735 11.4856 2.57412C11.4687 2.64017 11.4385 2.70208 11.3969 2.75604C11.3552 2.81 11.3029 2.85486 11.2433 2.88788C11.1836 2.92089 11.1178 2.94136 11.05 2.94802C10.9821 2.95468 10.9137 2.9474 10.8487 2.92662C8.99986 2.35961 7.02382 2.35743 5.17372 2.92037C5.04851 2.96246 4.9119 2.95472 4.79226 2.89874C4.67262 2.84276 4.57913 2.74284 4.53122 2.61974C4.50845 2.55657 4.49863 2.48947 4.50236 2.42243C4.50609 2.35538 4.52328 2.28978 4.55291 2.22953C4.58254 2.16927 4.624 2.1156 4.67483 2.07172C4.72565 2.02784 4.78479 1.99465 4.84872 1.97412C5.35322 1.81342 5.86991 1.69386 6.39372 1.61662C6.42812 1.61132 6.46103 1.59889 6.49036 1.58014C6.51968 1.56139 6.54476 1.53672 6.564 1.50772C6.58324 1.47871 6.59621 1.44601 6.60208 1.4117C6.60795 1.3774 6.60659 1.34224 6.5981 1.30849L6.58497 1.25537C6.52081 1.01182 6.36825 0.800907 6.15702 0.663748C5.94579 0.526589 5.69105 0.473021 5.44247 0.513491L3.18747 0.883491C2.99458 0.91477 2.81499 1.0016 2.67068 1.13337C2.52638 1.26513 2.42361 1.43611 2.37497 1.62537L0.530595 8.89974C0.472765 9.1284 0.497934 9.37015 0.601622 9.58199C0.705311 9.79383 0.880793 9.96202 1.09685 10.0566L5.28435 11.9135C5.41026 11.9695 5.54629 11.9991 5.68408 12.0006C5.82186 12.0021 5.9585 11.9753 6.08558 11.9221C6.21266 11.8688 6.32751 11.7901 6.42306 11.6908C6.51861 11.5915 6.59285 11.4738 6.64122 11.3447L6.85935 10.7541C6.87234 10.7187 6.87717 10.6809 6.87348 10.6434C6.86978 10.6059 6.85765 10.5697 6.83799 10.5375C6.81834 10.5054 6.79167 10.4781 6.75997 10.4577C6.72828 10.4373 6.69238 10.4243 6.65497 10.4197C6.04781 10.3462 5.44878 10.2165 4.8656 10.0322C4.74154 9.99454 4.63639 9.91122 4.57132 9.79907C4.50626 9.68692 4.48612 9.55427 4.51497 9.42787C4.53169 9.36162 4.56181 9.29951 4.60346 9.24536C4.64512 9.19121 4.69743 9.14618 4.75716 9.11303C4.8169 9.07988 4.8828 9.05932 4.95079 9.05263C5.01878 9.04594 5.08742 9.05325 5.15247 9.07411C7.00827 9.64244 8.99167 9.64244 10.8475 9.07411C10.9124 9.05334 10.981 9.04608 11.0489 9.05278C11.1167 9.05949 11.1825 9.08001 11.2422 9.11308C11.3019 9.14616 11.3541 9.1911 11.3958 9.24512C11.4374 9.29915 11.4675 9.36113 11.4843 9.42724C11.5135 9.55375 11.4935 9.68661 11.4284 9.79894C11.3633 9.91127 11.258 9.99466 11.1337 10.0322C10.5508 10.2166 9.95194 10.3463 9.34497 10.4197C9.30756 10.4243 9.27166 10.4373 9.23997 10.4577C9.20828 10.4781 9.1816 10.5054 9.16195 10.5375C9.14229 10.5697 9.13016 10.6059 9.12646 10.6434C9.12277 10.6809 9.1276 10.7187 9.1406 10.7541L9.35872 11.3447C9.40716 11.4737 9.48144 11.5914 9.57701 11.6907C9.67258 11.7899 9.78742 11.8685 9.91447 11.9218C10.0415 11.9751 10.1781 12.0018 10.3159 12.0004C10.4537 11.9989 10.5897 11.9694 10.7156 11.9135L14.9031 10.0566C15.1191 9.96202 15.2946 9.79383 15.3983 9.58199C15.502 9.37015 15.5272 9.1284 15.4693 8.89974ZM5.74997 7.50037C5.60163 7.50037 5.45663 7.45638 5.33329 7.37397C5.20996 7.29156 5.11383 7.17442 5.05706 7.03738C5.0003 6.90033 4.98544 6.74953 5.01438 6.60405C5.04332 6.45856 5.11475 6.32493 5.21964 6.22004C5.32453 6.11515 5.45817 6.04372 5.60365 6.01478C5.74914 5.98584 5.89994 6.00069 6.03698 6.05746C6.17403 6.11422 6.29116 6.21035 6.37357 6.33369C6.45598 6.45703 6.49997 6.60203 6.49997 6.75037C6.49997 6.94928 6.42095 7.14004 6.2803 7.2807C6.13965 7.42135 5.94888 7.50037 5.74997 7.50037ZM10.25 7.50037C10.1016 7.50037 9.95663 7.45638 9.83329 7.37397C9.70996 7.29156 9.61383 7.17442 9.55706 7.03738C9.5003 6.90033 9.48544 6.74953 9.51438 6.60405C9.54332 6.45856 9.61475 6.32493 9.71964 6.22004C9.82453 6.11515 9.95817 6.04372 10.1037 6.01478C10.2491 5.98584 10.3999 6.00069 10.537 6.05746C10.674 6.11422 10.7912 6.21035 10.8736 6.33369C10.956 6.45703 11 6.60203 11 6.75037C11 6.94928 10.921 7.14004 10.7803 7.2807C10.6396 7.42135 10.4489 7.50037 10.25 7.50037Z" fill="white"/>
</svg>
