<svg width="20" height="15" viewBox="0 0 20 15" fill="none" xmlns="http://www.w3.org/2000/svg">
<path d="M19.3365 10.6242L17.031 1.53125C16.9703 1.29453 16.8419 1.08064 16.6615 0.915792C16.4811 0.750941 16.2566 0.642281 16.0154 0.603125L13.1982 0.140625C12.8876 0.0906737 12.5696 0.158018 12.3059 0.329561C12.0422 0.501103 11.8518 0.764581 11.7716 1.06875L11.7552 1.13516C11.7446 1.17735 11.7429 1.22129 11.7502 1.26417C11.7576 1.30706 11.7738 1.34793 11.7978 1.38419C11.8219 1.42044 11.8532 1.45128 11.8899 1.47472C11.9265 1.49816 11.9677 1.51369 12.0107 1.52031C12.6571 1.61519 13.2949 1.76202 13.9177 1.95938C14.0734 2.00636 14.2054 2.1108 14.287 2.25153C14.3685 2.39226 14.3935 2.55874 14.3568 2.71719C14.3357 2.79976 14.2979 2.87715 14.2458 2.94459C14.1938 3.01204 14.1284 3.06812 14.0539 3.10939C13.9793 3.15066 13.8971 3.17624 13.8123 3.18457C13.7275 3.1929 13.6418 3.18379 13.5607 3.15781C11.2496 2.44905 8.77955 2.44633 6.46692 3.15C6.31041 3.20262 6.13965 3.19294 5.9901 3.12296C5.84054 3.05299 5.72368 2.92809 5.6638 2.77422C5.63533 2.69526 5.62306 2.61138 5.62772 2.52758C5.63238 2.44377 5.65387 2.36177 5.69091 2.28645C5.72795 2.21113 5.77978 2.14405 5.8433 2.08919C5.90683 2.03434 5.98076 1.99285 6.06067 1.96719C6.6913 1.76632 7.33716 1.61687 7.99192 1.52031C8.03492 1.51369 8.07606 1.49816 8.11272 1.47472C8.14937 1.45128 8.18072 1.42044 8.20477 1.38419C8.22882 1.34793 8.24503 1.30706 8.25237 1.26417C8.25971 1.22129 8.25801 1.17735 8.24739 1.13516L8.23098 1.06875C8.15079 0.764321 7.96008 0.500676 7.69604 0.329227C7.43201 0.157778 7.11358 0.0908188 6.80286 0.141406L3.98411 0.603906C3.74299 0.643005 3.51851 0.751548 3.33812 0.916252C3.15774 1.08096 3.02929 1.29467 2.96848 1.53125L0.663015 10.6242C0.590728 10.91 0.622189 11.2122 0.751799 11.477C0.881409 11.7418 1.10076 11.9521 1.37083 12.0703L6.6052 14.3914C6.76259 14.4614 6.93263 14.4984 7.10487 14.5003C7.2771 14.5021 7.44789 14.4687 7.60674 14.4021C7.7656 14.3355 7.90916 14.2372 8.0286 14.1131C8.14804 13.989 8.24084 13.8418 8.3013 13.6805L8.57395 12.9422C8.5902 12.898 8.59624 12.8506 8.59162 12.8038C8.58699 12.7569 8.57183 12.7116 8.54726 12.6714C8.52269 12.6312 8.48935 12.5971 8.44974 12.5716C8.41012 12.5461 8.36525 12.5299 8.31848 12.5242C7.55953 12.4323 6.81074 12.2702 6.08177 12.0398C5.9267 11.9927 5.79526 11.8886 5.71393 11.7484C5.6326 11.6082 5.60743 11.4424 5.64348 11.2844C5.66438 11.2016 5.70203 11.1239 5.7541 11.0562C5.80617 10.9886 5.87155 10.9323 5.94623 10.8908C6.0209 10.8494 6.10327 10.8237 6.18826 10.8153C6.27324 10.807 6.35904 10.8161 6.44036 10.8422C8.76011 11.5526 11.2394 11.5526 13.5591 10.8422C13.6403 10.8162 13.726 10.8071 13.8109 10.8155C13.8957 10.8239 13.9779 10.8496 14.0525 10.8909C14.1271 10.9322 14.1924 10.9884 14.2445 11.0559C14.2965 11.1235 14.3342 11.201 14.3552 11.2836C14.3917 11.4417 14.3667 11.6078 14.2853 11.7482C14.2039 11.8886 14.0723 11.9929 13.9169 12.0398C13.1882 12.2702 12.4397 12.4324 11.681 12.5242C11.6342 12.5299 11.5893 12.5461 11.5497 12.5716C11.5101 12.5971 11.4768 12.6312 11.4522 12.6714C11.4276 12.7116 11.4125 12.7569 11.4079 12.8038C11.4032 12.8506 11.4093 12.898 11.4255 12.9422L11.6982 13.6805C11.7587 13.8417 11.8516 13.9888 11.971 14.1129C12.0905 14.2369 12.234 14.3352 12.3929 14.4018C12.5517 14.4684 12.7224 14.5018 12.8946 14.5C13.0668 14.4982 13.2369 14.4613 13.3943 14.3914L18.6286 12.0703C18.8987 11.9521 19.1181 11.7418 19.2477 11.477C19.3773 11.2122 19.4087 10.91 19.3365 10.6242ZM7.18723 8.875C7.00181 8.875 6.82056 8.82002 6.66639 8.717C6.51222 8.61399 6.39205 8.46757 6.3211 8.29626C6.25014 8.12496 6.23157 7.93646 6.26775 7.7546C6.30392 7.57275 6.39321 7.4057 6.52432 7.27459C6.65543 7.14348 6.82248 7.05419 7.00434 7.01801C7.18619 6.98184 7.37469 7.00041 7.546 7.07136C7.71731 7.14232 7.86372 7.26248 7.96674 7.41665C8.06975 7.57082 8.12473 7.75208 8.12473 7.9375C8.12473 8.18614 8.02596 8.4246 7.85015 8.60041C7.67433 8.77623 7.43587 8.875 7.18723 8.875ZM12.8122 8.875C12.6268 8.875 12.4456 8.82002 12.2914 8.717C12.1372 8.61399 12.0171 8.46757 11.9461 8.29626C11.8751 8.12496 11.8566 7.93646 11.8927 7.7546C11.9289 7.57275 12.0182 7.4057 12.1493 7.27459C12.2804 7.14348 12.4475 7.05419 12.6293 7.01801C12.8112 6.98184 12.9997 7.00041 13.171 7.07136C13.3423 7.14232 13.4887 7.26248 13.5917 7.41665C13.6948 7.57082 13.7497 7.75208 13.7497 7.9375C13.7497 8.18614 13.651 8.4246 13.4751 8.60041C13.2993 8.77623 13.0609 8.875 12.8122 8.875Z" fill="white"/>
</svg>
