<svg width="80" height="81" viewBox="0 0 80 81" fill="none" xmlns="http://www.w3.org/2000/svg">
<rect y="0.5" width="80" height="80" rx="16" fill="#101323"/>
<path d="M62.4081 49.1982L56.875 27.3751C56.7294 26.807 56.4212 26.2937 55.9883 25.898C55.5553 25.5024 55.0164 25.2416 54.4375 25.1476L47.6762 24.0376C46.9309 23.9177 46.1676 24.0794 45.5347 24.4911C44.9019 24.9028 44.4449 25.5351 44.2525 26.2651L44.2131 26.4245C44.1876 26.5258 44.1835 26.6312 44.2011 26.7341C44.2188 26.8371 44.2577 26.9352 44.3154 27.0222C44.3731 27.1092 44.4484 27.1832 44.5363 27.2395C44.6243 27.2957 44.723 27.333 44.8262 27.3489C46.3777 27.5766 47.9083 27.929 49.4031 28.4026C49.7768 28.5154 50.0936 28.7661 50.2893 29.1038C50.485 29.4416 50.5449 29.8411 50.4568 30.2214C50.4062 30.4195 50.3157 30.6053 50.1906 30.7671C50.0656 30.929 49.9088 31.0636 49.7299 31.1627C49.5509 31.2617 49.3536 31.3231 49.1501 31.3431C48.9465 31.3631 48.741 31.3412 48.5462 31.2789C42.9996 29.5778 37.0715 29.5713 31.5212 31.2601C31.1456 31.3864 30.7358 31.3632 30.3768 31.1952C30.0179 31.0273 29.7375 30.7275 29.5937 30.3582C29.5254 30.1687 29.496 29.9674 29.5071 29.7663C29.5183 29.5652 29.5699 29.3684 29.6588 29.1876C29.7477 29.0068 29.8721 28.8458 30.0245 28.7142C30.177 28.5825 30.3544 28.483 30.5462 28.4214C32.0597 27.9393 33.6098 27.5806 35.1812 27.3489C35.2844 27.333 35.3832 27.2957 35.4711 27.2395C35.5591 27.1832 35.6343 27.1092 35.6921 27.0222C35.7498 26.9352 35.7887 26.8371 35.8063 26.7341C35.8239 26.6312 35.8198 26.5258 35.7943 26.4245L35.755 26.2651C35.5625 25.5345 35.1048 24.9017 34.4711 24.4903C33.8374 24.0788 33.0732 23.9181 32.3275 24.0395L25.5625 25.1495C24.9838 25.2433 24.445 25.5038 24.0121 25.8991C23.5792 26.2944 23.2709 26.8073 23.125 27.3751L17.5918 49.1982C17.4184 49.8842 17.4939 50.6095 17.8049 51.245C18.116 51.8805 18.6424 52.3851 19.2906 52.6689L31.8531 58.2395C32.2308 58.4074 32.6389 58.4963 33.0523 58.5008C33.4656 58.5052 33.8755 58.425 34.2568 58.2652C34.638 58.1054 34.9826 57.8693 35.2692 57.5715C35.5559 57.2737 35.7786 56.9203 35.9237 56.5332L36.5781 54.7614C36.6171 54.6552 36.6316 54.5417 36.6205 54.4291C36.6094 54.3166 36.573 54.2081 36.514 54.1116C36.4551 54.0151 36.3751 53.9332 36.28 53.872C36.1849 53.8108 36.0772 53.7719 35.965 53.7582C34.1435 53.5377 32.3464 53.1485 30.5968 52.5957C30.2247 52.4826 29.9092 52.2327 29.714 51.8962C29.5188 51.5598 29.4584 51.1618 29.545 50.7826C29.5951 50.5839 29.6855 50.3976 29.8104 50.2351C29.9354 50.0727 30.0923 49.9375 30.2716 49.8381C30.4508 49.7387 30.6485 49.677 30.8524 49.6569C31.0564 49.6368 31.2623 49.6588 31.4575 49.7214C37.0249 51.4263 42.9751 51.4263 48.5425 49.7214C48.7374 49.659 48.943 49.6373 49.1467 49.6574C49.3503 49.6775 49.5477 49.739 49.7267 49.8383C49.9056 49.9375 50.0624 50.0723 50.1873 50.2344C50.3123 50.3965 50.4027 50.5824 50.4531 50.7807C50.5406 51.1603 50.4807 51.5589 50.2854 51.8958C50.0901 52.2328 49.774 52.483 49.4012 52.5957C47.6524 53.1487 45.8559 53.5379 44.035 53.7582C43.9227 53.7719 43.8151 53.8108 43.72 53.872C43.6249 53.9332 43.5449 54.0151 43.4859 54.1116C43.4269 54.2081 43.3905 54.3166 43.3795 54.4291C43.3684 54.5417 43.3829 54.6552 43.4218 54.7614L44.0762 56.5332C44.2215 56.9202 44.4444 57.2733 44.7311 57.571C45.0178 57.8687 45.3623 58.1047 45.7435 58.2644C46.1247 58.4242 46.5345 58.5044 46.9477 58.5001C47.361 58.4958 47.7691 58.4071 48.1468 58.2395L60.7093 52.6689C61.3575 52.3851 61.8839 51.8805 62.195 51.245C62.5061 50.6095 62.5816 49.8842 62.4081 49.1982ZM33.25 45.0001C32.805 45.0001 32.37 44.8682 31.9999 44.6209C31.6299 44.3737 31.3415 44.0223 31.1712 43.6112C31.0009 43.2 30.9564 42.7476 31.0432 42.3112C31.13 41.8747 31.3443 41.4738 31.659 41.1591C31.9736 40.8445 32.3746 40.6302 32.811 40.5434C33.2475 40.4565 33.6999 40.5011 34.111 40.6714C34.5221 40.8417 34.8735 41.1301 35.1208 41.5001C35.368 41.8701 35.5 42.3051 35.5 42.7501C35.5 43.3469 35.2629 43.9192 34.841 44.3411C34.419 44.7631 33.8467 45.0001 33.25 45.0001ZM46.75 45.0001C46.305 45.0001 45.87 44.8682 45.4999 44.6209C45.1299 44.3737 44.8415 44.0223 44.6712 43.6112C44.5009 43.2 44.4564 42.7476 44.5432 42.3112C44.63 41.8747 44.8443 41.4738 45.159 41.1591C45.4737 40.8445 45.8746 40.6302 46.311 40.5434C46.7475 40.4565 47.1999 40.5011 47.611 40.6714C48.0221 40.8417 48.3735 41.1301 48.6208 41.5001C48.868 41.8701 49 42.3051 49 42.7501C49 43.3469 48.7629 43.9192 48.341 44.3411C47.919 44.7631 47.3467 45.0001 46.75 45.0001Z" fill="white"/>
</svg>
