<svg width="16" height="17" viewBox="0 0 16 17" fill="none" xmlns="http://www.w3.org/2000/svg">
<path d="M15.4692 11.3997L13.6248 4.12537C13.5763 3.93599 13.4735 3.76488 13.3292 3.633C13.1849 3.50112 13.0053 3.41419 12.8123 3.38287L10.5585 3.01287C10.3101 2.97291 10.0556 3.02678 9.84471 3.16401C9.63378 3.30125 9.48143 3.51203 9.41729 3.75537L9.40416 3.80849C9.39566 3.84224 9.39431 3.8774 9.40018 3.9117C9.40605 3.94601 9.41902 3.97871 9.43826 4.00772C9.4575 4.03672 9.48258 4.06139 9.5119 4.08014C9.54122 4.09889 9.57414 4.11132 9.60854 4.11662C10.1257 4.19252 10.6359 4.30998 11.1342 4.46787C11.2587 4.50545 11.3643 4.58901 11.4296 4.70159C11.4948 4.81418 11.5148 4.94735 11.4854 5.07412C11.4685 5.14017 11.4383 5.20208 11.3967 5.25604C11.355 5.31 11.3027 5.35486 11.2431 5.38788C11.1834 5.42089 11.1177 5.44136 11.0498 5.44802C10.982 5.45468 10.9135 5.4474 10.8485 5.42662C8.99968 4.85961 7.02364 4.85743 5.17354 5.42037C5.04833 5.46246 4.91172 5.45472 4.79208 5.39874C4.67243 5.34276 4.57895 5.24284 4.53104 5.11974C4.50827 5.05658 4.49845 4.98947 4.50218 4.92243C4.5059 4.85538 4.52309 4.78978 4.55273 4.72953C4.58236 4.66927 4.62382 4.6156 4.67464 4.57172C4.72547 4.52784 4.78461 4.49465 4.84854 4.47412C5.35304 4.31342 5.86973 4.19386 6.39354 4.11662C6.42794 4.11132 6.46085 4.09889 6.49017 4.08014C6.51949 4.06139 6.54458 4.03672 6.56382 4.00772C6.58305 3.97871 6.59602 3.94601 6.6019 3.9117C6.60777 3.8774 6.60641 3.84224 6.59791 3.80849L6.58479 3.75537C6.52063 3.51182 6.36806 3.30091 6.15684 3.16375C5.94561 3.02659 5.69087 2.97302 5.44229 3.01349L3.18729 3.38349C2.99439 3.41477 2.81481 3.5016 2.6705 3.63337C2.52619 3.76513 2.42343 3.93611 2.37479 4.12537L0.530412 11.3997C0.472582 11.6284 0.497751 11.8702 0.601439 12.082C0.705128 12.2938 0.88061 12.462 1.09666 12.5566L5.28416 14.4135C5.41008 14.4695 5.54611 14.4991 5.68389 14.5006C5.82168 14.5021 5.95831 14.4753 6.08539 14.4221C6.21248 14.3688 6.32732 14.2901 6.42288 14.1908C6.51843 14.0915 6.59267 13.9738 6.64104 13.8447L6.85916 13.2541C6.87216 13.2187 6.87699 13.1809 6.87329 13.1434C6.8696 13.1059 6.85747 13.0697 6.83781 13.0375C6.81815 13.0054 6.79148 12.9781 6.75979 12.9577C6.72809 12.9373 6.6922 12.9243 6.65479 12.9197C6.04762 12.8462 5.4486 12.7165 4.86541 12.5322C4.74136 12.4945 4.63621 12.4112 4.57114 12.2991C4.50608 12.1869 4.48594 12.0543 4.51479 11.9279C4.53151 11.8616 4.56162 11.7995 4.60328 11.7454C4.64493 11.6912 4.69724 11.6462 4.75698 11.613C4.81672 11.5799 4.88262 11.5593 4.9506 11.5526C5.01859 11.5459 5.08723 11.5533 5.15229 11.5741C7.00808 12.1424 8.99149 12.1424 10.8473 11.5741C10.9123 11.5533 10.9808 11.5461 11.0487 11.5528C11.1166 11.5595 11.1824 11.58 11.242 11.6131C11.3017 11.6462 11.3539 11.6911 11.3956 11.7451C11.4372 11.7992 11.4674 11.8611 11.4842 11.9272C11.5133 12.0537 11.4934 12.1866 11.4283 12.2989C11.3632 12.4113 11.2578 12.4947 11.1335 12.5322C10.5506 12.7166 9.95176 12.8463 9.34479 12.9197C9.30738 12.9243 9.27148 12.9373 9.23979 12.9577C9.20809 12.9781 9.18142 13.0054 9.16177 13.0375C9.14211 13.0697 9.12998 13.1059 9.12628 13.1434C9.12258 13.1809 9.12741 13.2187 9.14041 13.2541L9.35854 13.8447C9.40698 13.9737 9.48126 14.0914 9.57683 14.1907C9.6724 14.2899 9.78723 14.3685 9.91429 14.4218C10.0413 14.4751 10.1779 14.5018 10.3157 14.5004C10.4535 14.4989 10.5895 14.4694 10.7154 14.4135L14.9029 12.5566C15.119 12.462 15.2944 12.2938 15.3981 12.082C15.5018 11.8702 15.527 11.6284 15.4692 11.3997ZM5.74979 10.0004C5.60145 10.0004 5.45645 9.95638 5.33311 9.87397C5.20977 9.79156 5.11364 9.67442 5.05688 9.53738C5.00011 9.40033 4.98526 9.24953 5.0142 9.10405C5.04314 8.95856 5.11457 8.82493 5.21946 8.72004C5.32435 8.61515 5.45798 8.54372 5.60347 8.51478C5.74896 8.48584 5.89976 8.50069 6.0368 8.55746C6.17384 8.61422 6.29098 8.71035 6.37339 8.83369C6.4558 8.95703 6.49979 9.10203 6.49979 9.25037C6.49979 9.44928 6.42077 9.64004 6.28012 9.7807C6.13947 9.92135 5.9487 10.0004 5.74979 10.0004ZM10.2498 10.0004C10.1015 10.0004 9.95645 9.95638 9.83311 9.87397C9.70977 9.79156 9.61364 9.67442 9.55688 9.53738C9.50011 9.40033 9.48526 9.24953 9.5142 9.10405C9.54314 8.95856 9.61457 8.82493 9.71946 8.72004C9.82435 8.61515 9.95798 8.54372 10.1035 8.51478C10.249 8.48584 10.3998 8.50069 10.5368 8.55746C10.6738 8.61422 10.791 8.71035 10.8734 8.83369C10.9558 8.95703 10.9998 9.10203 10.9998 9.25037C10.9998 9.44928 10.9208 9.64004 10.7801 9.7807C10.6395 9.92135 10.4487 10.0004 10.2498 10.0004Z" fill="#101323"/>
</svg>
