<svg width="302" height="302" viewBox="0 0 302 302" fill="none" xmlns="http://www.w3.org/2000/svg">
<g clip-path="url(#clip0_538_7754)">
<path d="M182.208 28.8789C115.066 28.8789 46.5509 81.4544 29.1727 146.307C19.3371 183.016 27.9932 215.791 49.5345 237.325L63.2526 251.043C79.7681 267.552 103.859 277.454 132.997 277.454C200.137 277.454 268.654 224.879 286.032 160.025C295.868 123.316 287.212 90.5411 265.67 69.0076L251.952 55.2908C235.437 38.7805 211.346 28.8789 182.208 28.8789Z" fill="url(#paint0_linear_538_7754)"/>
<path d="M249.799 57.2263C233.634 41.0677 210.057 31.377 181.538 31.377C115.825 31.377 48.7675 82.8324 31.7593 146.307C22.1319 182.235 30.6043 214.312 51.6878 235.388L65.3839 249.083L65.4059 249.105C81.5697 265.264 105.148 274.954 133.665 274.954C199.379 274.954 266.437 223.499 283.446 160.025C293.072 124.097 284.601 92.0188 263.517 70.9444L249.799 57.2263Z" fill="#0D0F1C"/>
<path d="M119.949 261.236C185.662 261.236 252.72 209.781 269.728 146.307L283.446 160.025C266.438 223.499 199.38 274.954 133.666 274.954L119.949 261.236Z" fill="#0D0F1C"/>
<path d="M214.481 229.347C274.249 183.486 294.172 109.13 258.982 63.2687C223.791 17.4076 146.812 17.4078 87.0447 63.2692C27.2773 109.131 7.35381 183.486 42.5444 229.347C77.7351 275.209 154.714 275.208 214.481 229.347Z" fill="url(#paint1_linear_538_7754)"/>
<path d="M213.125 227.582C271.621 182.696 291.12 109.922 256.678 65.0364C222.235 20.1506 146.894 20.1505 88.3984 65.036C29.9026 109.922 10.4034 182.696 44.8456 227.582C79.2879 272.467 154.629 272.468 213.125 227.582Z" fill="#101323"/>
<path d="M198.213 208.145C242.72 173.993 257.557 118.622 231.351 84.47C205.146 50.3181 147.821 50.3184 103.313 84.4706C58.8053 118.623 43.9686 173.994 70.1744 208.146C96.3801 242.298 153.705 242.298 198.213 208.145Z" fill="#101323"/>
<path d="M116.113 256.241C181.826 256.241 248.885 204.785 265.892 141.311C274.055 110.845 269.204 83.1475 254.685 62.5801C272.139 83.542 278.572 113.3 269.727 146.307C252.718 209.782 185.66 261.238 119.948 261.238C85.7746 261.238 58.6953 247.322 42.9648 225.039C59.0743 244.387 84.5718 256.241 116.113 256.241Z" fill="#0D0F1C"/>
<path d="M258.521 67.5753C242.411 48.2274 216.914 36.3743 185.373 36.3743C119.66 36.3743 52.6008 87.8297 35.5938 151.304C27.4305 181.77 32.2817 209.468 46.8003 230.035C29.3471 209.073 22.9142 179.314 31.7592 146.307C48.7674 82.8324 115.825 31.377 181.538 31.377C215.711 31.377 242.79 45.2916 258.521 67.5753Z" fill="#0D0F1C"/>
<path d="M169.348 100.084L167.995 102.447L149.625 171.008L150.159 171.702L188.146 152.89L169.348 100.084Z" fill="url(#paint2_linear_538_7754)"/>
<path d="M169.347 100.084L122.25 152.89L150.158 171.702L159.074 138.424L169.347 100.084Z" fill="url(#paint3_linear_538_7754)"/>
<path d="M148.543 177.732L148.009 178.21L141.465 202.632L141.564 203.776L186.548 158.93L148.543 177.732Z" fill="url(#paint4_linear_538_7754)"/>
<path d="M141.564 203.776L148.542 177.732L120.633 158.93L141.564 203.776Z" fill="url(#paint5_linear_538_7754)"/>
<path d="M150.158 171.703L188.145 152.892L159.074 138.426L150.158 171.703Z" fill="url(#paint6_linear_538_7754)"/>
<path d="M122.25 152.892L150.158 171.703L159.074 138.426L122.25 152.892Z" fill="url(#paint7_linear_538_7754)"/>
<path d="M235.71 91.0349C223.411 78.733 205.467 71.3534 183.761 71.3534C133.762 71.3534 82.7395 110.504 69.7987 158.8C64.1806 179.766 66.6637 199.009 75.3625 214.074C59.3307 198.038 52.89 173.637 60.2127 146.308C73.1536 98.0123 124.176 58.8613 174.175 58.8613C202.469 58.8613 224.371 71.3986 235.71 91.0349Z" fill="#0D0F1C"/>
<path d="M229.46 42.3829C225.761 40.4546 221.863 38.7578 217.781 37.3105L188.263 59.9602C191.717 60.515 195.045 61.2768 198.238 62.23L57.2352 170.425C57.1408 167.094 57.2676 163.682 57.6245 160.202L28.1074 182.851C28.4489 187.17 29.0787 191.374 29.984 195.446L57.4538 174.369C57.706 177.418 58.147 180.393 58.7704 183.282L210.259 67.0398C207.63 65.6909 204.871 64.4945 201.99 63.4612L229.46 42.3829Z" fill="white" fill-opacity="0.2"/>
<path d="M61.0312 191.271L35.1172 211.156C39.6929 221.537 46.3159 230.693 54.6901 238.24L80.3531 218.549C82.4806 220.256 84.7374 221.836 87.1184 223.282L241.56 104.775C240.779 102.102 239.836 99.5127 238.738 97.0153L264.402 77.3235C259.278 67.2809 252.148 58.5149 243.306 51.4082L217.392 71.2928C219.646 72.8409 221.776 74.5196 223.776 76.3173L64.2321 198.739C63.0125 196.342 61.9442 193.85 61.0312 191.271Z" fill="white" fill-opacity="0.2"/>
<path d="M233.622 87.6749C221.322 73.649 202.322 65.108 178.968 65.108C128.969 65.108 77.9464 104.259 65.0056 152.554C58.9607 175.113 62.2948 195.676 72.6594 211.187C58.627 195.185 53.3167 172.045 60.2126 146.308C73.1534 98.0123 124.176 58.8613 174.175 58.8613C200.82 58.8613 221.797 69.9799 233.622 87.6749Z" fill="#0D0F1C"/>
<path fill-rule="evenodd" clip-rule="evenodd" d="M243.863 146.309C230.552 195.985 178.072 236.254 126.644 236.254C75.2171 236.254 44.3161 195.985 57.6268 146.309C70.9375 96.6342 123.417 56.3633 174.846 56.3633C226.273 56.3633 257.174 96.6342 243.863 146.309ZM241.276 146.309C228.335 194.605 177.313 233.756 127.314 233.756C103.877 233.756 84.8251 225.153 72.5296 211.039C72.5723 211.088 72.6163 211.138 72.6602 211.187C62.2957 195.677 58.9615 175.113 65.0064 152.555C77.9473 104.26 128.969 65.1086 178.969 65.1086C202.323 65.1086 221.323 73.6509 233.622 87.6768C243.987 103.187 247.321 123.75 241.276 146.309ZM217.778 71.557C206.235 63.5023 191.388 58.8619 174.176 58.8619C124.176 58.8619 73.1543 98.0129 60.2135 146.309C55.758 162.934 56.3969 178.476 61.1912 191.71C58.4274 179.874 58.6589 166.589 62.4198 152.555C75.7305 102.88 128.21 62.6099 179.639 62.6099C194.168 62.6099 207.059 65.8238 217.778 71.557Z" fill="url(#paint8_linear_538_7754)"/>
</g>
<defs>
<linearGradient id="paint0_linear_538_7754" x1="25.1367" y1="28.8789" x2="273.207" y2="293.273" gradientUnits="userSpaceOnUse">
<stop stop-color="#E8D07A"/>
<stop offset="1" stop-color="#5312D6"/>
</linearGradient>
<linearGradient id="paint1_linear_538_7754" x1="-21.1738" y1="146.309" x2="299.665" y2="232.277" gradientUnits="userSpaceOnUse">
<stop stop-color="#E8D07A"/>
<stop offset="1" stop-color="#5312D6"/>
</linearGradient>
<linearGradient id="paint2_linear_538_7754" x1="149.625" y1="100.084" x2="209.38" y2="132.224" gradientUnits="userSpaceOnUse">
<stop stop-color="#E8D07A"/>
<stop offset="1" stop-color="#5312D6"/>
</linearGradient>
<linearGradient id="paint3_linear_538_7754" x1="122.25" y1="100.084" x2="188.007" y2="143.327" gradientUnits="userSpaceOnUse">
<stop stop-color="#E8D07A"/>
<stop offset="1" stop-color="#5312D6"/>
</linearGradient>
<linearGradient id="paint4_linear_538_7754" x1="141.465" y1="158.93" x2="186.311" y2="204.012" gradientUnits="userSpaceOnUse">
<stop stop-color="#E8D07A"/>
<stop offset="1" stop-color="#5312D6"/>
</linearGradient>
<linearGradient id="paint5_linear_538_7754" x1="120.633" y1="158.93" x2="160.869" y2="183.97" gradientUnits="userSpaceOnUse">
<stop stop-color="#E8D07A"/>
<stop offset="1" stop-color="#5312D6"/>
</linearGradient>
<linearGradient id="paint6_linear_538_7754" x1="150.158" y1="138.426" x2="183.145" y2="176.083" gradientUnits="userSpaceOnUse">
<stop stop-color="#E8D07A"/>
<stop offset="1" stop-color="#5312D6"/>
</linearGradient>
<linearGradient id="paint7_linear_538_7754" x1="122.25" y1="138.426" x2="155.357" y2="175.062" gradientUnits="userSpaceOnUse">
<stop stop-color="#E8D07A"/>
<stop offset="1" stop-color="#5312D6"/>
</linearGradient>
<linearGradient id="paint8_linear_538_7754" x1="54.5352" y1="56.3633" x2="234.019" y2="248.347" gradientUnits="userSpaceOnUse">
<stop stop-color="#E8D07A"/>
<stop offset="1" stop-color="#5312D6"/>
</linearGradient>
<clipPath id="clip0_538_7754">
<rect width="301.5" height="301.5" fill="white"/>
</clipPath>
</defs>
</svg>
