<svg width="1314" height="159" viewBox="0 0 1314 159" fill="none" xmlns="http://www.w3.org/2000/svg">
<mask id="path-1-outside-1_538_8777" maskUnits="userSpaceOnUse" x="0" y="-0.578125" width="1314" height="159" fill="black">
<rect fill="white" y="-0.578125" width="1314" height="159"/>
<path d="M13.9933 12.6678V53.779H77.0284V66.0249H13.9933V110.635H80.8913V122.881H1V0.421875H86.51V12.6678H13.9933Z"/>
<path d="M153.762 12.6678H116.362V33.6607H141.12V44.6821H116.362V111.86H142.876V122.881H103.896V44.6821H88.9709V33.6607H103.896V12.6678H81.5963V0.421875H153.762V12.6678Z"/>
<path d="M202.717 31.3865C224.841 31.3865 236.43 43.2825 236.43 64.4504V122.881H223.963V66.0249C223.963 47.4811 215.008 42.4078 201.137 42.4078C186.037 42.4078 175.677 53.6041 175.677 67.9493V122.881H163.211V12.6678H150.568V0.421875H175.677V46.9563C179.891 37.5095 187.968 31.3865 202.717 31.3865Z"/>
<path d="M422.491 0.421875V12.6678H394.397C406.513 22.9893 413.36 39.7837 413.36 61.6514C413.36 100.313 392.115 123.756 357.349 123.756C322.407 123.756 301.161 100.313 301.161 61.6514C301.161 22.9893 322.407 0.421875 357.349 0.421875H422.491ZM399.665 61.8263C399.665 30.6867 383.687 12.6678 357.349 12.6678C331.011 12.6678 314.857 30.6867 314.857 61.8263C314.857 92.616 331.011 111.51 357.349 111.51C383.687 111.51 399.665 92.616 399.665 61.8263Z"/>
<path d="M419.392 0.421875H529.484V12.6678H419.392V0.421875ZM478.213 30.5118C501.39 30.5118 518.598 47.831 518.598 77.0462C518.598 106.436 501.39 123.756 478.213 123.756C461.532 123.756 451.524 117.458 446.257 105.912V158.044H433.79V33.6607H446.257V48.3558C451.524 36.8097 461.532 30.5118 478.213 30.5118ZM476.633 112.734C494.016 112.734 505.604 98.3891 505.604 77.2212C505.604 55.7034 494.016 41.5331 476.633 41.5331C458.372 41.5331 446.257 55.7034 446.257 77.2212C446.257 98.3891 458.372 112.734 476.633 112.734Z"/>
<path d="M515.724 0.421875H631.61V12.6678H515.724V0.421875ZM577.179 31.3865C601.409 31.3865 615.632 47.4811 615.632 71.798V80.1952H548.558C549.612 99.7886 559.62 112.909 577.179 112.734C592.455 112.559 600.18 105.387 602.287 92.4411L614.754 94.1905C611.769 112.559 598.776 123.581 577.179 123.756C551.543 123.931 535.389 107.311 535.389 77.5711C535.389 49.4055 549.787 31.3865 577.179 31.3865ZM577.179 42.4078C561.552 42.2329 551.016 50.6301 548.734 69.1739H603.341C602.638 50.4551 592.279 42.5828 577.179 42.4078Z"/>
<path d="M623.311 0.421875H708.47V12.6678H623.311V0.421875ZM708.119 123.056H695.652V65.85C695.652 49.4055 685.644 42.2329 671.772 42.2329C657.901 42.2329 647.893 49.4055 647.893 65.85V123.056H635.426V64.2755C634.9 42.9326 649.298 31.2116 671.772 31.2116C694.247 31.2116 708.47 42.9326 708.119 64.2755V123.056Z"/>
<path d="M873.302 0.421875V12.6678H843.382C828.75 12.6678 836.604 12.6678 817.466 12.6678C800.258 12.6678 790.074 18.9657 790.074 30.6867C790.074 42.2329 795.693 47.831 818.168 53.779C853.285 63.0509 863.118 71.623 863.118 91.2165C863.118 111.51 846.262 123.756 818.519 123.756C790.952 123.756 773.043 109.06 771.111 84.9186L784.631 82.6443C785.86 99.7886 799.029 111.51 819.573 111.51C838.185 111.51 849.422 103.987 849.422 91.5664C849.422 78.4457 842.048 74.772 818.168 68.4741C784.807 59.727 776.379 50.805 776.379 32.0863C776.379 11.7931 792.006 0.421875 818.344 0.421875H873.302Z"/>
<path d="M873.302 0.421875H980.805V12.6678H873.302V0.421875ZM923.74 31.3865C949.375 31.5615 966.407 48.1809 966.407 77.746C966.407 105.212 951.131 123.581 923.74 123.756C898.104 123.581 881.073 106.961 881.073 77.746C881.073 50.1052 896.349 31.5615 923.74 31.3865ZM923.74 112.734C941.65 112.559 953.589 99.9635 953.589 77.746C953.589 56.4031 942.879 42.2329 923.74 42.4078C905.83 42.5828 893.89 55.3535 894.066 77.746C894.242 98.9139 904.952 112.909 923.74 112.734Z"/>
<path d="M972.382 0.421875H1070.36V12.6678H972.382V0.421875ZM1056.84 33.6607V90.6916C1056.84 112.035 1043.85 123.756 1021.37 123.756C998.896 123.756 985.727 112.035 985.903 90.6916V33.6607H998.72V89.1172C998.72 105.562 1007.5 112.734 1021.37 112.734C1035.24 112.734 1044.02 105.562 1044.02 89.1172V33.6607H1056.84Z"/>
<path d="M1065.49 0.421875H1140.11V12.6678H1065.49V0.421875ZM1132.92 33.6607V44.6821H1092.36V122.881H1079.89V33.6607H1132.92Z"/>
<path d="M1119.64 0.421875H1235.53V12.6678H1119.64V0.421875ZM1180.74 42.4078C1162.66 42.5828 1152.12 54.6537 1152.3 77.2212C1152.48 100.313 1163.01 112.734 1180.74 112.734C1195.14 112.559 1203.22 103.987 1205.33 91.0415L1217.79 92.7909C1214.81 111.16 1202.34 123.581 1180.74 123.756C1154.76 123.931 1139.31 106.611 1139.31 77.5711C1139.31 48.7057 1154.76 31.2116 1180.74 31.3865C1202.34 31.5615 1214.81 44.857 1217.79 67.2495L1205.33 68.9989C1202.69 52.7294 1196.02 42.5828 1180.74 42.4078Z"/>
<path d="M1223.63 0.421875H1313V12.6678H1223.63V0.421875ZM1274.55 31.3865C1298.78 31.3865 1313 47.4811 1313 71.798V80.1952H1245.93C1246.98 99.7886 1256.99 112.909 1274.55 112.734C1289.82 112.559 1297.55 105.387 1299.66 92.4411L1312.12 94.1905C1309.14 112.559 1296.14 123.581 1274.55 123.756C1248.91 123.931 1232.76 107.311 1232.76 77.5711C1232.76 49.4055 1247.16 31.3865 1274.55 31.3865ZM1274.55 42.4078C1258.92 42.2329 1248.38 50.6301 1246.1 69.1739H1300.71C1300.01 50.4551 1289.65 42.5828 1274.55 42.4078Z"/>
</mask>
<path d="M13.9933 12.6678V53.779H77.0284V66.0249H13.9933V110.635H80.8913V122.881H1V0.421875H86.51V12.6678H13.9933Z" fill="url(#paint0_radial_538_8777)"/>
<path d="M153.762 12.6678H116.362V33.6607H141.12V44.6821H116.362V111.86H142.876V122.881H103.896V44.6821H88.9709V33.6607H103.896V12.6678H81.5963V0.421875H153.762V12.6678Z" fill="url(#paint1_radial_538_8777)"/>
<path d="M202.717 31.3865C224.841 31.3865 236.43 43.2825 236.43 64.4504V122.881H223.963V66.0249C223.963 47.4811 215.008 42.4078 201.137 42.4078C186.037 42.4078 175.677 53.6041 175.677 67.9493V122.881H163.211V12.6678H150.568V0.421875H175.677V46.9563C179.891 37.5095 187.968 31.3865 202.717 31.3865Z" fill="url(#paint2_radial_538_8777)"/>
<path d="M422.491 0.421875V12.6678H394.397C406.513 22.9893 413.36 39.7837 413.36 61.6514C413.36 100.313 392.115 123.756 357.349 123.756C322.407 123.756 301.161 100.313 301.161 61.6514C301.161 22.9893 322.407 0.421875 357.349 0.421875H422.491ZM399.665 61.8263C399.665 30.6867 383.687 12.6678 357.349 12.6678C331.011 12.6678 314.857 30.6867 314.857 61.8263C314.857 92.616 331.011 111.51 357.349 111.51C383.687 111.51 399.665 92.616 399.665 61.8263Z" fill="url(#paint3_radial_538_8777)"/>
<path d="M419.392 0.421875H529.484V12.6678H419.392V0.421875ZM478.213 30.5118C501.39 30.5118 518.598 47.831 518.598 77.0462C518.598 106.436 501.39 123.756 478.213 123.756C461.532 123.756 451.524 117.458 446.257 105.912V158.044H433.79V33.6607H446.257V48.3558C451.524 36.8097 461.532 30.5118 478.213 30.5118ZM476.633 112.734C494.016 112.734 505.604 98.3891 505.604 77.2212C505.604 55.7034 494.016 41.5331 476.633 41.5331C458.372 41.5331 446.257 55.7034 446.257 77.2212C446.257 98.3891 458.372 112.734 476.633 112.734Z" fill="url(#paint4_radial_538_8777)"/>
<path d="M515.724 0.421875H631.61V12.6678H515.724V0.421875ZM577.179 31.3865C601.409 31.3865 615.632 47.4811 615.632 71.798V80.1952H548.558C549.612 99.7886 559.62 112.909 577.179 112.734C592.455 112.559 600.18 105.387 602.287 92.4411L614.754 94.1905C611.769 112.559 598.776 123.581 577.179 123.756C551.543 123.931 535.389 107.311 535.389 77.5711C535.389 49.4055 549.787 31.3865 577.179 31.3865ZM577.179 42.4078C561.552 42.2329 551.016 50.6301 548.734 69.1739H603.341C602.638 50.4551 592.279 42.5828 577.179 42.4078Z" fill="url(#paint5_radial_538_8777)"/>
<path d="M623.311 0.421875H708.47V12.6678H623.311V0.421875ZM708.119 123.056H695.652V65.85C695.652 49.4055 685.644 42.2329 671.772 42.2329C657.901 42.2329 647.893 49.4055 647.893 65.85V123.056H635.426V64.2755C634.9 42.9326 649.298 31.2116 671.772 31.2116C694.247 31.2116 708.47 42.9326 708.119 64.2755V123.056Z" fill="url(#paint6_radial_538_8777)"/>
<path d="M873.302 0.421875V12.6678H843.382C828.75 12.6678 836.604 12.6678 817.466 12.6678C800.258 12.6678 790.074 18.9657 790.074 30.6867C790.074 42.2329 795.693 47.831 818.168 53.779C853.285 63.0509 863.118 71.623 863.118 91.2165C863.118 111.51 846.262 123.756 818.519 123.756C790.952 123.756 773.043 109.06 771.111 84.9186L784.631 82.6443C785.86 99.7886 799.029 111.51 819.573 111.51C838.185 111.51 849.422 103.987 849.422 91.5664C849.422 78.4457 842.048 74.772 818.168 68.4741C784.807 59.727 776.379 50.805 776.379 32.0863C776.379 11.7931 792.006 0.421875 818.344 0.421875H873.302Z" fill="url(#paint7_radial_538_8777)"/>
<path d="M873.302 0.421875H980.805V12.6678H873.302V0.421875ZM923.74 31.3865C949.375 31.5615 966.407 48.1809 966.407 77.746C966.407 105.212 951.131 123.581 923.74 123.756C898.104 123.581 881.073 106.961 881.073 77.746C881.073 50.1052 896.349 31.5615 923.74 31.3865ZM923.74 112.734C941.65 112.559 953.589 99.9635 953.589 77.746C953.589 56.4031 942.879 42.2329 923.74 42.4078C905.83 42.5828 893.89 55.3535 894.066 77.746C894.242 98.9139 904.952 112.909 923.74 112.734Z" fill="url(#paint8_radial_538_8777)"/>
<path d="M972.382 0.421875H1070.36V12.6678H972.382V0.421875ZM1056.84 33.6607V90.6916C1056.84 112.035 1043.85 123.756 1021.37 123.756C998.896 123.756 985.727 112.035 985.903 90.6916V33.6607H998.72V89.1172C998.72 105.562 1007.5 112.734 1021.37 112.734C1035.24 112.734 1044.02 105.562 1044.02 89.1172V33.6607H1056.84Z" fill="url(#paint9_radial_538_8777)"/>
<path d="M1065.49 0.421875H1140.11V12.6678H1065.49V0.421875ZM1132.92 33.6607V44.6821H1092.36V122.881H1079.89V33.6607H1132.92Z" fill="url(#paint10_radial_538_8777)"/>
<path d="M1119.64 0.421875H1235.53V12.6678H1119.64V0.421875ZM1180.74 42.4078C1162.66 42.5828 1152.12 54.6537 1152.3 77.2212C1152.48 100.313 1163.01 112.734 1180.74 112.734C1195.14 112.559 1203.22 103.987 1205.33 91.0415L1217.79 92.7909C1214.81 111.16 1202.34 123.581 1180.74 123.756C1154.76 123.931 1139.31 106.611 1139.31 77.5711C1139.31 48.7057 1154.76 31.2116 1180.74 31.3865C1202.34 31.5615 1214.81 44.857 1217.79 67.2495L1205.33 68.9989C1202.69 52.7294 1196.02 42.5828 1180.74 42.4078Z" fill="url(#paint11_radial_538_8777)"/>
<path d="M1223.63 0.421875H1313V12.6678H1223.63V0.421875ZM1274.55 31.3865C1298.78 31.3865 1313 47.4811 1313 71.798V80.1952H1245.93C1246.98 99.7886 1256.99 112.909 1274.55 112.734C1289.82 112.559 1297.55 105.387 1299.66 92.4411L1312.12 94.1905C1309.14 112.559 1296.14 123.581 1274.55 123.756C1248.91 123.931 1232.76 107.311 1232.76 77.5711C1232.76 49.4055 1247.16 31.3865 1274.55 31.3865ZM1274.55 42.4078C1258.92 42.2329 1248.38 50.6301 1246.1 69.1739H1300.71C1300.01 50.4551 1289.65 42.5828 1274.55 42.4078Z" fill="url(#paint12_radial_538_8777)"/>
<path d="M873.256 0.421875V12.6678H873.347V0.421875H873.256ZM13.9933 12.6678V12.5767H13.9022V12.6678H13.9933ZM13.9933 53.779H13.9022V53.8701H13.9933V53.779ZM77.0284 53.779H77.1195V53.6879H77.0284V53.779ZM77.0284 66.0249V66.116H77.1195V66.0249H77.0284ZM13.9933 66.0249V65.9338H13.9022V66.0249H13.9933ZM13.9933 110.635H13.9022V110.726H13.9933V110.635ZM80.8913 110.635H80.9824V110.544H80.8913V110.635ZM80.8913 122.881V122.972H80.9824V122.881H80.8913ZM1 122.881H0.908889V122.972H1V122.881ZM1 0.421875V0.330764H0.908889V0.421875H1ZM86.51 0.421875H86.6011V0.330764H86.51V0.421875ZM86.51 12.6678V12.7589H86.6011V12.6678H86.51ZM153.762 12.6678V12.7589H153.853V12.6678H153.762ZM116.362 12.6678V12.5767H116.271V12.6678H116.362ZM116.362 33.6607H116.271V33.7519H116.362V33.6607ZM141.12 33.6607H141.211V33.5696H141.12V33.6607ZM141.12 44.6821V44.7732H141.211V44.6821H141.12ZM116.362 44.6821V44.591H116.271V44.6821H116.362ZM116.362 111.86H116.271V111.951H116.362V111.86ZM142.876 111.86H142.967V111.768H142.876V111.86ZM142.876 122.881V122.972H142.967V122.881H142.876ZM103.896 122.881H103.805V122.972H103.896V122.881ZM103.896 44.6821H103.987V44.591H103.896V44.6821ZM88.9709 44.6821H88.8798V44.7732H88.9709V44.6821ZM88.9709 33.6607V33.5696H88.8798V33.6607H88.9709ZM103.896 33.6607V33.7519H103.987V33.6607H103.896ZM103.896 12.6678H103.987V12.5767H103.896V12.6678ZM81.5963 12.6678H81.5052V12.7589H81.5963V12.6678ZM81.5963 0.421875V0.330764H81.5052V0.421875H81.5963ZM153.762 0.421875H153.853V0.330764H153.762V0.421875ZM236.43 122.881V122.972H236.521V122.881H236.43ZM223.963 122.881H223.872V122.972H223.963V122.881ZM175.677 122.881V122.972H175.768V122.881H175.677ZM163.211 122.881H163.119V122.972H163.211V122.881ZM163.211 12.6678H163.302V12.5767H163.211V12.6678ZM150.568 12.6678H150.477V12.7589H150.568V12.6678ZM150.568 0.421875V0.330764H150.477V0.421875H150.568ZM175.677 0.421875H175.768V0.330764H175.677V0.421875ZM175.677 46.9563H175.586L175.76 46.9934L175.677 46.9563ZM422.491 0.421875H422.582V0.330764H422.491V0.421875ZM422.491 12.6678V12.7589H422.582V12.6678H422.491ZM394.397 12.6678V12.5767H394.15L394.338 12.7371L394.397 12.6678ZM419.392 0.421875V0.330764H419.301V0.421875H419.392ZM529.484 0.421875H529.575V0.330764H529.484V0.421875ZM529.484 12.6678V12.7589H529.575V12.6678H529.484ZM419.392 12.6678H419.301V12.7589H419.392V12.6678ZM446.257 105.912L446.339 105.874L446.165 105.912H446.257ZM446.257 158.044V158.135H446.348V158.044H446.257ZM433.79 158.044H433.699V158.135H433.79V158.044ZM433.79 33.6607V33.5696H433.699V33.6607H433.79ZM446.257 33.6607H446.348V33.5696H446.257V33.6607ZM446.257 48.3558H446.165L446.339 48.3936L446.257 48.3558ZM515.724 0.421875V0.330764H515.633V0.421875H515.724ZM631.61 0.421875H631.701V0.330764H631.61V0.421875ZM631.61 12.6678V12.7589H631.701V12.6678H631.61ZM515.724 12.6678H515.633V12.7589H515.724V12.6678ZM615.632 80.1952V80.2863H615.723V80.1952H615.632ZM548.558 80.1952V80.104H548.462L548.467 80.2L548.558 80.1952ZM577.179 112.734L577.18 112.825L577.18 112.825L577.179 112.734ZM602.287 92.4411L602.3 92.3508L602.212 92.3384L602.197 92.4264L602.287 92.4411ZM614.754 94.1905L614.844 94.2051L614.859 94.1132L614.766 94.1003L614.754 94.1905ZM577.179 123.756L577.179 123.847L577.179 123.847L577.179 123.756ZM577.179 42.4078L577.18 42.3167H577.18L577.179 42.4078ZM548.734 69.1739L548.643 69.1627L548.631 69.265H548.734V69.1739ZM603.341 69.1739V69.265H603.435L603.432 69.1704L603.341 69.1739ZM623.311 0.421875V0.330764H623.22V0.421875H623.311ZM708.47 0.421875H708.561V0.330764H708.47V0.421875ZM708.47 12.6678V12.7589H708.561V12.6678H708.47ZM623.311 12.6678H623.22V12.7589H623.311V12.6678ZM708.119 123.056V123.147H708.21V123.056H708.119ZM695.652 123.056H695.561V123.147H695.652V123.056ZM647.893 123.056V123.147H647.984V123.056H647.893ZM635.426 123.056H635.335V123.147H635.426V123.056ZM635.426 64.2755H635.517V64.2733L635.426 64.2755ZM708.119 64.2755L708.027 64.274V64.2755H708.119ZM818.168 53.779L818.145 53.8671L818.145 53.8671L818.168 53.779ZM771.111 84.9186L771.096 84.8287L771.014 84.8426L771.02 84.9258L771.111 84.9186ZM784.631 82.6443L784.722 82.6378L784.715 82.5379L784.616 82.5545L784.631 82.6443ZM818.168 68.4741L818.191 68.386L818.191 68.386L818.168 68.4741ZM980.805 0.421875H980.896V0.330764H980.805V0.421875ZM980.805 12.6678V12.7589H980.896V12.6678H980.805ZM923.74 31.3865L923.74 31.2954L923.739 31.2954L923.74 31.3865ZM923.74 123.756L923.739 123.847L923.74 123.847L923.74 123.756ZM923.74 112.734L923.741 112.825L923.74 112.734ZM923.74 42.4078L923.739 42.3167H923.739L923.74 42.4078ZM894.066 77.746L893.975 77.7467V77.7467L894.066 77.746ZM972.382 0.421875V0.330764H972.291V0.421875H972.382ZM1070.36 0.421875H1070.45V0.330764H1070.36V0.421875ZM1070.36 12.6678V12.7589H1070.45V12.6678H1070.36ZM972.382 12.6678H972.291V12.7589H972.382V12.6678ZM1056.84 33.6607H1056.93V33.5696H1056.84V33.6607ZM985.903 90.6916L985.994 90.6924V90.6916H985.903ZM985.903 33.6607V33.5696H985.812V33.6607H985.903ZM998.72 33.6607H998.811V33.5696H998.72V33.6607ZM1044.02 33.6607V33.5696H1043.93V33.6607H1044.02ZM1065.49 0.421875V0.330764H1065.4V0.421875H1065.49ZM1140.11 0.421875H1140.21V0.330764H1140.11V0.421875ZM1140.11 12.6678V12.7589H1140.21V12.6678H1140.11ZM1065.49 12.6678H1065.4V12.7589H1065.49V12.6678ZM1132.92 33.6607H1133.01V33.5696H1132.92V33.6607ZM1132.92 44.6821V44.7732H1133.01V44.6821H1132.92ZM1092.36 44.6821V44.591H1092.26V44.6821H1092.36ZM1092.36 122.881V122.972H1092.45V122.881H1092.36ZM1079.89 122.881H1079.8V122.972H1079.89V122.881ZM1079.89 33.6607V33.5696H1079.8V33.6607H1079.89ZM1119.64 0.421875V0.330764H1119.55V0.421875H1119.64ZM1235.53 0.421875H1235.62V0.330764H1235.53V0.421875ZM1235.53 12.6678V12.7589H1235.62V12.6678H1235.53ZM1119.64 12.6678H1119.55V12.7589H1119.64V12.6678ZM1180.74 42.4078L1180.75 42.3167L1180.74 42.3167L1180.74 42.4078ZM1152.3 77.2212L1152.39 77.2205V77.2205L1152.3 77.2212ZM1180.74 112.734V112.825L1180.75 112.825L1180.74 112.734ZM1205.33 91.0415L1205.34 90.9513L1205.25 90.9389L1205.24 91.0269L1205.33 91.0415ZM1217.79 92.7909L1217.88 92.8056L1217.9 92.7137L1217.81 92.7007L1217.79 92.7909ZM1180.74 123.756L1180.75 123.847L1180.75 123.847L1180.74 123.756ZM1180.74 31.3865L1180.75 31.2954H1180.75L1180.74 31.3865ZM1217.79 67.2495L1217.81 67.3397L1217.9 67.3272L1217.88 67.2375L1217.79 67.2495ZM1205.33 68.9989L1205.24 69.0135L1205.25 69.1015L1205.34 69.0891L1205.33 68.9989ZM1223.63 0.421875V0.330764H1223.54V0.421875H1223.63ZM1313 0.421875H1313.09V0.330764H1313V0.421875ZM1313 12.6678V12.7589H1313.09V12.6678H1313ZM1223.63 12.6678H1223.54V12.7589H1223.63V12.6678ZM1313 80.1952V80.2863H1313.09V80.1952H1313ZM1245.93 80.1952V80.104H1245.83L1245.84 80.2L1245.93 80.1952ZM1274.55 112.734L1274.55 112.825L1274.55 112.825L1274.55 112.734ZM1299.66 92.4411L1299.67 92.3508L1299.58 92.3384L1299.57 92.4264L1299.66 92.4411ZM1312.12 94.1905L1312.21 94.2051L1312.23 94.1132L1312.13 94.1003L1312.12 94.1905ZM1274.55 123.756L1274.55 123.847L1274.55 123.847L1274.55 123.756ZM1274.55 42.4078L1274.55 42.3167L1274.55 42.4078ZM1246.1 69.1739L1246.01 69.1627L1246 69.265H1246.1V69.1739ZM1300.71 69.1739V69.265H1300.8L1300.8 69.1704L1300.71 69.1739ZM13.9022 12.6678V53.779H14.0844V12.6678H13.9022ZM13.9933 53.8701H77.0284V53.6879H13.9933V53.8701ZM76.9373 53.779V66.0249H77.1195V53.779H76.9373ZM77.0284 65.9338H13.9933V66.116H77.0284V65.9338ZM13.9022 66.0249V110.635H14.0844V66.0249H13.9022ZM13.9933 110.726H80.8913V110.544H13.9933V110.726ZM80.8001 110.635V122.881H80.9824V110.635H80.8001ZM80.8913 122.79H1V122.972H80.8913V122.79ZM1.09111 122.881V0.421875H0.908889V122.881H1.09111ZM1 0.512986H86.51V0.330764H1V0.512986ZM86.4189 0.421875V12.6678H86.6011V0.421875H86.4189ZM86.51 12.5767H13.9933V12.7589H86.51V12.5767ZM153.762 12.5767H116.362V12.7589H153.762V12.5767ZM116.271 12.6678V33.6607H116.453V12.6678H116.271ZM116.362 33.7519H141.12V33.5696H116.362V33.7519ZM141.029 33.6607V44.6821H141.211V33.6607H141.029ZM141.12 44.591H116.362V44.7732H141.12V44.591ZM116.271 44.6821V111.86H116.453V44.6821H116.271ZM116.362 111.951H142.876V111.768H116.362V111.951ZM142.784 111.86V122.881H142.967V111.86H142.784ZM142.876 122.79H103.896V122.972H142.876V122.79ZM103.987 122.881V44.6821H103.805V122.881H103.987ZM103.896 44.591H88.9709V44.7732H103.896V44.591ZM89.062 44.6821V33.6607H88.8798V44.6821H89.062ZM88.9709 33.7519H103.896V33.5696H88.9709V33.7519ZM103.987 33.6607V12.6678H103.805V33.6607H103.987ZM103.896 12.5767H81.5963V12.7589H103.896V12.5767ZM81.6875 12.6678V0.421875H81.5052V12.6678H81.6875ZM81.5963 0.512986H153.762V0.330764H81.5963V0.512986ZM153.671 0.421875V12.6678H153.853V0.421875H153.671ZM202.717 31.4776C213.763 31.4776 222.165 34.4472 227.806 40.0452C233.446 45.6431 236.338 53.8826 236.338 64.4504H236.521C236.521 53.8503 233.619 45.5579 227.934 39.9158C222.249 34.2738 213.795 31.2954 202.717 31.2954V31.4776ZM236.338 64.4504V122.881H236.521V64.4504H236.338ZM236.43 122.79H223.963V122.972H236.43V122.79ZM224.054 122.881V66.0249H223.872V122.881H224.054ZM224.054 66.0249C224.054 56.7401 221.812 50.8055 217.813 47.1948C213.815 43.5859 208.081 42.3167 201.137 42.3167V42.4989C208.065 42.4989 213.743 43.7664 217.691 47.3301C221.636 50.892 223.872 56.7659 223.872 66.0249H224.054ZM201.137 42.3167C185.984 42.3167 175.586 53.5559 175.586 67.9493H175.768C175.768 53.6522 186.089 42.4989 201.137 42.4989V42.3167ZM175.586 67.9493V122.881H175.768V67.9493H175.586ZM175.677 122.79H163.211V122.972H175.677V122.79ZM163.302 122.881V12.6678H163.119V122.881H163.302ZM163.211 12.5767H150.568V12.7589H163.211V12.5767ZM150.66 12.6678V0.421875H150.477V12.6678H150.66ZM150.568 0.512986H175.677V0.330764H150.568V0.512986ZM175.586 0.421875V46.9563H175.768V0.421875H175.586ZM175.76 46.9934C177.861 42.2836 180.923 38.4067 185.294 35.7064C189.666 33.0057 195.355 31.4776 202.717 31.4776V31.2954C195.33 31.2954 189.606 32.8288 185.199 35.5513C180.791 38.2742 177.707 42.1821 175.594 46.9192L175.76 46.9934ZM422.4 0.421875V12.6678H422.582V0.421875H422.4ZM422.491 12.5767H394.397V12.7589H422.491V12.5767ZM394.338 12.7371C406.428 23.0366 413.269 39.802 413.269 61.6514H413.452C413.452 39.7653 406.598 22.942 394.456 12.5984L394.338 12.7371ZM413.269 61.6514C413.269 80.9663 407.962 96.4684 398.324 107.141C388.687 117.812 374.71 123.664 357.349 123.664V123.847C374.753 123.847 388.782 117.978 398.459 107.263C408.136 96.5485 413.452 80.9985 413.452 61.6514H413.269ZM357.349 123.664C339.899 123.664 325.879 117.812 316.22 107.141C306.56 96.4683 301.253 80.9663 301.253 61.6514H301.07C301.07 80.9985 306.386 96.5486 316.085 107.263C325.784 117.978 339.857 123.847 357.349 123.847V123.664ZM301.253 61.6514C301.253 42.3365 306.559 27.0536 316.219 16.6002C325.878 6.1477 339.898 0.512986 357.349 0.512986V0.330764C339.858 0.330764 325.785 5.97977 316.085 16.4765C306.386 26.9724 301.07 42.3042 301.07 61.6514H301.253ZM357.349 0.512986H422.491V0.330764H357.349V0.512986ZM399.756 61.8263C399.756 46.2419 395.758 33.9285 388.452 25.51C381.145 17.0898 370.54 12.5767 357.349 12.5767V12.7589C370.496 12.7589 381.048 17.2553 388.315 25.6294C395.583 34.0053 399.574 46.2712 399.574 61.8263H399.756ZM357.349 12.5767C344.158 12.5767 333.508 17.0897 326.158 25.5098C318.808 33.9283 314.766 46.2416 314.766 61.8263H314.948C314.948 46.2714 318.983 34.0055 326.295 25.6296C333.606 17.2553 344.202 12.7589 357.349 12.7589V12.5767ZM314.766 61.8263C314.766 77.2363 318.808 89.6803 326.157 98.2733C333.507 106.868 344.157 111.601 357.349 111.601V111.419C344.203 111.419 333.607 106.704 326.296 98.1549C318.983 89.6037 314.948 77.2061 314.948 61.8263H314.766ZM357.349 111.601C370.541 111.601 381.147 106.868 388.453 98.2731C395.757 89.68 399.756 77.236 399.756 61.8263H399.574C399.574 77.2063 395.583 89.604 388.314 98.1551C381.047 106.704 370.494 111.419 357.349 111.419V111.601ZM419.392 0.512986H529.484V0.330764H419.392V0.512986ZM529.393 0.421875V12.6678H529.575V0.421875H529.393ZM529.484 12.5767H419.392V12.7589H529.484V12.5767ZM419.483 12.6678V0.421875H419.301V12.6678H419.483ZM478.213 30.6029C489.778 30.6029 499.849 34.9232 507.029 42.8843C514.21 50.8461 518.507 62.4564 518.507 77.0462H518.689C518.689 62.4208 514.382 50.764 507.165 42.7623C499.947 34.76 489.825 30.4207 478.213 30.4207V30.6029ZM518.507 77.0462C518.507 91.7237 514.21 103.378 507.029 111.361C499.849 119.344 489.778 123.664 478.213 123.664V123.847C489.826 123.847 499.947 119.507 507.165 111.483C514.382 103.46 518.689 91.7589 518.689 77.0462H518.507ZM478.213 123.664C469.884 123.664 463.229 122.092 458 119.084C452.773 116.077 448.966 111.632 446.339 105.874L446.174 105.949C448.814 111.737 452.645 116.214 457.91 119.242C463.173 122.27 469.862 123.847 478.213 123.847V123.664ZM446.165 105.912V158.044H446.348V105.912H446.165ZM446.257 157.953H433.79V158.135H446.257V157.953ZM433.881 158.044V33.6607H433.699V158.044H433.881ZM433.79 33.7519H446.257V33.5696H433.79V33.7519ZM446.165 33.6607V48.3558H446.348V33.6607H446.165ZM446.339 48.3936C448.966 42.6356 452.773 38.1901 458 35.183C463.229 32.1753 469.884 30.6029 478.213 30.6029V30.4207C469.862 30.4207 463.173 31.9973 457.91 35.025C452.645 38.0534 448.814 42.5299 446.174 48.318L446.339 48.3936ZM476.633 112.825C485.352 112.825 492.621 109.227 497.708 102.973C502.794 96.7211 505.696 87.821 505.696 77.2212H505.513C505.513 87.7892 502.621 96.6457 497.567 102.858C492.514 109.069 485.297 112.643 476.633 112.643V112.825ZM505.696 77.2212C505.696 66.4466 502.794 57.5027 497.708 51.2505C492.62 44.9966 485.351 41.442 476.633 41.442V41.6242C485.297 41.6242 492.514 45.1548 497.567 51.3655C502.62 57.5778 505.513 66.4779 505.513 77.2212H505.696ZM476.633 41.442C467.477 41.442 459.857 44.9953 454.528 51.2489C449.199 57.5011 446.165 66.4457 446.165 77.2212H446.348C446.348 66.4788 449.372 57.5794 454.666 51.3671C459.96 45.1561 467.528 41.6242 476.633 41.6242V41.442ZM446.165 77.2212C446.165 87.822 449.199 96.7227 454.528 102.975C459.857 109.228 467.477 112.825 476.633 112.825V112.643C467.528 112.643 459.96 109.068 454.666 102.857C449.372 96.6441 446.348 87.7882 446.348 77.2212H446.165ZM515.724 0.512986H631.61V0.330764H515.724V0.512986ZM631.519 0.421875V12.6678H631.701V0.421875H631.519ZM631.61 12.5767H515.724V12.7589H631.61V12.5767ZM515.815 12.6678V0.421875H515.633V12.6678H515.815ZM577.179 31.4776C589.273 31.4776 598.861 35.4937 605.425 42.5355C611.99 49.5782 615.541 59.657 615.541 71.798H615.723C615.723 59.6221 612.162 49.4951 605.558 42.4113C598.954 35.3266 589.315 31.2954 577.179 31.2954V31.4776ZM615.541 71.798V80.1952H615.723V71.798H615.541ZM615.632 80.104H548.558V80.2863H615.632V80.104ZM548.467 80.2C548.995 90.0099 551.764 98.2096 556.61 103.937C561.457 109.666 568.375 112.913 577.18 112.825L577.178 112.643C568.424 112.73 561.559 109.504 556.749 103.819C551.937 98.1311 549.175 89.9738 548.649 80.1903L548.467 80.2ZM577.18 112.825C584.831 112.738 590.604 110.897 594.73 107.447C598.856 103.995 601.321 98.9432 602.377 92.4557L602.197 92.4264C601.146 98.8846 598.696 103.892 594.613 107.307C590.53 110.722 584.802 112.556 577.178 112.643L577.18 112.825ZM602.275 92.5313L614.741 94.2807L614.766 94.1003L602.3 92.3508L602.275 92.5313ZM614.664 94.1759C613.174 103.342 609.189 110.668 602.889 115.725C596.587 120.782 587.961 123.577 577.178 123.664L577.179 123.847C587.993 123.759 596.662 120.956 603.003 115.867C609.344 110.777 613.348 103.408 614.844 94.2051L614.664 94.1759ZM577.178 123.664C564.381 123.752 553.96 119.648 546.738 111.82C539.514 103.991 535.48 92.4252 535.48 77.5711H535.298C535.298 92.457 539.341 104.071 546.604 111.943C553.867 119.816 564.341 123.934 577.179 123.847L577.178 123.664ZM535.48 77.5711C535.48 63.5027 539.076 51.9806 546.081 43.9767C553.084 35.9746 563.504 31.4776 577.179 31.4776V31.2954C563.462 31.2954 552.988 35.8079 545.944 43.8567C538.901 51.9037 535.298 63.4738 535.298 77.5711H535.48ZM577.18 42.3167C569.35 42.2291 562.785 44.2892 557.891 48.7037C552.998 53.1178 549.787 59.876 548.643 69.1627L548.824 69.185C549.964 59.9279 553.161 53.2156 558.013 48.839C562.864 44.4626 569.381 42.4116 577.178 42.4989L577.18 42.3167ZM548.734 69.265H603.341V69.0827H548.734V69.265ZM603.432 69.1704C603.08 59.795 600.309 53.1216 595.722 48.7708C591.135 44.4204 584.745 42.4044 577.18 42.3167L577.178 42.4989C584.713 42.5862 591.053 44.5938 595.596 48.903C600.139 53.2118 602.899 59.834 603.25 69.1773L603.432 69.1704ZM623.311 0.512986H708.47V0.330764H623.311V0.512986ZM708.379 0.421875V12.6678H708.561V0.421875H708.379ZM708.47 12.5767H623.311V12.7589H708.47V12.5767ZM623.402 12.6678V0.421875H623.22V12.6678H623.402ZM708.119 122.965H695.652V123.147H708.119V122.965ZM695.743 123.056V65.85H695.561V123.056H695.743ZM695.743 65.85C695.743 57.6087 693.235 51.6773 688.975 47.8073C684.717 43.9387 678.723 42.1418 671.772 42.1418V42.324C678.693 42.324 684.639 44.1134 688.853 47.9422C693.065 51.7696 695.561 57.6468 695.561 65.85H695.743ZM671.772 42.1418C664.822 42.1418 658.828 43.9387 654.57 47.8073C650.31 51.6773 647.802 57.6087 647.802 65.85H647.984C647.984 57.6468 650.48 51.7696 654.692 47.9422C658.906 44.1134 664.851 42.324 671.772 42.324V42.1418ZM647.802 65.85V123.056H647.984V65.85H647.802ZM647.893 122.965H635.426V123.147H647.893V122.965ZM635.517 123.056V64.2755H635.335V123.056H635.517ZM635.517 64.2733C635.255 53.6241 638.715 45.3857 645.034 39.8083C651.356 34.2291 660.55 31.3027 671.772 31.3027V31.1205C660.52 31.1205 651.278 34.0546 644.914 39.6716C638.547 45.2905 635.071 53.5841 635.335 64.2777L635.517 64.2733ZM671.772 31.3027C682.995 31.3027 692.145 34.2291 698.445 39.8082C704.743 45.3856 708.203 53.6243 708.028 64.274L708.21 64.277C708.386 53.5839 704.91 45.2905 698.566 39.6718C692.223 34.0546 683.025 31.1205 671.772 31.1205V31.3027ZM708.027 64.2755V123.056H708.21V64.2755H708.027ZM843.382 12.5767C843.353 12.5767 843.325 12.5767 843.296 12.5767C843.268 12.5767 843.239 12.5767 843.211 12.5767C843.183 12.5767 843.155 12.5767 843.127 12.5767C843.099 12.5767 843.071 12.5767 843.043 12.5767C843.015 12.5767 842.987 12.5767 842.959 12.5767C842.932 12.5767 842.904 12.5767 842.876 12.5767C842.849 12.5767 842.821 12.5767 842.794 12.5767C842.767 12.5767 842.739 12.5767 842.712 12.5767C842.685 12.5767 842.658 12.5767 842.631 12.5767C842.604 12.5767 842.577 12.5767 842.55 12.5767C842.523 12.5767 842.496 12.5767 842.469 12.5767C842.443 12.5767 842.416 12.5767 842.389 12.5767C842.363 12.5767 842.336 12.5767 842.31 12.5767C842.283 12.5767 842.257 12.5767 842.231 12.5767C842.205 12.5767 842.178 12.5767 842.152 12.5767C842.126 12.5767 842.1 12.5767 842.074 12.5767C842.048 12.5767 842.023 12.5767 841.997 12.5767C841.971 12.5767 841.945 12.5767 841.92 12.5767C841.894 12.5767 841.869 12.5767 841.843 12.5767C841.818 12.5767 841.792 12.5767 841.767 12.5767C841.742 12.5767 841.716 12.5767 841.691 12.5767C841.666 12.5767 841.641 12.5767 841.616 12.5767C841.591 12.5767 841.566 12.5767 841.541 12.5767C841.517 12.5767 841.492 12.5767 841.467 12.5767C841.443 12.5767 841.418 12.5767 841.393 12.5767C841.369 12.5767 841.344 12.5767 841.32 12.5767C841.296 12.5767 841.271 12.5767 841.247 12.5767C841.223 12.5767 841.199 12.5767 841.175 12.5767C841.151 12.5767 841.127 12.5767 841.103 12.5767C841.079 12.5767 841.055 12.5767 841.031 12.5767C841.008 12.5767 840.984 12.5767 840.96 12.5767C840.937 12.5767 840.913 12.5767 840.89 12.5767C840.866 12.5767 840.843 12.5767 840.819 12.5767C840.796 12.5767 840.773 12.5767 840.75 12.5767C840.727 12.5767 840.703 12.5767 840.68 12.5767C840.657 12.5767 840.634 12.5767 840.612 12.5767C840.589 12.5767 840.566 12.5767 840.543 12.5767C840.52 12.5767 840.498 12.5767 840.475 12.5767C840.453 12.5767 840.43 12.5767 840.408 12.5767C840.385 12.5767 840.363 12.5767 840.34 12.5767C840.318 12.5767 840.296 12.5767 840.274 12.5767C840.252 12.5767 840.229 12.5767 840.207 12.5767C840.185 12.5767 840.163 12.5767 840.142 12.5767C840.12 12.5767 840.098 12.5767 840.076 12.5767C840.054 12.5767 840.033 12.5767 840.011 12.5767C839.99 12.5767 839.968 12.5767 839.947 12.5767C839.925 12.5767 839.904 12.5767 839.882 12.5767C839.861 12.5767 839.84 12.5767 839.819 12.5767C839.797 12.5767 839.776 12.5767 839.755 12.5767C839.734 12.5767 839.713 12.5767 839.692 12.5767C839.671 12.5767 839.65 12.5767 839.63 12.5767C839.609 12.5767 839.588 12.5767 839.567 12.5767C839.547 12.5767 839.526 12.5767 839.506 12.5767C839.485 12.5767 839.465 12.5767 839.444 12.5767C839.424 12.5767 839.404 12.5767 839.383 12.5767C839.363 12.5767 839.343 12.5767 839.323 12.5767C839.303 12.5767 839.283 12.5767 839.263 12.5767C839.243 12.5767 839.223 12.5767 839.203 12.5767C839.183 12.5767 839.163 12.5767 839.143 12.5767C839.124 12.5767 839.104 12.5767 839.084 12.5767C839.065 12.5767 839.045 12.5767 839.026 12.5767C839.006 12.5767 838.987 12.5767 838.967 12.5767C838.948 12.5767 838.929 12.5767 838.91 12.5767C838.89 12.5767 838.871 12.5767 838.852 12.5767C838.833 12.5767 838.814 12.5767 838.795 12.5767C838.776 12.5767 838.757 12.5767 838.738 12.5767C838.719 12.5767 838.701 12.5767 838.682 12.5767C838.663 12.5767 838.644 12.5767 838.626 12.5767C838.607 12.5767 838.589 12.5767 838.57 12.5767C838.552 12.5767 838.533 12.5767 838.515 12.5767C838.496 12.5767 838.478 12.5767 838.46 12.5767C838.442 12.5767 838.423 12.5767 838.405 12.5767C838.387 12.5767 838.369 12.5767 838.351 12.5767C838.333 12.5767 838.315 12.5767 838.297 12.5767C838.279 12.5767 838.261 12.5767 838.244 12.5767C838.226 12.5767 838.208 12.5767 838.19 12.5767C838.173 12.5767 838.155 12.5767 838.138 12.5767C838.12 12.5767 838.103 12.5767 838.085 12.5767C838.068 12.5767 838.05 12.5767 838.033 12.5767C838.016 12.5767 837.998 12.5767 837.981 12.5767C837.964 12.5767 837.947 12.5767 837.93 12.5767C837.913 12.5767 837.896 12.5767 837.879 12.5767C837.862 12.5767 837.845 12.5767 837.828 12.5767C837.811 12.5767 837.794 12.5767 837.777 12.5767C837.76 12.5767 837.744 12.5767 837.727 12.5767C837.71 12.5767 837.694 12.5767 837.677 12.5767C837.661 12.5767 837.644 12.5767 837.628 12.5767C837.611 12.5767 837.595 12.5767 837.579 12.5767C837.562 12.5767 837.546 12.5767 837.53 12.5767C837.514 12.5767 837.497 12.5767 837.481 12.5767C837.465 12.5767 837.449 12.5767 837.433 12.5767C837.417 12.5767 837.401 12.5767 837.385 12.5767C837.369 12.5767 837.353 12.5767 837.338 12.5767C837.322 12.5767 837.306 12.5767 837.29 12.5767C837.275 12.5767 837.259 12.5767 837.243 12.5767C837.228 12.5767 837.212 12.5767 837.197 12.5767C837.181 12.5767 837.166 12.5767 837.15 12.5767C837.135 12.5767 837.12 12.5767 837.104 12.5767C837.089 12.5767 837.074 12.5767 837.058 12.5767C837.043 12.5767 837.028 12.5767 837.013 12.5767C836.998 12.5767 836.983 12.5767 836.968 12.5767C836.953 12.5767 836.938 12.5767 836.923 12.5767C836.908 12.5767 836.893 12.5767 836.878 12.5767C836.863 12.5767 836.849 12.5767 836.834 12.5767C836.819 12.5767 836.805 12.5767 836.79 12.5767C836.775 12.5767 836.761 12.5767 836.746 12.5767C836.732 12.5767 836.717 12.5767 836.703 12.5767C836.688 12.5767 836.674 12.5767 836.66 12.5767C836.645 12.5767 836.631 12.5767 836.617 12.5767C836.602 12.5767 836.588 12.5767 836.574 12.5767C836.56 12.5767 836.546 12.5767 836.532 12.5767C836.518 12.5767 836.504 12.5767 836.49 12.5767C836.476 12.5767 836.462 12.5767 836.448 12.5767C836.434 12.5767 836.42 12.5767 836.406 12.5767C836.392 12.5767 836.379 12.5767 836.365 12.5767C836.351 12.5767 836.337 12.5767 836.324 12.5767C836.31 12.5767 836.297 12.5767 836.283 12.5767C836.269 12.5767 836.256 12.5767 836.242 12.5767C836.229 12.5767 836.216 12.5767 836.202 12.5767C836.189 12.5767 836.175 12.5767 836.162 12.5767C836.149 12.5767 836.136 12.5767 836.122 12.5767C836.109 12.5767 836.096 12.5767 836.083 12.5767C836.07 12.5767 836.057 12.5767 836.044 12.5767C836.031 12.5767 836.018 12.5767 836.005 12.5767C835.992 12.5767 835.979 12.5767 835.966 12.5767C835.953 12.5767 835.94 12.5767 835.927 12.5767C835.914 12.5767 835.902 12.5767 835.889 12.5767C835.876 12.5767 835.863 12.5767 835.851 12.5767C835.838 12.5767 835.826 12.5767 835.813 12.5767C835.8 12.5767 835.788 12.5767 835.775 12.5767C835.763 12.5767 835.75 12.5767 835.738 12.5767C835.725 12.5767 835.713 12.5767 835.701 12.5767C835.688 12.5767 835.676 12.5767 835.664 12.5767C835.651 12.5767 835.639 12.5767 835.627 12.5767C835.615 12.5767 835.603 12.5767 835.59 12.5767C835.578 12.5767 835.566 12.5767 835.554 12.5767C835.542 12.5767 835.53 12.5767 835.518 12.5767C835.506 12.5767 835.494 12.5767 835.482 12.5767C835.47 12.5767 835.458 12.5767 835.447 12.5767C835.435 12.5767 835.423 12.5767 835.411 12.5767C835.399 12.5767 835.388 12.5767 835.376 12.5767C835.364 12.5767 835.352 12.5767 835.341 12.5767C835.329 12.5767 835.318 12.5767 835.306 12.5767C835.294 12.5767 835.283 12.5767 835.271 12.5767C835.26 12.5767 835.248 12.5767 835.237 12.5767C835.225 12.5767 835.214 12.5767 835.203 12.5767C835.191 12.5767 835.18 12.5767 835.169 12.5767C835.157 12.5767 835.146 12.5767 835.135 12.5767C835.123 12.5767 835.112 12.5767 835.101 12.5767C835.09 12.5767 835.079 12.5767 835.067 12.5767C835.056 12.5767 835.045 12.5767 835.034 12.5767C835.023 12.5767 835.012 12.5767 835.001 12.5767C834.99 12.5767 834.979 12.5767 834.968 12.5767C834.957 12.5767 834.946 12.5767 834.935 12.5767C834.924 12.5767 834.913 12.5767 834.903 12.5767C834.892 12.5767 834.881 12.5767 834.87 12.5767C834.859 12.5767 834.849 12.5767 834.838 12.5767C834.827 12.5767 834.816 12.5767 834.806 12.5767C834.795 12.5767 834.784 12.5767 834.774 12.5767C834.763 12.5767 834.753 12.5767 834.742 12.5767C834.731 12.5767 834.721 12.5767 834.71 12.5767C834.7 12.5767 834.689 12.5767 834.679 12.5767C834.668 12.5767 834.658 12.5767 834.648 12.5767C834.637 12.5767 834.627 12.5767 834.617 12.5767C834.606 12.5767 834.596 12.5767 834.586 12.5767C834.575 12.5767 834.565 12.5767 834.555 12.5767C834.544 12.5767 834.534 12.5767 834.524 12.5767C834.514 12.5767 834.504 12.5767 834.493 12.5767C834.483 12.5767 834.473 12.5767 834.463 12.5767C834.453 12.5767 834.443 12.5767 834.433 12.5767C834.423 12.5767 834.413 12.5767 834.403 12.5767C834.393 12.5767 834.383 12.5767 834.373 12.5767C834.363 12.5767 834.353 12.5767 834.343 12.5767C834.333 12.5767 834.323 12.5767 834.313 12.5767C834.303 12.5767 834.293 12.5767 834.283 12.5767C834.274 12.5767 834.264 12.5767 834.254 12.5767C834.244 12.5767 834.234 12.5767 834.225 12.5767C834.215 12.5767 834.205 12.5767 834.195 12.5767C834.186 12.5767 834.176 12.5767 834.166 12.5767C834.157 12.5767 834.147 12.5767 834.137 12.5767C834.128 12.5767 834.118 12.5767 834.108 12.5767C834.099 12.5767 834.089 12.5767 834.08 12.5767C834.07 12.5767 834.061 12.5767 834.051 12.5767C834.041 12.5767 834.032 12.5767 834.022 12.5767C834.013 12.5767 834.003 12.5767 833.994 12.5767C833.985 12.5767 833.975 12.5767 833.966 12.5767C833.956 12.5767 833.947 12.5767 833.938 12.5767C833.928 12.5767 833.919 12.5767 833.909 12.5767C833.9 12.5767 833.891 12.5767 833.881 12.5767C833.872 12.5767 833.863 12.5767 833.853 12.5767C833.844 12.5767 833.835 12.5767 833.826 12.5767C833.816 12.5767 833.807 12.5767 833.798 12.5767C833.789 12.5767 833.779 12.5767 833.77 12.5767C833.761 12.5767 833.752 12.5767 833.743 12.5767C833.734 12.5767 833.724 12.5767 833.715 12.5767C833.706 12.5767 833.697 12.5767 833.688 12.5767C833.679 12.5767 833.67 12.5767 833.661 12.5767C833.651 12.5767 833.642 12.5767 833.633 12.5767C833.624 12.5767 833.615 12.5767 833.606 12.5767C833.597 12.5767 833.588 12.5767 833.579 12.5767C833.57 12.5767 833.561 12.5767 833.552 12.5767C833.543 12.5767 833.534 12.5767 833.525 12.5767C833.516 12.5767 833.507 12.5767 833.498 12.5767C833.489 12.5767 833.48 12.5767 833.471 12.5767C833.463 12.5767 833.454 12.5767 833.445 12.5767C833.436 12.5767 833.427 12.5767 833.418 12.5767C833.409 12.5767 833.4 12.5767 833.391 12.5767C833.383 12.5767 833.374 12.5767 833.365 12.5767C833.356 12.5767 833.347 12.5767 833.338 12.5767C833.33 12.5767 833.321 12.5767 833.312 12.5767C833.303 12.5767 833.294 12.5767 833.286 12.5767C833.277 12.5767 833.268 12.5767 833.259 12.5767C833.25 12.5767 833.242 12.5767 833.233 12.5767C833.224 12.5767 833.215 12.5767 833.207 12.5767C833.198 12.5767 833.189 12.5767 833.18 12.5767C833.172 12.5767 833.163 12.5767 833.154 12.5767C833.146 12.5767 833.137 12.5767 833.128 12.5767C833.119 12.5767 833.111 12.5767 833.102 12.5767C833.093 12.5767 833.085 12.5767 833.076 12.5767C833.067 12.5767 833.059 12.5767 833.05 12.5767C833.041 12.5767 833.033 12.5767 833.024 12.5767C833.015 12.5767 833.007 12.5767 832.998 12.5767C832.989 12.5767 832.981 12.5767 832.972 12.5767C832.963 12.5767 832.955 12.5767 832.946 12.5767C832.937 12.5767 832.929 12.5767 832.92 12.5767C832.911 12.5767 832.903 12.5767 832.894 12.5767C832.885 12.5767 832.877 12.5767 832.868 12.5767C832.86 12.5767 832.851 12.5767 832.842 12.5767C832.834 12.5767 832.825 12.5767 832.816 12.5767C832.808 12.5767 832.799 12.5767 832.791 12.5767C832.782 12.5767 832.773 12.5767 832.765 12.5767C832.756 12.5767 832.747 12.5767 832.739 12.5767C832.73 12.5767 832.722 12.5767 832.713 12.5767C832.704 12.5767 832.696 12.5767 832.687 12.5767C832.679 12.5767 832.67 12.5767 832.661 12.5767C832.653 12.5767 832.644 12.5767 832.635 12.5767C832.627 12.5767 832.618 12.5767 832.61 12.5767C832.601 12.5767 832.592 12.5767 832.584 12.5767C832.575 12.5767 832.566 12.5767 832.558 12.5767C832.549 12.5767 832.541 12.5767 832.532 12.5767C832.523 12.5767 832.515 12.5767 832.506 12.5767C832.497 12.5767 832.489 12.5767 832.48 12.5767C832.471 12.5767 832.463 12.5767 832.454 12.5767C832.445 12.5767 832.437 12.5767 832.428 12.5767C832.419 12.5767 832.411 12.5767 832.402 12.5767C832.393 12.5767 832.385 12.5767 832.376 12.5767C832.367 12.5767 832.359 12.5767 832.35 12.5767C832.341 12.5767 832.333 12.5767 832.324 12.5767C832.315 12.5767 832.306 12.5767 832.298 12.5767C832.289 12.5767 832.28 12.5767 832.272 12.5767C832.263 12.5767 832.254 12.5767 832.245 12.5767C832.237 12.5767 832.228 12.5767 832.219 12.5767C832.21 12.5767 832.202 12.5767 832.193 12.5767C832.184 12.5767 832.175 12.5767 832.166 12.5767C832.158 12.5767 832.149 12.5767 832.14 12.5767C832.131 12.5767 832.122 12.5767 832.114 12.5767C832.105 12.5767 832.096 12.5767 832.087 12.5767C832.078 12.5767 832.069 12.5767 832.061 12.5767C832.052 12.5767 832.043 12.5767 832.034 12.5767C832.025 12.5767 832.016 12.5767 832.007 12.5767C831.998 12.5767 831.99 12.5767 831.981 12.5767C831.972 12.5767 831.963 12.5767 831.954 12.5767C831.945 12.5767 831.936 12.5767 831.927 12.5767C831.918 12.5767 831.909 12.5767 831.9 12.5767C831.891 12.5767 831.882 12.5767 831.873 12.5767C831.864 12.5767 831.855 12.5767 831.846 12.5767C831.837 12.5767 831.828 12.5767 831.819 12.5767C831.81 12.5767 831.801 12.5767 831.792 12.5767C831.783 12.5767 831.774 12.5767 831.765 12.5767C831.755 12.5767 831.746 12.5767 831.737 12.5767C831.728 12.5767 831.719 12.5767 831.71 12.5767C831.701 12.5767 831.691 12.5767 831.682 12.5767C831.673 12.5767 831.664 12.5767 831.655 12.5767C831.645 12.5767 831.636 12.5767 831.627 12.5767C831.618 12.5767 831.608 12.5767 831.599 12.5767C831.59 12.5767 831.581 12.5767 831.571 12.5767C831.562 12.5767 831.553 12.5767 831.543 12.5767C831.534 12.5767 831.525 12.5767 831.515 12.5767C831.506 12.5767 831.496 12.5767 831.487 12.5767C831.478 12.5767 831.468 12.5767 831.459 12.5767C831.449 12.5767 831.44 12.5767 831.43 12.5767C831.421 12.5767 831.411 12.5767 831.402 12.5767C831.392 12.5767 831.383 12.5767 831.373 12.5767C831.364 12.5767 831.354 12.5767 831.345 12.5767C831.335 12.5767 831.325 12.5767 831.316 12.5767C831.306 12.5767 831.296 12.5767 831.287 12.5767C831.277 12.5767 831.267 12.5767 831.258 12.5767C831.248 12.5767 831.238 12.5767 831.229 12.5767C831.219 12.5767 831.209 12.5767 831.199 12.5767C831.189 12.5767 831.18 12.5767 831.17 12.5767C831.16 12.5767 831.15 12.5767 831.14 12.5767C831.13 12.5767 831.12 12.5767 831.111 12.5767C831.101 12.5767 831.091 12.5767 831.081 12.5767C831.071 12.5767 831.061 12.5767 831.051 12.5767C831.041 12.5767 831.031 12.5767 831.021 12.5767C831.011 12.5767 831.001 12.5767 830.991 12.5767C830.98 12.5767 830.97 12.5767 830.96 12.5767C830.95 12.5767 830.94 12.5767 830.93 12.5767C830.919 12.5767 830.909 12.5767 830.899 12.5767C830.889 12.5767 830.878 12.5767 830.868 12.5767C830.858 12.5767 830.848 12.5767 830.837 12.5767C830.827 12.5767 830.817 12.5767 830.806 12.5767C830.796 12.5767 830.785 12.5767 830.775 12.5767C830.764 12.5767 830.754 12.5767 830.744 12.5767C830.733 12.5767 830.723 12.5767 830.712 12.5767C830.701 12.5767 830.691 12.5767 830.68 12.5767C830.67 12.5767 830.659 12.5767 830.648 12.5767C830.638 12.5767 830.627 12.5767 830.616 12.5767C830.606 12.5767 830.595 12.5767 830.584 12.5767C830.573 12.5767 830.563 12.5767 830.552 12.5767C830.541 12.5767 830.53 12.5767 830.519 12.5767C830.508 12.5767 830.497 12.5767 830.486 12.5767C830.476 12.5767 830.465 12.5767 830.454 12.5767C830.443 12.5767 830.432 12.5767 830.42 12.5767C830.409 12.5767 830.398 12.5767 830.387 12.5767C830.376 12.5767 830.365 12.5767 830.354 12.5767C830.343 12.5767 830.331 12.5767 830.32 12.5767C830.309 12.5767 830.298 12.5767 830.286 12.5767C830.275 12.5767 830.264 12.5767 830.252 12.5767C830.241 12.5767 830.23 12.5767 830.218 12.5767C830.207 12.5767 830.195 12.5767 830.184 12.5767C830.172 12.5767 830.161 12.5767 830.149 12.5767C830.138 12.5767 830.126 12.5767 830.114 12.5767C830.103 12.5767 830.091 12.5767 830.079 12.5767C830.068 12.5767 830.056 12.5767 830.044 12.5767C830.032 12.5767 830.021 12.5767 830.009 12.5767C829.997 12.5767 829.985 12.5767 829.973 12.5767C829.961 12.5767 829.949 12.5767 829.938 12.5767C829.925 12.5767 829.914 12.5767 829.901 12.5767C829.889 12.5767 829.877 12.5767 829.865 12.5767C829.853 12.5767 829.841 12.5767 829.829 12.5767C829.817 12.5767 829.804 12.5767 829.792 12.5767C829.78 12.5767 829.768 12.5767 829.755 12.5767C829.743 12.5767 829.731 12.5767 829.718 12.5767C829.706 12.5767 829.693 12.5767 829.681 12.5767C829.668 12.5767 829.656 12.5767 829.643 12.5767C829.631 12.5767 829.618 12.5767 829.606 12.5767C829.593 12.5767 829.58 12.5767 829.568 12.5767C829.555 12.5767 829.542 12.5767 829.529 12.5767C829.516 12.5767 829.504 12.5767 829.491 12.5767C829.478 12.5767 829.465 12.5767 829.452 12.5767C829.439 12.5767 829.426 12.5767 829.413 12.5767C829.4 12.5767 829.387 12.5767 829.374 12.5767C829.361 12.5767 829.348 12.5767 829.335 12.5767C829.321 12.5767 829.308 12.5767 829.295 12.5767C829.282 12.5767 829.268 12.5767 829.255 12.5767C829.242 12.5767 829.228 12.5767 829.215 12.5767C829.201 12.5767 829.188 12.5767 829.174 12.5767C829.161 12.5767 829.147 12.5767 829.134 12.5767C829.12 12.5767 829.106 12.5767 829.093 12.5767C829.079 12.5767 829.065 12.5767 829.051 12.5767C829.038 12.5767 829.024 12.5767 829.01 12.5767C828.996 12.5767 828.982 12.5767 828.968 12.5767C828.954 12.5767 828.94 12.5767 828.926 12.5767C828.912 12.5767 828.898 12.5767 828.884 12.5767C828.87 12.5767 828.856 12.5767 828.841 12.5767C828.827 12.5767 828.813 12.5767 828.799 12.5767C828.784 12.5767 828.77 12.5767 828.756 12.5767C828.741 12.5767 828.727 12.5767 828.712 12.5767C828.698 12.5767 828.683 12.5767 828.669 12.5767C828.654 12.5767 828.639 12.5767 828.625 12.5767C828.61 12.5767 828.595 12.5767 828.58 12.5767C828.566 12.5767 828.551 12.5767 828.536 12.5767C828.521 12.5767 828.506 12.5767 828.491 12.5767C828.476 12.5767 828.461 12.5767 828.446 12.5767C828.431 12.5767 828.416 12.5767 828.401 12.5767C828.385 12.5767 828.37 12.5767 828.355 12.5767C828.34 12.5767 828.324 12.5767 828.309 12.5767C828.294 12.5767 828.278 12.5767 828.263 12.5767C828.247 12.5767 828.232 12.5767 828.216 12.5767C828.201 12.5767 828.185 12.5767 828.169 12.5767C828.154 12.5767 828.138 12.5767 828.122 12.5767C828.106 12.5767 828.091 12.5767 828.075 12.5767C828.059 12.5767 828.043 12.5767 828.027 12.5767C828.011 12.5767 827.995 12.5767 827.979 12.5767C827.963 12.5767 827.947 12.5767 827.93 12.5767C827.914 12.5767 827.898 12.5767 827.882 12.5767C827.865 12.5767 827.849 12.5767 827.833 12.5767C827.816 12.5767 827.8 12.5767 827.783 12.5767C827.767 12.5767 827.75 12.5767 827.734 12.5767C827.717 12.5767 827.7 12.5767 827.684 12.5767C827.667 12.5767 827.65 12.5767 827.633 12.5767C827.616 12.5767 827.599 12.5767 827.583 12.5767C827.566 12.5767 827.549 12.5767 827.532 12.5767C827.514 12.5767 827.497 12.5767 827.48 12.5767C827.463 12.5767 827.446 12.5767 827.429 12.5767C827.411 12.5767 827.394 12.5767 827.376 12.5767C827.359 12.5767 827.342 12.5767 827.324 12.5767C827.307 12.5767 827.289 12.5767 827.271 12.5767C827.254 12.5767 827.236 12.5767 827.218 12.5767C827.201 12.5767 827.183 12.5767 827.165 12.5767C827.147 12.5767 827.129 12.5767 827.111 12.5767C827.093 12.5767 827.075 12.5767 827.057 12.5767C827.039 12.5767 827.021 12.5767 827.003 12.5767C826.984 12.5767 826.966 12.5767 826.948 12.5767C826.93 12.5767 826.911 12.5767 826.893 12.5767C826.874 12.5767 826.856 12.5767 826.837 12.5767C826.819 12.5767 826.8 12.5767 826.781 12.5767C826.763 12.5767 826.744 12.5767 826.725 12.5767C826.706 12.5767 826.687 12.5767 826.668 12.5767C826.649 12.5767 826.63 12.5767 826.611 12.5767C826.592 12.5767 826.573 12.5767 826.554 12.5767C826.535 12.5767 826.516 12.5767 826.496 12.5767C826.477 12.5767 826.458 12.5767 826.438 12.5767C826.419 12.5767 826.399 12.5767 826.38 12.5767C826.36 12.5767 826.34 12.5767 826.321 12.5767C826.301 12.5767 826.281 12.5767 826.261 12.5767C826.242 12.5767 826.222 12.5767 826.202 12.5767C826.182 12.5767 826.162 12.5767 826.142 12.5767C826.122 12.5767 826.102 12.5767 826.081 12.5767C826.061 12.5767 826.041 12.5767 826.02 12.5767C826 12.5767 825.98 12.5767 825.959 12.5767C825.939 12.5767 825.918 12.5767 825.898 12.5767C825.877 12.5767 825.856 12.5767 825.836 12.5767C825.815 12.5767 825.794 12.5767 825.773 12.5767C825.752 12.5767 825.731 12.5767 825.71 12.5767C825.689 12.5767 825.668 12.5767 825.647 12.5767C825.626 12.5767 825.605 12.5767 825.583 12.5767C825.562 12.5767 825.541 12.5767 825.519 12.5767C825.498 12.5767 825.477 12.5767 825.455 12.5767C825.433 12.5767 825.412 12.5767 825.39 12.5767C825.368 12.5767 825.347 12.5767 825.325 12.5767C825.303 12.5767 825.281 12.5767 825.259 12.5767C825.237 12.5767 825.215 12.5767 825.193 12.5767C825.171 12.5767 825.149 12.5767 825.126 12.5767C825.104 12.5767 825.082 12.5767 825.06 12.5767C825.037 12.5767 825.015 12.5767 824.992 12.5767C824.97 12.5767 824.947 12.5767 824.924 12.5767C824.902 12.5767 824.879 12.5767 824.856 12.5767C824.833 12.5767 824.81 12.5767 824.787 12.5767C824.764 12.5767 824.741 12.5767 824.718 12.5767C824.695 12.5767 824.672 12.5767 824.649 12.5767C824.625 12.5767 824.602 12.5767 824.579 12.5767C824.555 12.5767 824.532 12.5767 824.508 12.5767C824.485 12.5767 824.461 12.5767 824.437 12.5767C824.414 12.5767 824.39 12.5767 824.366 12.5767C824.342 12.5767 824.318 12.5767 824.294 12.5767C824.27 12.5767 824.246 12.5767 824.222 12.5767C824.198 12.5767 824.173 12.5767 824.149 12.5767C824.125 12.5767 824.1 12.5767 824.076 12.5767C824.052 12.5767 824.027 12.5767 824.002 12.5767C823.978 12.5767 823.953 12.5767 823.928 12.5767C823.904 12.5767 823.879 12.5767 823.854 12.5767C823.829 12.5767 823.804 12.5767 823.779 12.5767C823.754 12.5767 823.728 12.5767 823.703 12.5767C823.678 12.5767 823.653 12.5767 823.627 12.5767C823.602 12.5767 823.576 12.5767 823.551 12.5767C823.525 12.5767 823.5 12.5767 823.474 12.5767C823.448 12.5767 823.422 12.5767 823.397 12.5767C823.371 12.5767 823.345 12.5767 823.319 12.5767C823.293 12.5767 823.267 12.5767 823.24 12.5767C823.214 12.5767 823.188 12.5767 823.162 12.5767C823.135 12.5767 823.109 12.5767 823.082 12.5767C823.056 12.5767 823.029 12.5767 823.003 12.5767C822.976 12.5767 822.949 12.5767 822.922 12.5767C822.895 12.5767 822.869 12.5767 822.841 12.5767C822.815 12.5767 822.787 12.5767 822.76 12.5767C822.733 12.5767 822.706 12.5767 822.678 12.5767C822.651 12.5767 822.624 12.5767 822.596 12.5767C822.569 12.5767 822.541 12.5767 822.513 12.5767C822.486 12.5767 822.458 12.5767 822.43 12.5767C822.402 12.5767 822.374 12.5767 822.346 12.5767C822.318 12.5767 822.29 12.5767 822.262 12.5767C822.234 12.5767 822.206 12.5767 822.177 12.5767C822.149 12.5767 822.121 12.5767 822.092 12.5767C822.064 12.5767 822.035 12.5767 822.006 12.5767C821.978 12.5767 821.949 12.5767 821.92 12.5767C821.891 12.5767 821.862 12.5767 821.833 12.5767C821.804 12.5767 821.775 12.5767 821.746 12.5767C821.717 12.5767 821.687 12.5767 821.658 12.5767C821.629 12.5767 821.599 12.5767 821.57 12.5767C821.54 12.5767 821.51 12.5767 821.481 12.5767C821.451 12.5767 821.421 12.5767 821.391 12.5767C821.361 12.5767 821.331 12.5767 821.301 12.5767C821.271 12.5767 821.241 12.5767 821.211 12.5767C821.18 12.5767 821.15 12.5767 821.12 12.5767C821.089 12.5767 821.059 12.5767 821.028 12.5767C820.997 12.5767 820.967 12.5767 820.936 12.5767C820.905 12.5767 820.874 12.5767 820.843 12.5767C820.812 12.5767 820.781 12.5767 820.75 12.5767C820.719 12.5767 820.687 12.5767 820.656 12.5767C820.625 12.5767 820.593 12.5767 820.562 12.5767C820.53 12.5767 820.499 12.5767 820.467 12.5767C820.435 12.5767 820.403 12.5767 820.371 12.5767C820.34 12.5767 820.308 12.5767 820.276 12.5767C820.243 12.5767 820.211 12.5767 820.179 12.5767C820.147 12.5767 820.114 12.5767 820.082 12.5767C820.049 12.5767 820.017 12.5767 819.984 12.5767C819.952 12.5767 819.919 12.5767 819.886 12.5767C819.853 12.5767 819.82 12.5767 819.787 12.5767C819.754 12.5767 819.721 12.5767 819.688 12.5767C819.655 12.5767 819.621 12.5767 819.588 12.5767C819.554 12.5767 819.521 12.5767 819.487 12.5767C819.454 12.5767 819.42 12.5767 819.386 12.5767C819.352 12.5767 819.319 12.5767 819.285 12.5767C819.251 12.5767 819.216 12.5767 819.182 12.5767C819.148 12.5767 819.114 12.5767 819.079 12.5767C819.045 12.5767 819.011 12.5767 818.976 12.5767C818.941 12.5767 818.907 12.5767 818.872 12.5767C818.837 12.5767 818.802 12.5767 818.767 12.5767C818.732 12.5767 818.697 12.5767 818.662 12.5767C818.627 12.5767 818.592 12.5767 818.557 12.5767C818.521 12.5767 818.486 12.5767 818.45 12.5767C818.415 12.5767 818.379 12.5767 818.343 12.5767C818.307 12.5767 818.272 12.5767 818.236 12.5767C818.2 12.5767 818.164 12.5767 818.127 12.5767C818.091 12.5767 818.055 12.5767 818.019 12.5767C817.982 12.5767 817.946 12.5767 817.909 12.5767C817.873 12.5767 817.836 12.5767 817.799 12.5767C817.763 12.5767 817.726 12.5767 817.689 12.5767C817.652 12.5767 817.615 12.5767 817.577 12.5767C817.54 12.5767 817.503 12.5767 817.466 12.5767V12.7589C817.503 12.7589 817.54 12.7589 817.577 12.7589C817.615 12.7589 817.652 12.7589 817.689 12.7589C817.726 12.7589 817.763 12.7589 817.799 12.7589C817.836 12.7589 817.873 12.7589 817.909 12.7589C817.946 12.7589 817.982 12.7589 818.019 12.7589C818.055 12.7589 818.091 12.7589 818.127 12.7589C818.164 12.7589 818.2 12.7589 818.236 12.7589C818.272 12.7589 818.307 12.7589 818.343 12.7589C818.379 12.7589 818.415 12.7589 818.45 12.7589C818.486 12.7589 818.521 12.7589 818.557 12.7589C818.592 12.7589 818.627 12.7589 818.662 12.7589C818.697 12.7589 818.732 12.7589 818.767 12.7589C818.802 12.7589 818.837 12.7589 818.872 12.7589C818.907 12.7589 818.941 12.7589 818.976 12.7589C819.011 12.7589 819.045 12.7589 819.079 12.7589C819.114 12.7589 819.148 12.7589 819.182 12.7589C819.216 12.7589 819.251 12.7589 819.285 12.7589C819.319 12.7589 819.352 12.7589 819.386 12.7589C819.42 12.7589 819.454 12.7589 819.487 12.7589C819.521 12.7589 819.554 12.7589 819.588 12.7589C819.621 12.7589 819.655 12.7589 819.688 12.7589C819.721 12.7589 819.754 12.7589 819.787 12.7589C819.82 12.7589 819.853 12.7589 819.886 12.7589C819.919 12.7589 819.952 12.7589 819.984 12.7589C820.017 12.7589 820.049 12.7589 820.082 12.7589C820.114 12.7589 820.147 12.7589 820.179 12.7589C820.211 12.7589 820.243 12.7589 820.276 12.7589C820.308 12.7589 820.34 12.7589 820.371 12.7589C820.403 12.7589 820.435 12.7589 820.467 12.7589C820.499 12.7589 820.53 12.7589 820.562 12.7589C820.593 12.7589 820.625 12.7589 820.656 12.7589C820.687 12.7589 820.719 12.7589 820.75 12.7589C820.781 12.7589 820.812 12.7589 820.843 12.7589C820.874 12.7589 820.905 12.7589 820.936 12.7589C820.967 12.7589 820.997 12.7589 821.028 12.7589C821.059 12.7589 821.089 12.7589 821.12 12.7589C821.15 12.7589 821.18 12.7589 821.211 12.7589C821.241 12.7589 821.271 12.7589 821.301 12.7589C821.331 12.7589 821.361 12.7589 821.391 12.7589C821.421 12.7589 821.451 12.7589 821.481 12.7589C821.51 12.7589 821.54 12.7589 821.57 12.7589C821.599 12.7589 821.629 12.7589 821.658 12.7589C821.687 12.7589 821.717 12.7589 821.746 12.7589C821.775 12.7589 821.804 12.7589 821.833 12.7589C821.862 12.7589 821.891 12.7589 821.92 12.7589C821.949 12.7589 821.978 12.7589 822.006 12.7589C822.035 12.7589 822.064 12.7589 822.092 12.7589C822.121 12.7589 822.149 12.7589 822.177 12.7589C822.206 12.7589 822.234 12.7589 822.262 12.7589C822.29 12.7589 822.318 12.7589 822.346 12.7589C822.374 12.7589 822.402 12.7589 822.43 12.7589C822.458 12.7589 822.486 12.7589 822.513 12.7589C822.541 12.7589 822.569 12.7589 822.596 12.7589C822.624 12.7589 822.651 12.7589 822.678 12.7589C822.706 12.7589 822.733 12.7589 822.76 12.7589C822.787 12.7589 822.815 12.7589 822.841 12.7589C822.869 12.7589 822.895 12.7589 822.922 12.7589C822.949 12.7589 822.976 12.7589 823.003 12.7589C823.029 12.7589 823.056 12.7589 823.082 12.7589C823.109 12.7589 823.135 12.7589 823.162 12.7589C823.188 12.7589 823.214 12.7589 823.24 12.7589C823.267 12.7589 823.293 12.7589 823.319 12.7589C823.345 12.7589 823.371 12.7589 823.397 12.7589C823.422 12.7589 823.448 12.7589 823.474 12.7589C823.5 12.7589 823.525 12.7589 823.551 12.7589C823.576 12.7589 823.602 12.7589 823.627 12.7589C823.653 12.7589 823.678 12.7589 823.703 12.7589C823.728 12.7589 823.754 12.7589 823.779 12.7589C823.804 12.7589 823.829 12.7589 823.854 12.7589C823.879 12.7589 823.904 12.7589 823.928 12.7589C823.953 12.7589 823.978 12.7589 824.002 12.7589C824.027 12.7589 824.052 12.7589 824.076 12.7589C824.1 12.7589 824.125 12.7589 824.149 12.7589C824.173 12.7589 824.198 12.7589 824.222 12.7589C824.246 12.7589 824.27 12.7589 824.294 12.7589C824.318 12.7589 824.342 12.7589 824.366 12.7589C824.39 12.7589 824.414 12.7589 824.437 12.7589C824.461 12.7589 824.485 12.7589 824.508 12.7589C824.532 12.7589 824.555 12.7589 824.579 12.7589C824.602 12.7589 824.625 12.7589 824.649 12.7589C824.672 12.7589 824.695 12.7589 824.718 12.7589C824.741 12.7589 824.764 12.7589 824.787 12.7589C824.81 12.7589 824.833 12.7589 824.856 12.7589C824.879 12.7589 824.902 12.7589 824.924 12.7589C824.947 12.7589 824.97 12.7589 824.992 12.7589C825.015 12.7589 825.037 12.7589 825.06 12.7589C825.082 12.7589 825.104 12.7589 825.126 12.7589C825.149 12.7589 825.171 12.7589 825.193 12.7589C825.215 12.7589 825.237 12.7589 825.259 12.7589C825.281 12.7589 825.303 12.7589 825.325 12.7589C825.347 12.7589 825.368 12.7589 825.39 12.7589C825.412 12.7589 825.433 12.7589 825.455 12.7589C825.477 12.7589 825.498 12.7589 825.519 12.7589C825.541 12.7589 825.562 12.7589 825.583 12.7589C825.605 12.7589 825.626 12.7589 825.647 12.7589C825.668 12.7589 825.689 12.7589 825.71 12.7589C825.731 12.7589 825.752 12.7589 825.773 12.7589C825.794 12.7589 825.815 12.7589 825.836 12.7589C825.856 12.7589 825.877 12.7589 825.898 12.7589C825.918 12.7589 825.939 12.7589 825.959 12.7589C825.98 12.7589 826 12.7589 826.02 12.7589C826.041 12.7589 826.061 12.7589 826.081 12.7589C826.102 12.7589 826.122 12.7589 826.142 12.7589C826.162 12.7589 826.182 12.7589 826.202 12.7589C826.222 12.7589 826.242 12.7589 826.261 12.7589C826.281 12.7589 826.301 12.7589 826.321 12.7589C826.34 12.7589 826.36 12.7589 826.38 12.7589C826.399 12.7589 826.419 12.7589 826.438 12.7589C826.458 12.7589 826.477 12.7589 826.496 12.7589C826.516 12.7589 826.535 12.7589 826.554 12.7589C826.573 12.7589 826.592 12.7589 826.611 12.7589C826.63 12.7589 826.649 12.7589 826.668 12.7589C826.687 12.7589 826.706 12.7589 826.725 12.7589C826.744 12.7589 826.763 12.7589 826.781 12.7589C826.8 12.7589 826.819 12.7589 826.837 12.7589C826.856 12.7589 826.874 12.7589 826.893 12.7589C826.911 12.7589 826.93 12.7589 826.948 12.7589C826.966 12.7589 826.984 12.7589 827.003 12.7589C827.021 12.7589 827.039 12.7589 827.057 12.7589C827.075 12.7589 827.093 12.7589 827.111 12.7589C827.129 12.7589 827.147 12.7589 827.165 12.7589C827.183 12.7589 827.201 12.7589 827.218 12.7589C827.236 12.7589 827.254 12.7589 827.271 12.7589C827.289 12.7589 827.307 12.7589 827.324 12.7589C827.342 12.7589 827.359 12.7589 827.376 12.7589C827.394 12.7589 827.411 12.7589 827.429 12.7589C827.446 12.7589 827.463 12.7589 827.48 12.7589C827.497 12.7589 827.514 12.7589 827.532 12.7589C827.549 12.7589 827.566 12.7589 827.583 12.7589C827.599 12.7589 827.616 12.7589 827.633 12.7589C827.65 12.7589 827.667 12.7589 827.684 12.7589C827.7 12.7589 827.717 12.7589 827.734 12.7589C827.75 12.7589 827.767 12.7589 827.783 12.7589C827.8 12.7589 827.816 12.7589 827.833 12.7589C827.849 12.7589 827.865 12.7589 827.882 12.7589C827.898 12.7589 827.914 12.7589 827.93 12.7589C827.947 12.7589 827.963 12.7589 827.979 12.7589C827.995 12.7589 828.011 12.7589 828.027 12.7589C828.043 12.7589 828.059 12.7589 828.075 12.7589C828.091 12.7589 828.106 12.7589 828.122 12.7589C828.138 12.7589 828.154 12.7589 828.169 12.7589C828.185 12.7589 828.201 12.7589 828.216 12.7589C828.232 12.7589 828.247 12.7589 828.263 12.7589C828.278 12.7589 828.294 12.7589 828.309 12.7589C828.324 12.7589 828.34 12.7589 828.355 12.7589C828.37 12.7589 828.385 12.7589 828.401 12.7589C828.416 12.7589 828.431 12.7589 828.446 12.7589C828.461 12.7589 828.476 12.7589 828.491 12.7589C828.506 12.7589 828.521 12.7589 828.536 12.7589C828.551 12.7589 828.566 12.7589 828.58 12.7589C828.595 12.7589 828.61 12.7589 828.625 12.7589C828.639 12.7589 828.654 12.7589 828.669 12.7589C828.683 12.7589 828.698 12.7589 828.712 12.7589C828.727 12.7589 828.741 12.7589 828.756 12.7589C828.77 12.7589 828.784 12.7589 828.799 12.7589C828.813 12.7589 828.827 12.7589 828.841 12.7589C828.856 12.7589 828.87 12.7589 828.884 12.7589C828.898 12.7589 828.912 12.7589 828.926 12.7589C828.94 12.7589 828.954 12.7589 828.968 12.7589C828.982 12.7589 828.996 12.7589 829.01 12.7589C829.024 12.7589 829.038 12.7589 829.051 12.7589C829.065 12.7589 829.079 12.7589 829.093 12.7589C829.106 12.7589 829.12 12.7589 829.134 12.7589C829.147 12.7589 829.161 12.7589 829.174 12.7589C829.188 12.7589 829.201 12.7589 829.215 12.7589C829.228 12.7589 829.242 12.7589 829.255 12.7589C829.268 12.7589 829.282 12.7589 829.295 12.7589C829.308 12.7589 829.321 12.7589 829.335 12.7589C829.348 12.7589 829.361 12.7589 829.374 12.7589C829.387 12.7589 829.4 12.7589 829.413 12.7589C829.426 12.7589 829.439 12.7589 829.452 12.7589C829.465 12.7589 829.478 12.7589 829.491 12.7589C829.504 12.7589 829.516 12.7589 829.529 12.7589C829.542 12.7589 829.555 12.7589 829.568 12.7589C829.58 12.7589 829.593 12.7589 829.606 12.7589C829.618 12.7589 829.631 12.7589 829.643 12.7589C829.656 12.7589 829.668 12.7589 829.681 12.7589C829.693 12.7589 829.706 12.7589 829.718 12.7589C829.731 12.7589 829.743 12.7589 829.755 12.7589C829.768 12.7589 829.78 12.7589 829.792 12.7589C829.804 12.7589 829.817 12.7589 829.829 12.7589C829.841 12.7589 829.853 12.7589 829.865 12.7589C829.877 12.7589 829.889 12.7589 829.901 12.7589C829.914 12.7589 829.925 12.7589 829.938 12.7589C829.949 12.7589 829.961 12.7589 829.973 12.7589C829.985 12.7589 829.997 12.7589 830.009 12.7589C830.021 12.7589 830.032 12.7589 830.044 12.7589C830.056 12.7589 830.068 12.7589 830.079 12.7589C830.091 12.7589 830.103 12.7589 830.114 12.7589C830.126 12.7589 830.138 12.7589 830.149 12.7589C830.161 12.7589 830.172 12.7589 830.184 12.7589C830.195 12.7589 830.207 12.7589 830.218 12.7589C830.23 12.7589 830.241 12.7589 830.252 12.7589C830.264 12.7589 830.275 12.7589 830.286 12.7589C830.298 12.7589 830.309 12.7589 830.32 12.7589C830.331 12.7589 830.343 12.7589 830.354 12.7589C830.365 12.7589 830.376 12.7589 830.387 12.7589C830.398 12.7589 830.409 12.7589 830.42 12.7589C830.432 12.7589 830.443 12.7589 830.454 12.7589C830.465 12.7589 830.476 12.7589 830.486 12.7589C830.497 12.7589 830.508 12.7589 830.519 12.7589C830.53 12.7589 830.541 12.7589 830.552 12.7589C830.563 12.7589 830.573 12.7589 830.584 12.7589C830.595 12.7589 830.606 12.7589 830.616 12.7589C830.627 12.7589 830.638 12.7589 830.648 12.7589C830.659 12.7589 830.67 12.7589 830.68 12.7589C830.691 12.7589 830.701 12.7589 830.712 12.7589C830.723 12.7589 830.733 12.7589 830.744 12.7589C830.754 12.7589 830.764 12.7589 830.775 12.7589C830.785 12.7589 830.796 12.7589 830.806 12.7589C830.817 12.7589 830.827 12.7589 830.837 12.7589C830.848 12.7589 830.858 12.7589 830.868 12.7589C830.878 12.7589 830.889 12.7589 830.899 12.7589C830.909 12.7589 830.919 12.7589 830.93 12.7589C830.94 12.7589 830.95 12.7589 830.96 12.7589C830.97 12.7589 830.98 12.7589 830.991 12.7589C831.001 12.7589 831.011 12.7589 831.021 12.7589C831.031 12.7589 831.041 12.7589 831.051 12.7589C831.061 12.7589 831.071 12.7589 831.081 12.7589C831.091 12.7589 831.101 12.7589 831.111 12.7589C831.12 12.7589 831.13 12.7589 831.14 12.7589C831.15 12.7589 831.16 12.7589 831.17 12.7589C831.18 12.7589 831.189 12.7589 831.199 12.7589C831.209 12.7589 831.219 12.7589 831.229 12.7589C831.238 12.7589 831.248 12.7589 831.258 12.7589C831.267 12.7589 831.277 12.7589 831.287 12.7589C831.296 12.7589 831.306 12.7589 831.316 12.7589C831.325 12.7589 831.335 12.7589 831.345 12.7589C831.354 12.7589 831.364 12.7589 831.373 12.7589C831.383 12.7589 831.392 12.7589 831.402 12.7589C831.411 12.7589 831.421 12.7589 831.43 12.7589C831.44 12.7589 831.449 12.7589 831.459 12.7589C831.468 12.7589 831.478 12.7589 831.487 12.7589C831.496 12.7589 831.506 12.7589 831.515 12.7589C831.525 12.7589 831.534 12.7589 831.543 12.7589C831.553 12.7589 831.562 12.7589 831.571 12.7589C831.581 12.7589 831.59 12.7589 831.599 12.7589C831.608 12.7589 831.618 12.7589 831.627 12.7589C831.636 12.7589 831.645 12.7589 831.655 12.7589C831.664 12.7589 831.673 12.7589 831.682 12.7589C831.691 12.7589 831.701 12.7589 831.71 12.7589C831.719 12.7589 831.728 12.7589 831.737 12.7589C831.746 12.7589 831.755 12.7589 831.765 12.7589C831.774 12.7589 831.783 12.7589 831.792 12.7589C831.801 12.7589 831.81 12.7589 831.819 12.7589C831.828 12.7589 831.837 12.7589 831.846 12.7589C831.855 12.7589 831.864 12.7589 831.873 12.7589C831.882 12.7589 831.891 12.7589 831.9 12.7589C831.909 12.7589 831.918 12.7589 831.927 12.7589C831.936 12.7589 831.945 12.7589 831.954 12.7589C831.963 12.7589 831.972 12.7589 831.981 12.7589C831.99 12.7589 831.998 12.7589 832.007 12.7589C832.016 12.7589 832.025 12.7589 832.034 12.7589C832.043 12.7589 832.052 12.7589 832.061 12.7589C832.069 12.7589 832.078 12.7589 832.087 12.7589C832.096 12.7589 832.105 12.7589 832.114 12.7589C832.122 12.7589 832.131 12.7589 832.14 12.7589C832.149 12.7589 832.158 12.7589 832.166 12.7589C832.175 12.7589 832.184 12.7589 832.193 12.7589C832.202 12.7589 832.21 12.7589 832.219 12.7589C832.228 12.7589 832.237 12.7589 832.245 12.7589C832.254 12.7589 832.263 12.7589 832.272 12.7589C832.28 12.7589 832.289 12.7589 832.298 12.7589C832.306 12.7589 832.315 12.7589 832.324 12.7589C832.333 12.7589 832.341 12.7589 832.35 12.7589C832.359 12.7589 832.367 12.7589 832.376 12.7589C832.385 12.7589 832.393 12.7589 832.402 12.7589C832.411 12.7589 832.419 12.7589 832.428 12.7589C832.437 12.7589 832.445 12.7589 832.454 12.7589C832.463 12.7589 832.471 12.7589 832.48 12.7589C832.489 12.7589 832.497 12.7589 832.506 12.7589C832.515 12.7589 832.523 12.7589 832.532 12.7589C832.541 12.7589 832.549 12.7589 832.558 12.7589C832.566 12.7589 832.575 12.7589 832.584 12.7589C832.592 12.7589 832.601 12.7589 832.61 12.7589C832.618 12.7589 832.627 12.7589 832.635 12.7589C832.644 12.7589 832.653 12.7589 832.661 12.7589C832.67 12.7589 832.679 12.7589 832.687 12.7589C832.696 12.7589 832.704 12.7589 832.713 12.7589C832.722 12.7589 832.73 12.7589 832.739 12.7589C832.747 12.7589 832.756 12.7589 832.765 12.7589C832.773 12.7589 832.782 12.7589 832.791 12.7589C832.799 12.7589 832.808 12.7589 832.816 12.7589C832.825 12.7589 832.834 12.7589 832.842 12.7589C832.851 12.7589 832.86 12.7589 832.868 12.7589C832.877 12.7589 832.885 12.7589 832.894 12.7589C832.903 12.7589 832.911 12.7589 832.92 12.7589C832.929 12.7589 832.937 12.7589 832.946 12.7589C832.955 12.7589 832.963 12.7589 832.972 12.7589C832.981 12.7589 832.989 12.7589 832.998 12.7589C833.007 12.7589 833.015 12.7589 833.024 12.7589C833.033 12.7589 833.041 12.7589 833.05 12.7589C833.059 12.7589 833.067 12.7589 833.076 12.7589C833.085 12.7589 833.093 12.7589 833.102 12.7589C833.111 12.7589 833.119 12.7589 833.128 12.7589C833.137 12.7589 833.146 12.7589 833.154 12.7589C833.163 12.7589 833.172 12.7589 833.18 12.7589C833.189 12.7589 833.198 12.7589 833.207 12.7589C833.215 12.7589 833.224 12.7589 833.233 12.7589C833.242 12.7589 833.25 12.7589 833.259 12.7589C833.268 12.7589 833.277 12.7589 833.286 12.7589C833.294 12.7589 833.303 12.7589 833.312 12.7589C833.321 12.7589 833.33 12.7589 833.338 12.7589C833.347 12.7589 833.356 12.7589 833.365 12.7589C833.374 12.7589 833.383 12.7589 833.391 12.7589C833.4 12.7589 833.409 12.7589 833.418 12.7589C833.427 12.7589 833.436 12.7589 833.445 12.7589C833.454 12.7589 833.463 12.7589 833.471 12.7589C833.48 12.7589 833.489 12.7589 833.498 12.7589C833.507 12.7589 833.516 12.7589 833.525 12.7589C833.534 12.7589 833.543 12.7589 833.552 12.7589C833.561 12.7589 833.57 12.7589 833.579 12.7589C833.588 12.7589 833.597 12.7589 833.606 12.7589C833.615 12.7589 833.624 12.7589 833.633 12.7589C833.642 12.7589 833.651 12.7589 833.661 12.7589C833.67 12.7589 833.679 12.7589 833.688 12.7589C833.697 12.7589 833.706 12.7589 833.715 12.7589C833.724 12.7589 833.734 12.7589 833.743 12.7589C833.752 12.7589 833.761 12.7589 833.77 12.7589C833.779 12.7589 833.789 12.7589 833.798 12.7589C833.807 12.7589 833.816 12.7589 833.826 12.7589C833.835 12.7589 833.844 12.7589 833.853 12.7589C833.863 12.7589 833.872 12.7589 833.881 12.7589C833.891 12.7589 833.9 12.7589 833.909 12.7589C833.919 12.7589 833.928 12.7589 833.938 12.7589C833.947 12.7589 833.956 12.7589 833.966 12.7589C833.975 12.7589 833.985 12.7589 833.994 12.7589C834.003 12.7589 834.013 12.7589 834.022 12.7589C834.032 12.7589 834.041 12.7589 834.051 12.7589C834.061 12.7589 834.07 12.7589 834.08 12.7589C834.089 12.7589 834.099 12.7589 834.108 12.7589C834.118 12.7589 834.128 12.7589 834.137 12.7589C834.147 12.7589 834.157 12.7589 834.166 12.7589C834.176 12.7589 834.186 12.7589 834.195 12.7589C834.205 12.7589 834.215 12.7589 834.225 12.7589C834.234 12.7589 834.244 12.7589 834.254 12.7589C834.264 12.7589 834.274 12.7589 834.283 12.7589C834.293 12.7589 834.303 12.7589 834.313 12.7589C834.323 12.7589 834.333 12.7589 834.343 12.7589C834.353 12.7589 834.363 12.7589 834.373 12.7589C834.383 12.7589 834.393 12.7589 834.403 12.7589C834.413 12.7589 834.423 12.7589 834.433 12.7589C834.443 12.7589 834.453 12.7589 834.463 12.7589C834.473 12.7589 834.483 12.7589 834.493 12.7589C834.504 12.7589 834.514 12.7589 834.524 12.7589C834.534 12.7589 834.544 12.7589 834.555 12.7589C834.565 12.7589 834.575 12.7589 834.586 12.7589C834.596 12.7589 834.606 12.7589 834.617 12.7589C834.627 12.7589 834.637 12.7589 834.648 12.7589C834.658 12.7589 834.668 12.7589 834.679 12.7589C834.689 12.7589 834.7 12.7589 834.71 12.7589C834.721 12.7589 834.731 12.7589 834.742 12.7589C834.753 12.7589 834.763 12.7589 834.774 12.7589C834.784 12.7589 834.795 12.7589 834.806 12.7589C834.816 12.7589 834.827 12.7589 834.838 12.7589C834.849 12.7589 834.859 12.7589 834.87 12.7589C834.881 12.7589 834.892 12.7589 834.903 12.7589C834.913 12.7589 834.924 12.7589 834.935 12.7589C834.946 12.7589 834.957 12.7589 834.968 12.7589C834.979 12.7589 834.99 12.7589 835.001 12.7589C835.012 12.7589 835.023 12.7589 835.034 12.7589C835.045 12.7589 835.056 12.7589 835.067 12.7589C835.079 12.7589 835.09 12.7589 835.101 12.7589C835.112 12.7589 835.123 12.7589 835.135 12.7589C835.146 12.7589 835.157 12.7589 835.169 12.7589C835.18 12.7589 835.191 12.7589 835.203 12.7589C835.214 12.7589 835.225 12.7589 835.237 12.7589C835.248 12.7589 835.26 12.7589 835.271 12.7589C835.283 12.7589 835.294 12.7589 835.306 12.7589C835.318 12.7589 835.329 12.7589 835.341 12.7589C835.352 12.7589 835.364 12.7589 835.376 12.7589C835.388 12.7589 835.399 12.7589 835.411 12.7589C835.423 12.7589 835.435 12.7589 835.447 12.7589C835.458 12.7589 835.47 12.7589 835.482 12.7589C835.494 12.7589 835.506 12.7589 835.518 12.7589C835.53 12.7589 835.542 12.7589 835.554 12.7589C835.566 12.7589 835.578 12.7589 835.59 12.7589C835.603 12.7589 835.615 12.7589 835.627 12.7589C835.639 12.7589 835.651 12.7589 835.664 12.7589C835.676 12.7589 835.688 12.7589 835.701 12.7589C835.713 12.7589 835.725 12.7589 835.738 12.7589C835.75 12.7589 835.763 12.7589 835.775 12.7589C835.788 12.7589 835.8 12.7589 835.813 12.7589C835.826 12.7589 835.838 12.7589 835.851 12.7589C835.863 12.7589 835.876 12.7589 835.889 12.7589C835.902 12.7589 835.914 12.7589 835.927 12.7589C835.94 12.7589 835.953 12.7589 835.966 12.7589C835.979 12.7589 835.992 12.7589 836.005 12.7589C836.018 12.7589 836.031 12.7589 836.044 12.7589C836.057 12.7589 836.07 12.7589 836.083 12.7589C836.096 12.7589 836.109 12.7589 836.122 12.7589C836.136 12.7589 836.149 12.7589 836.162 12.7589C836.175 12.7589 836.189 12.7589 836.202 12.7589C836.216 12.7589 836.229 12.7589 836.242 12.7589C836.256 12.7589 836.269 12.7589 836.283 12.7589C836.297 12.7589 836.31 12.7589 836.324 12.7589C836.337 12.7589 836.351 12.7589 836.365 12.7589C836.379 12.7589 836.392 12.7589 836.406 12.7589C836.42 12.7589 836.434 12.7589 836.448 12.7589C836.462 12.7589 836.476 12.7589 836.49 12.7589C836.504 12.7589 836.518 12.7589 836.532 12.7589C836.546 12.7589 836.56 12.7589 836.574 12.7589C836.588 12.7589 836.602 12.7589 836.617 12.7589C836.631 12.7589 836.645 12.7589 836.66 12.7589C836.674 12.7589 836.688 12.7589 836.703 12.7589C836.717 12.7589 836.732 12.7589 836.746 12.7589C836.761 12.7589 836.775 12.7589 836.79 12.7589C836.805 12.7589 836.819 12.7589 836.834 12.7589C836.849 12.7589 836.863 12.7589 836.878 12.7589C836.893 12.7589 836.908 12.7589 836.923 12.7589C836.938 12.7589 836.953 12.7589 836.968 12.7589C836.983 12.7589 836.998 12.7589 837.013 12.7589C837.028 12.7589 837.043 12.7589 837.058 12.7589C837.074 12.7589 837.089 12.7589 837.104 12.7589C837.12 12.7589 837.135 12.7589 837.15 12.7589C837.166 12.7589 837.181 12.7589 837.197 12.7589C837.212 12.7589 837.228 12.7589 837.243 12.7589C837.259 12.7589 837.275 12.7589 837.29 12.7589C837.306 12.7589 837.322 12.7589 837.338 12.7589C837.353 12.7589 837.369 12.7589 837.385 12.7589C837.401 12.7589 837.417 12.7589 837.433 12.7589C837.449 12.7589 837.465 12.7589 837.481 12.7589C837.497 12.7589 837.514 12.7589 837.53 12.7589C837.546 12.7589 837.562 12.7589 837.579 12.7589C837.595 12.7589 837.611 12.7589 837.628 12.7589C837.644 12.7589 837.661 12.7589 837.677 12.7589C837.694 12.7589 837.71 12.7589 837.727 12.7589C837.744 12.7589 837.76 12.7589 837.777 12.7589C837.794 12.7589 837.811 12.7589 837.828 12.7589C837.845 12.7589 837.862 12.7589 837.879 12.7589C837.896 12.7589 837.913 12.7589 837.93 12.7589C837.947 12.7589 837.964 12.7589 837.981 12.7589C837.998 12.7589 838.016 12.7589 838.033 12.7589C838.05 12.7589 838.068 12.7589 838.085 12.7589C838.103 12.7589 838.12 12.7589 838.138 12.7589C838.155 12.7589 838.173 12.7589 838.19 12.7589C838.208 12.7589 838.226 12.7589 838.244 12.7589C838.261 12.7589 838.279 12.7589 838.297 12.7589C838.315 12.7589 838.333 12.7589 838.351 12.7589C838.369 12.7589 838.387 12.7589 838.405 12.7589C838.423 12.7589 838.442 12.7589 838.46 12.7589C838.478 12.7589 838.496 12.7589 838.515 12.7589C838.533 12.7589 838.552 12.7589 838.57 12.7589C838.589 12.7589 838.607 12.7589 838.626 12.7589C838.644 12.7589 838.663 12.7589 838.682 12.7589C838.701 12.7589 838.719 12.7589 838.738 12.7589C838.757 12.7589 838.776 12.7589 838.795 12.7589C838.814 12.7589 838.833 12.7589 838.852 12.7589C838.871 12.7589 838.89 12.7589 838.91 12.7589C838.929 12.7589 838.948 12.7589 838.967 12.7589C838.987 12.7589 839.006 12.7589 839.026 12.7589C839.045 12.7589 839.065 12.7589 839.084 12.7589C839.104 12.7589 839.124 12.7589 839.143 12.7589C839.163 12.7589 839.183 12.7589 839.203 12.7589C839.223 12.7589 839.243 12.7589 839.263 12.7589C839.283 12.7589 839.303 12.7589 839.323 12.7589C839.343 12.7589 839.363 12.7589 839.383 12.7589C839.404 12.7589 839.424 12.7589 839.444 12.7589C839.465 12.7589 839.485 12.7589 839.506 12.7589C839.526 12.7589 839.547 12.7589 839.567 12.7589C839.588 12.7589 839.609 12.7589 839.63 12.7589C839.65 12.7589 839.671 12.7589 839.692 12.7589C839.713 12.7589 839.734 12.7589 839.755 12.7589C839.776 12.7589 839.797 12.7589 839.819 12.7589C839.84 12.7589 839.861 12.7589 839.882 12.7589C839.904 12.7589 839.925 12.7589 839.947 12.7589C839.968 12.7589 839.99 12.7589 840.011 12.7589C840.033 12.7589 840.054 12.7589 840.076 12.7589C840.098 12.7589 840.12 12.7589 840.142 12.7589C840.163 12.7589 840.185 12.7589 840.207 12.7589C840.229 12.7589 840.252 12.7589 840.274 12.7589C840.296 12.7589 840.318 12.7589 840.34 12.7589C840.363 12.7589 840.385 12.7589 840.408 12.7589C840.43 12.7589 840.453 12.7589 840.475 12.7589C840.498 12.7589 840.52 12.7589 840.543 12.7589C840.566 12.7589 840.589 12.7589 840.612 12.7589C840.634 12.7589 840.657 12.7589 840.68 12.7589C840.703 12.7589 840.727 12.7589 840.75 12.7589C840.773 12.7589 840.796 12.7589 840.819 12.7589C840.843 12.7589 840.866 12.7589 840.89 12.7589C840.913 12.7589 840.937 12.7589 840.96 12.7589C840.984 12.7589 841.008 12.7589 841.031 12.7589C841.055 12.7589 841.079 12.7589 841.103 12.7589C841.127 12.7589 841.151 12.7589 841.175 12.7589C841.199 12.7589 841.223 12.7589 841.247 12.7589C841.271 12.7589 841.296 12.7589 841.32 12.7589C841.344 12.7589 841.369 12.7589 841.393 12.7589C841.418 12.7589 841.443 12.7589 841.467 12.7589C841.492 12.7589 841.517 12.7589 841.541 12.7589C841.566 12.7589 841.591 12.7589 841.616 12.7589C841.641 12.7589 841.666 12.7589 841.691 12.7589C841.716 12.7589 841.742 12.7589 841.767 12.7589C841.792 12.7589 841.818 12.7589 841.843 12.7589C841.869 12.7589 841.894 12.7589 841.92 12.7589C841.945 12.7589 841.971 12.7589 841.997 12.7589C842.023 12.7589 842.048 12.7589 842.074 12.7589C842.1 12.7589 842.126 12.7589 842.152 12.7589C842.178 12.7589 842.205 12.7589 842.231 12.7589C842.257 12.7589 842.283 12.7589 842.31 12.7589C842.336 12.7589 842.363 12.7589 842.389 12.7589C842.416 12.7589 842.443 12.7589 842.469 12.7589C842.496 12.7589 842.523 12.7589 842.55 12.7589C842.577 12.7589 842.604 12.7589 842.631 12.7589C842.658 12.7589 842.685 12.7589 842.712 12.7589C842.739 12.7589 842.767 12.7589 842.794 12.7589C842.821 12.7589 842.849 12.7589 842.876 12.7589C842.904 12.7589 842.932 12.7589 842.959 12.7589C842.987 12.7589 843.015 12.7589 843.043 12.7589C843.071 12.7589 843.099 12.7589 843.127 12.7589C843.155 12.7589 843.183 12.7589 843.211 12.7589C843.239 12.7589 843.268 12.7589 843.296 12.7589C843.325 12.7589 843.353 12.7589 843.382 12.7589V12.5767ZM817.466 12.5767C808.853 12.5767 801.985 14.1524 797.268 17.2054C792.545 20.2616 789.983 24.795 789.983 30.6867H790.165C790.165 24.8574 792.696 20.3813 797.367 17.3583C802.043 14.3321 808.871 12.7589 817.466 12.7589V12.5767ZM789.983 30.6867C789.983 36.478 791.394 40.7931 795.634 44.4016C799.865 48.0023 806.906 50.8929 818.145 53.8671L818.191 53.6909C806.955 50.7172 799.949 47.8346 795.752 44.2628C791.564 40.6986 790.165 36.4416 790.165 30.6867H789.983ZM818.145 53.8671C835.703 58.5029 846.922 62.96 853.753 68.6969C860.575 74.4261 863.027 81.4384 863.027 91.2165H863.209C863.209 81.4011 860.744 74.3306 853.87 68.5574C847.006 62.7919 835.75 58.327 818.191 53.6909L818.145 53.8671ZM863.027 91.2165C863.027 101.335 858.826 109.442 851.168 115.022C843.507 120.605 832.378 123.664 818.519 123.664V123.847C832.402 123.847 843.573 120.783 851.276 115.17C858.981 109.554 863.209 101.392 863.209 91.2165H863.027ZM818.519 123.664C804.751 123.664 793.404 119.995 785.26 113.32C777.116 106.646 772.166 96.9602 771.202 84.9113L771.02 84.9258C771.988 97.0189 776.958 106.752 785.144 113.461C793.329 120.169 804.72 123.847 818.519 123.847V123.664ZM771.126 85.0084L784.646 82.7342L784.616 82.5545L771.096 84.8287L771.126 85.0084ZM784.54 82.6509C785.156 91.2457 788.766 98.4855 794.8 103.576C800.833 108.665 809.284 111.601 819.573 111.601V111.419C809.318 111.419 800.912 108.493 794.918 103.436C788.924 98.3801 785.335 91.1872 784.722 82.6378L784.54 82.6509ZM819.573 111.601C828.889 111.601 836.371 109.718 841.528 106.272C846.687 102.822 849.513 97.8087 849.513 91.5664H849.331C849.331 97.7449 846.538 102.703 841.426 106.12C836.311 109.54 828.868 111.419 819.573 111.419V111.601ZM849.513 91.5664C849.513 88.2781 849.051 85.574 847.979 83.2701C846.907 80.9651 845.227 79.0672 842.802 77.3868C837.958 74.0303 830.128 71.534 818.191 68.386L818.145 68.5622C830.088 71.712 837.885 74.2016 842.698 77.5366C845.101 79.2019 846.758 81.0762 847.814 83.347C848.871 85.6189 849.331 88.2943 849.331 91.5664H849.513ZM818.191 68.386C801.512 64.0128 791.084 59.5998 784.824 53.9519C778.572 48.3112 776.47 41.4298 776.47 32.0863H776.288C776.288 41.4615 778.399 48.4005 784.702 54.0872C790.997 59.7668 801.463 64.1883 818.145 68.5622L818.191 68.386ZM776.47 32.0863C776.47 21.9659 780.365 14.0779 787.539 8.71711C794.717 3.35357 805.186 0.512986 818.344 0.512986V0.330764C805.163 0.330764 794.65 3.17578 787.43 8.57114C780.206 13.9692 776.288 21.9134 776.288 32.0863H776.47ZM818.344 0.512986H873.302V0.330764H818.344V0.512986ZM873.302 0.512986H980.805V0.330764H873.302V0.512986ZM980.714 0.421875V12.6678H980.896V0.421875H980.714ZM980.805 12.5767H873.302V12.7589H980.805V12.5767ZM923.739 31.4776C936.537 31.565 947.178 35.7565 954.621 43.6076C962.063 51.4592 966.316 62.9808 966.316 77.746H966.498C966.498 62.9461 962.235 51.3754 954.753 43.4823C947.27 35.5887 936.578 31.383 923.74 31.2954L923.739 31.4776ZM966.316 77.746C966.316 91.4626 962.502 102.897 955.278 110.924C948.054 118.949 937.414 123.577 923.739 123.664L923.74 123.847C937.457 123.759 948.15 119.115 955.413 111.046C962.675 102.978 966.498 91.4952 966.498 77.746H966.316ZM923.74 123.664C910.943 123.577 900.301 119.386 892.859 111.578C885.416 103.77 881.164 92.336 881.164 77.746H880.982C880.982 92.3712 885.245 103.854 892.727 111.704C900.209 119.553 910.902 123.759 923.739 123.847L923.74 123.664ZM881.164 77.746C881.164 63.9418 884.978 52.4193 892.203 44.3272C899.426 36.2365 910.066 31.565 923.74 31.4776L923.739 31.2954C910.022 31.383 899.329 36.0709 892.067 44.2059C884.805 52.3396 880.982 63.9095 880.982 77.746H881.164ZM923.741 112.825C932.718 112.738 940.206 109.536 945.449 103.566C950.691 97.5974 953.681 88.8705 953.681 77.746H953.498C953.498 88.839 950.518 97.5188 945.312 103.446C940.108 109.372 932.672 112.556 923.739 112.643L923.741 112.825ZM953.681 77.746C953.681 67.0605 950.999 58.1595 945.912 51.95C940.823 45.738 933.333 42.229 923.739 42.3167L923.741 42.4989C933.285 42.4117 940.72 45.9004 945.771 52.0655C950.824 58.233 953.498 67.0886 953.498 77.746H953.681ZM923.739 42.3167C914.761 42.4044 907.273 45.6498 902.052 51.6857C896.832 57.7203 893.887 66.5347 893.975 77.7467L894.157 77.7453C894.069 66.5647 897.006 57.7975 902.19 51.8049C907.372 45.8136 914.809 42.5862 923.741 42.4989L923.739 42.3167ZM893.975 77.7467C894.063 88.3447 896.788 97.158 901.853 103.302C906.92 109.448 914.322 112.913 923.741 112.825L923.739 112.643C914.37 112.73 907.023 109.286 901.994 103.186C896.963 97.0835 894.245 88.3151 894.157 77.7452L893.975 77.7467ZM972.382 0.512986H1070.36V0.330764H972.382V0.512986ZM1070.27 0.421875V12.6678H1070.45V0.421875H1070.27ZM1070.36 12.5767H972.382V12.7589H1070.36V12.5767ZM972.474 12.6678V0.421875H972.291V12.6678H972.474ZM1056.75 33.6607V90.6916H1056.93V33.6607H1056.75ZM1056.75 90.6916C1056.75 101.344 1053.51 109.583 1047.47 115.16C1041.44 120.738 1032.59 123.664 1021.37 123.664V123.847C1032.62 123.847 1041.52 120.912 1047.59 115.294C1053.68 109.675 1056.93 101.382 1056.93 90.6916H1056.75ZM1021.37 123.664C1010.15 123.664 1001.26 120.738 995.204 115.16C989.148 109.583 985.906 101.344 985.994 90.6924L985.812 90.6909C985.724 101.382 988.978 109.675 995.081 115.294C1001.18 120.912 1010.12 123.847 1021.37 123.847V123.664ZM985.994 90.6916V33.6607H985.812V90.6916H985.994ZM985.903 33.7519H998.72V33.5696H985.903V33.7519ZM998.629 33.6607V89.1172H998.811V33.6607H998.629ZM998.629 89.1172C998.629 97.355 1000.83 103.286 1004.78 107.157C1008.73 111.028 1014.42 112.825 1021.37 112.825V112.643C1014.45 112.643 1008.81 110.854 1004.91 107.027C1001 103.201 998.811 97.3238 998.811 89.1172H998.629ZM1021.37 112.825C1028.32 112.825 1034.01 111.028 1037.96 107.157C1041.91 103.286 1044.11 97.355 1044.11 89.1172H1043.93C1043.93 97.3238 1041.74 103.201 1037.83 107.027C1033.93 110.854 1028.29 112.643 1021.37 112.643V112.825ZM1044.11 89.1172V33.6607H1043.93V89.1172H1044.11ZM1044.02 33.7519H1056.84V33.5696H1044.02V33.7519ZM1065.49 0.512986H1140.11V0.330764H1065.49V0.512986ZM1140.02 0.421875V12.6678H1140.21V0.421875H1140.02ZM1140.11 12.5767H1065.49V12.7589H1140.11V12.5767ZM1065.58 12.6678V0.421875H1065.4V12.6678H1065.58ZM1132.82 33.6607V44.6821H1133.01V33.6607H1132.82ZM1132.92 44.591H1092.36V44.7732H1132.92V44.591ZM1092.26 44.6821V122.881H1092.45V44.6821H1092.26ZM1092.36 122.79H1079.89V122.972H1092.36V122.79ZM1079.98 122.881V33.6607H1079.8V122.881H1079.98ZM1079.89 33.7519H1132.92V33.5696H1079.89V33.7519ZM1119.64 0.512986H1235.53V0.330764H1119.64V0.512986ZM1235.44 0.421875V12.6678H1235.62V0.421875H1235.44ZM1235.53 12.5767H1119.64V12.7589H1235.53V12.5767ZM1119.73 12.6678V0.421875H1119.55V12.6678H1119.73ZM1180.74 42.3167C1171.68 42.4044 1164.5 45.4741 1159.6 51.3591C1154.71 57.2417 1152.12 65.9252 1152.21 77.2219L1152.39 77.2205C1152.3 65.9496 1154.89 57.3139 1159.74 51.4756C1164.6 45.6395 1171.72 42.5862 1180.75 42.4989L1180.74 42.3167ZM1152.21 77.2219C1152.3 88.7802 1154.98 97.6814 1159.87 103.695C1164.76 109.711 1171.85 112.825 1180.74 112.825V112.643C1171.9 112.643 1164.86 109.547 1160.01 103.58C1155.15 97.6097 1152.48 88.7544 1152.39 77.2205L1152.21 77.2219ZM1180.75 112.825C1187.96 112.738 1193.6 110.545 1197.71 106.744C1201.81 102.944 1204.36 97.5437 1205.42 91.0562L1205.24 91.0269C1204.19 97.485 1201.65 102.844 1197.58 106.61C1193.52 110.375 1187.92 112.556 1180.74 112.643L1180.75 112.825ZM1205.31 91.1318L1217.78 92.8812L1217.81 92.7007L1205.34 90.9513L1205.31 91.1318ZM1217.7 92.7763C1216.21 101.944 1212.36 109.621 1206.19 115.027C1200.02 120.434 1191.52 123.577 1180.74 123.664L1180.75 123.847C1191.56 123.759 1200.1 120.605 1206.31 115.165C1212.52 109.725 1216.39 102.007 1217.88 92.8056L1217.7 92.7763ZM1180.74 123.664C1167.77 123.752 1157.44 119.473 1150.35 111.558C1143.26 103.642 1139.4 92.0758 1139.4 77.5711H1139.22C1139.22 92.1066 1143.08 103.721 1150.21 111.68C1157.34 119.641 1167.73 123.934 1180.75 123.847L1180.74 123.664ZM1139.4 77.5711C1139.4 63.1539 1143.26 51.588 1150.35 43.6494C1157.44 35.7122 1167.77 31.3903 1180.74 31.4776L1180.75 31.2954C1167.73 31.2078 1157.34 35.5455 1150.21 43.528C1143.08 51.509 1139.22 63.1229 1139.22 77.5711H1139.4ZM1180.74 31.4776C1191.52 31.5649 1200.01 34.9258 1206.18 41.0511C1212.36 47.1777 1216.21 56.0787 1217.7 67.2615L1217.88 67.2375C1216.39 56.0278 1212.52 47.0848 1206.31 40.9218C1200.1 34.7574 1191.56 31.383 1180.75 31.2954L1180.74 31.4776ZM1217.78 67.1593L1205.31 68.9087L1205.34 69.0891L1217.81 67.3397L1217.78 67.1593ZM1205.42 68.9844C1204.1 60.8428 1201.77 54.2195 1197.85 49.6089C1193.92 44.9939 1188.41 42.4044 1180.75 42.3167L1180.74 42.4989C1188.36 42.5861 1193.82 45.1574 1197.71 49.7269C1201.6 54.3007 1203.92 60.8855 1205.24 69.0135L1205.42 68.9844ZM1223.63 0.512986H1313V0.330764H1223.63V0.512986ZM1312.91 0.421875V12.6678H1313.09V0.421875H1312.91ZM1313 12.5767H1223.63V12.7589H1313V12.5767ZM1223.72 12.6678V0.421875H1223.54V12.6678H1223.72ZM1274.55 31.4776C1286.64 31.4776 1296.23 35.4937 1302.79 42.5355C1309.36 49.5782 1312.91 59.657 1312.91 71.798H1313.09C1313.09 59.6221 1309.53 49.4951 1302.93 42.4113C1296.32 35.3266 1286.68 31.2954 1274.55 31.2954V31.4776ZM1312.91 71.798V80.1952H1313.09V71.798H1312.91ZM1313 80.104H1245.93V80.2863H1313V80.104ZM1245.84 80.2C1246.36 90.0099 1249.13 98.2096 1253.98 103.937C1258.82 109.666 1265.74 112.913 1274.55 112.825L1274.55 112.643C1265.79 112.73 1258.93 109.504 1254.12 103.819C1249.3 98.1311 1246.54 89.9738 1246.02 80.1903L1245.84 80.2ZM1274.55 112.825C1282.2 112.738 1287.97 110.897 1292.1 107.447C1296.22 103.995 1298.69 98.9432 1299.75 92.4557L1299.57 92.4264C1298.51 98.8846 1296.06 103.892 1291.98 107.307C1287.9 110.722 1282.17 112.556 1274.55 112.643L1274.55 112.825ZM1299.64 92.5313L1312.11 94.2807L1312.13 94.1003L1299.67 92.3508L1299.64 92.5313ZM1312.03 94.1759C1310.54 103.342 1306.56 110.668 1300.26 115.725C1293.96 120.782 1285.33 123.577 1274.55 123.664L1274.55 123.847C1285.36 123.759 1294.03 120.956 1300.37 115.867C1306.71 110.777 1310.72 103.408 1312.21 94.2051L1312.03 94.1759ZM1274.55 123.664C1261.75 123.752 1251.33 119.648 1244.11 111.82C1236.88 103.991 1232.85 92.4252 1232.85 77.5711H1232.67C1232.67 92.457 1236.71 104.071 1243.97 111.943C1251.24 119.816 1261.71 123.934 1274.55 123.847L1274.55 123.664ZM1232.85 77.5711C1232.85 63.5027 1236.44 51.9806 1243.45 43.9767C1250.45 35.9746 1260.87 31.4776 1274.55 31.4776V31.2954C1260.83 31.2954 1250.36 35.8079 1243.31 43.8567C1236.27 51.9037 1232.67 63.4738 1232.67 77.5711H1232.85ZM1274.55 42.3167C1266.72 42.2291 1260.15 44.2892 1255.26 48.7037C1250.37 53.1178 1247.15 59.876 1246.01 69.1627L1246.19 69.185C1247.33 59.9279 1250.53 53.2156 1255.38 48.839C1260.23 44.4626 1266.75 42.4116 1274.55 42.4989L1274.55 42.3167ZM1246.1 69.265H1300.71V69.0827H1246.1V69.265ZM1300.8 69.1704C1300.45 59.795 1297.68 53.1216 1293.09 48.7708C1288.5 44.4204 1282.11 42.4044 1274.55 42.3167L1274.55 42.4989C1282.08 42.5862 1288.42 44.5938 1292.96 48.903C1297.51 53.2118 1300.27 59.834 1300.62 69.1773L1300.8 69.1704ZM873.302 12.5767H843.382V12.7589H873.302V12.5767Z" fill="white" mask="url(#path-1-outside-1_538_8777)"/>
<defs>
<radialGradient id="paint0_radial_538_8777" cx="0" cy="0" r="1" gradientUnits="userSpaceOnUse" gradientTransform="translate(657.746 79.233) rotate(-180) scale(1073.93 846.337)">
<stop stop-color="#FCFCFD"/>
<stop offset="1" stop-color="#FCFCFD" stop-opacity="0"/>
</radialGradient>
<radialGradient id="paint1_radial_538_8777" cx="0" cy="0" r="1" gradientUnits="userSpaceOnUse" gradientTransform="translate(657.746 79.233) rotate(-180) scale(1073.93 846.337)">
<stop stop-color="#FCFCFD"/>
<stop offset="1" stop-color="#FCFCFD" stop-opacity="0"/>
</radialGradient>
<radialGradient id="paint2_radial_538_8777" cx="0" cy="0" r="1" gradientUnits="userSpaceOnUse" gradientTransform="translate(657.746 79.233) rotate(-180) scale(1073.93 846.337)">
<stop stop-color="#FCFCFD"/>
<stop offset="1" stop-color="#FCFCFD" stop-opacity="0"/>
</radialGradient>
<radialGradient id="paint3_radial_538_8777" cx="0" cy="0" r="1" gradientUnits="userSpaceOnUse" gradientTransform="translate(657.746 79.233) rotate(-180) scale(1073.93 846.337)">
<stop stop-color="#FCFCFD"/>
<stop offset="1" stop-color="#FCFCFD" stop-opacity="0"/>
</radialGradient>
<radialGradient id="paint4_radial_538_8777" cx="0" cy="0" r="1" gradientUnits="userSpaceOnUse" gradientTransform="translate(657.746 79.233) rotate(-180) scale(1073.93 846.337)">
<stop stop-color="#FCFCFD"/>
<stop offset="1" stop-color="#FCFCFD" stop-opacity="0"/>
</radialGradient>
<radialGradient id="paint5_radial_538_8777" cx="0" cy="0" r="1" gradientUnits="userSpaceOnUse" gradientTransform="translate(657.746 79.233) rotate(-180) scale(1073.93 846.337)">
<stop stop-color="#FCFCFD"/>
<stop offset="1" stop-color="#FCFCFD" stop-opacity="0"/>
</radialGradient>
<radialGradient id="paint6_radial_538_8777" cx="0" cy="0" r="1" gradientUnits="userSpaceOnUse" gradientTransform="translate(657.746 79.233) rotate(-180) scale(1073.93 846.337)">
<stop stop-color="#FCFCFD"/>
<stop offset="1" stop-color="#FCFCFD" stop-opacity="0"/>
</radialGradient>
<radialGradient id="paint7_radial_538_8777" cx="0" cy="0" r="1" gradientUnits="userSpaceOnUse" gradientTransform="translate(657.746 79.233) rotate(-180) scale(1073.93 846.337)">
<stop stop-color="#FCFCFD"/>
<stop offset="1" stop-color="#FCFCFD" stop-opacity="0"/>
</radialGradient>
<radialGradient id="paint8_radial_538_8777" cx="0" cy="0" r="1" gradientUnits="userSpaceOnUse" gradientTransform="translate(657.746 79.233) rotate(-180) scale(1073.93 846.337)">
<stop stop-color="#FCFCFD"/>
<stop offset="1" stop-color="#FCFCFD" stop-opacity="0"/>
</radialGradient>
<radialGradient id="paint9_radial_538_8777" cx="0" cy="0" r="1" gradientUnits="userSpaceOnUse" gradientTransform="translate(657.746 79.233) rotate(-180) scale(1073.93 846.337)">
<stop stop-color="#FCFCFD"/>
<stop offset="1" stop-color="#FCFCFD" stop-opacity="0"/>
</radialGradient>
<radialGradient id="paint10_radial_538_8777" cx="0" cy="0" r="1" gradientUnits="userSpaceOnUse" gradientTransform="translate(657.746 79.233) rotate(-180) scale(1073.93 846.337)">
<stop stop-color="#FCFCFD"/>
<stop offset="1" stop-color="#FCFCFD" stop-opacity="0"/>
</radialGradient>
<radialGradient id="paint11_radial_538_8777" cx="0" cy="0" r="1" gradientUnits="userSpaceOnUse" gradientTransform="translate(657.746 79.233) rotate(-180) scale(1073.93 846.337)">
<stop stop-color="#FCFCFD"/>
<stop offset="1" stop-color="#FCFCFD" stop-opacity="0"/>
</radialGradient>
<radialGradient id="paint12_radial_538_8777" cx="0" cy="0" r="1" gradientUnits="userSpaceOnUse" gradientTransform="translate(657.746 79.233) rotate(-180) scale(1073.93 846.337)">
<stop stop-color="#FCFCFD"/>
<stop offset="1" stop-color="#FCFCFD" stop-opacity="0"/>
</radialGradient>
</defs>
</svg>
