<svg width="52" height="53" viewBox="0 0 52 53" fill="none" xmlns="http://www.w3.org/2000/svg">
<rect x="0.5" y="1" width="51" height="51" rx="25.5" fill="#101323"/>
<rect x="0.5" y="1" width="51" height="51" rx="25.5" stroke="url(#paint0_linear_538_8726)"/>
<path d="M23.5475 32.4201C23.1247 33.3444 21.7138 35.5007 17.7491 35.5007C17.5502 35.5007 17.3594 35.4217 17.2187 35.281C17.0781 35.1404 16.9991 34.9496 16.9991 34.7507C16.9991 30.786 19.1553 29.3751 20.0797 28.9523C20.1693 28.9114 20.2661 28.8886 20.3646 28.8851C20.463 28.8816 20.5612 28.8976 20.6535 28.9321C20.7457 28.9665 20.8303 29.0189 20.9024 29.086C20.9744 29.1532 21.0326 29.2339 21.0735 29.3235C21.1143 29.4131 21.1371 29.5099 21.1406 29.6084C21.1441 29.7068 21.1281 29.805 21.0936 29.8973C21.0592 29.9896 21.0069 30.0741 20.9397 30.1462C20.8725 30.2183 20.7918 30.2764 20.7022 30.3173C20.0994 30.5919 18.7691 31.476 18.5347 33.9651C21.0238 33.7307 21.9097 32.4004 22.1825 31.7976C22.2234 31.7079 22.2815 31.6272 22.3536 31.5601C22.4256 31.4929 22.5102 31.4406 22.6025 31.4061C22.6948 31.3717 22.7929 31.3557 22.8914 31.3592C22.9898 31.3626 23.0866 31.3854 23.1763 31.4263C23.2659 31.4672 23.3466 31.5253 23.4138 31.5974C23.4809 31.6694 23.5332 31.754 23.5677 31.8463C23.6022 31.9386 23.6181 32.0368 23.6147 32.1352C23.6112 32.2336 23.5884 32.3304 23.5475 32.4201ZM34.985 18.9201C34.9628 18.5544 34.8075 18.2095 34.5484 17.9504C34.2894 17.6913 33.9445 17.536 33.5788 17.5138C32.3994 17.4435 29.3853 17.5513 26.885 20.0516L22.2491 24.6913C22.1795 24.7611 22.0968 24.8164 22.0058 24.8542C21.9148 24.892 21.8172 24.9115 21.7186 24.9116C21.5196 24.9118 21.3287 24.8329 21.1878 24.6923C21.047 24.5517 20.9677 24.3609 20.9676 24.1618C20.9674 23.9628 21.0463 23.7719 21.1869 23.631L23.6769 21.1401C23.729 21.0876 23.7645 21.021 23.7788 20.9484C23.7932 20.8759 23.7857 20.8007 23.7575 20.7324C23.7292 20.6641 23.6814 20.6056 23.62 20.5644C23.5586 20.5232 23.4865 20.501 23.4125 20.5007H20.9694C20.7718 20.4997 20.576 20.5379 20.3933 20.6132C20.2106 20.6886 20.0448 20.7994 19.9053 20.9394L16.6897 24.1569C16.4925 24.354 16.3541 24.6021 16.2901 24.8735C16.2261 25.1448 16.2389 25.4287 16.3272 25.6931C16.4155 25.9575 16.5758 26.1921 16.79 26.3706C17.0043 26.549 17.264 26.6642 17.54 26.7032L21.1466 27.2066L25.2913 31.3513L25.7947 34.9598C25.8334 35.2358 25.9486 35.4956 26.1272 35.7096C26.3058 35.9236 26.5407 36.0835 26.8053 36.171C26.9595 36.2225 27.1209 36.2488 27.2835 36.2488C27.4802 36.2492 27.6752 36.2106 27.857 36.1353C28.0388 36.06 28.2039 35.9495 28.3428 35.8101L31.5603 32.5944C31.6999 32.4547 31.8105 32.2888 31.8858 32.1062C31.9611 31.9236 31.9996 31.7279 31.9991 31.5304V29.0873C31.9989 29.0131 31.9769 28.9407 31.9356 28.8791C31.8943 28.8175 31.8357 28.7696 31.7672 28.7413C31.6987 28.713 31.6233 28.7056 31.5506 28.7202C31.4779 28.7347 31.4112 28.7704 31.3588 28.8229L28.8678 31.3129C28.795 31.3858 28.7079 31.4429 28.6119 31.4807C28.516 31.5185 28.4134 31.536 28.3103 31.5323C28.2073 31.5287 28.1062 31.5038 28.0132 31.4592C27.9202 31.4147 27.8375 31.3515 27.77 31.2735C27.647 31.1247 27.5845 30.935 27.5949 30.7422C27.6053 30.5494 27.6879 30.3676 27.8263 30.2329L32.4453 25.6138C34.9475 23.1126 35.0553 20.0985 34.985 18.9182V18.9201Z" fill="#FCFCFD"/>
<defs>
<linearGradient id="paint0_linear_538_8726" x1="0" y1="0.5" x2="52" y2="52.5" gradientUnits="userSpaceOnUse">
<stop stop-color="#E8D07A"/>
<stop offset="1" stop-color="#5312D6"/>
</linearGradient>
</defs>
</svg>
