<svg width="145" height="244" viewBox="0 0 145 244" fill="none" xmlns="http://www.w3.org/2000/svg">
<path d="M67.1667 40C67.1667 42.9455 69.5545 45.3333 72.5 45.3333C75.4455 45.3333 77.8333 42.9455 77.8333 40C77.8333 37.0545 75.4455 34.6667 72.5 34.6667C69.5545 34.6667 67.1667 37.0545 67.1667 40ZM71.5 0V40H73.5V0H71.5Z" fill="url(#paint0_linear_538_7876)"/>
<rect x="13" y="64.5" width="119" height="119" rx="31.5" fill="white" fill-opacity="0.06"/>
<rect x="13" y="64.5" width="119" height="119" rx="31.5" stroke="url(#paint1_linear_538_7876)"/>
<rect x="29" y="80.5" width="87" height="87" rx="23.5" fill="white" fill-opacity="0.06"/>
<rect x="29" y="80.5" width="87" height="87" rx="23.5" stroke="url(#paint2_linear_538_7876)"/>
<path d="M84.5005 126.5C84.5037 127.01 84.3488 127.508 84.0572 127.926C83.7657 128.344 83.3517 128.661 82.8724 128.834L74.813 131.812L71.8442 139.878C71.6684 140.356 71.3504 140.768 70.9329 141.059C70.5155 141.35 70.0188 141.506 69.5099 141.506C69.0009 141.506 68.5042 141.35 68.0868 141.059C67.6694 140.768 67.3513 140.356 67.1755 139.878L64.188 131.812L56.1224 128.844C55.6448 128.668 55.2326 128.35 54.9414 127.932C54.6503 127.515 54.4941 127.018 54.4941 126.509C54.4941 126 54.6503 125.504 54.9414 125.086C55.2326 124.669 55.6448 124.351 56.1224 124.175L64.188 121.188L67.1567 113.122C67.3326 112.644 67.6506 112.232 68.0681 111.941C68.4855 111.65 68.9822 111.494 69.4911 111.494C70.0001 111.494 70.4968 111.65 70.9142 111.941C71.3316 112.232 71.6497 112.644 71.8255 113.122L74.813 121.188L82.8786 124.156C83.3583 124.331 83.772 124.65 84.0625 125.07C84.353 125.49 84.5061 125.989 84.5005 126.5ZM75.7505 111.5H78.2505V114C78.2505 114.332 78.3822 114.649 78.6166 114.884C78.851 115.118 79.169 115.25 79.5005 115.25C79.832 115.25 80.15 115.118 80.3844 114.884C80.6188 114.649 80.7505 114.332 80.7505 114V111.5H83.2505C83.582 111.5 83.9 111.368 84.1344 111.134C84.3688 110.899 84.5005 110.582 84.5005 110.25C84.5005 109.918 84.3688 109.601 84.1344 109.366C83.9 109.132 83.582 109 83.2505 109H80.7505V106.5C80.7505 106.168 80.6188 105.851 80.3844 105.616C80.15 105.382 79.832 105.25 79.5005 105.25C79.169 105.25 78.851 105.382 78.6166 105.616C78.3822 105.851 78.2505 106.168 78.2505 106.5V109H75.7505C75.419 109 75.101 109.132 74.8666 109.366C74.6322 109.601 74.5005 109.918 74.5005 110.25C74.5005 110.582 74.6322 110.899 74.8666 111.134C75.101 111.368 75.419 111.5 75.7505 111.5ZM89.5005 116.5H88.2505V115.25C88.2505 114.918 88.1188 114.601 87.8844 114.366C87.65 114.132 87.332 114 87.0005 114C86.669 114 86.351 114.132 86.1166 114.366C85.8822 114.601 85.7505 114.918 85.7505 115.25V116.5H84.5005C84.169 116.5 83.851 116.632 83.6166 116.866C83.3822 117.101 83.2505 117.418 83.2505 117.75C83.2505 118.082 83.3822 118.399 83.6166 118.634C83.851 118.868 84.169 119 84.5005 119H85.7505V120.25C85.7505 120.582 85.8822 120.899 86.1166 121.134C86.351 121.368 86.669 121.5 87.0005 121.5C87.332 121.5 87.65 121.368 87.8844 121.134C88.1188 120.899 88.2505 120.582 88.2505 120.25V119H89.5005C89.832 119 90.15 118.868 90.3844 118.634C90.6188 118.399 90.7505 118.082 90.7505 117.75C90.7505 117.418 90.6188 117.101 90.3844 116.866C90.15 116.632 89.832 116.5 89.5005 116.5Z" fill="url(#paint3_linear_538_7876)"/>
<g clip-path="url(#clip0_538_7876)">
<g filter="url(#filter0_f_538_7876)">
<circle cx="72.5" cy="195.5" r="24.5" fill="white" fill-opacity="0.24"/>
</g>
<path d="M73 208C73 207.448 72.5523 207 72 207C71.4477 207 71 207.448 71 208H73ZM66.6667 237C66.6667 239.946 69.0545 242.333 72 242.333C74.9455 242.333 77.3333 239.946 77.3333 237C77.3333 234.054 74.9455 231.667 72 231.667C69.0545 231.667 66.6667 234.054 66.6667 237ZM71 208V237H73V208H71Z" fill="url(#paint4_linear_538_7876)"/>
<path d="M28 209H116" stroke="url(#paint5_linear_538_7876)" stroke-width="2" stroke-linecap="round"/>
</g>
<defs>
<filter id="filter0_f_538_7876" x="8" y="131" width="129" height="129" filterUnits="userSpaceOnUse" color-interpolation-filters="sRGB">
<feFlood flood-opacity="0" result="BackgroundImageFix"/>
<feBlend mode="normal" in="SourceGraphic" in2="BackgroundImageFix" result="shape"/>
<feGaussianBlur stdDeviation="20" result="effect1_foregroundBlur_538_7876"/>
</filter>
<linearGradient id="paint0_linear_538_7876" x1="72.5" y1="0" x2="74.4988" y2="0.0499688" gradientUnits="userSpaceOnUse">
<stop stop-color="#E8D07A"/>
<stop offset="1" stop-color="#5312D6"/>
</linearGradient>
<linearGradient id="paint1_linear_538_7876" x1="12.5" y1="64" x2="132.5" y2="184" gradientUnits="userSpaceOnUse">
<stop stop-color="#E8D07A"/>
<stop offset="1" stop-color="#5312D6"/>
</linearGradient>
<linearGradient id="paint2_linear_538_7876" x1="28.5" y1="80" x2="116.5" y2="168" gradientUnits="userSpaceOnUse">
<stop stop-color="#E8D07A"/>
<stop offset="1" stop-color="#5312D6"/>
</linearGradient>
<linearGradient id="paint3_linear_538_7876" x1="54.4941" y1="105.25" x2="90.7505" y2="141.506" gradientUnits="userSpaceOnUse">
<stop stop-color="#E8D07A"/>
<stop offset="1" stop-color="#5312D6"/>
</linearGradient>
<linearGradient id="paint4_linear_538_7876" x1="72" y1="208" x2="73.9976" y2="208.069" gradientUnits="userSpaceOnUse">
<stop stop-color="#E8D07A"/>
<stop offset="1" stop-color="#5312D6"/>
</linearGradient>
<linearGradient id="paint5_linear_538_7876" x1="28" y1="209" x2="28.0227" y2="211" gradientUnits="userSpaceOnUse">
<stop stop-color="#E8D07A"/>
<stop offset="1" stop-color="#5312D6"/>
</linearGradient>
<clipPath id="clip0_538_7876">
<rect width="112" height="36" fill="white" transform="translate(16.5 208)"/>
</clipPath>
</defs>
</svg>
