<svg width="24" height="24" viewBox="0 0 24 24" fill="none" xmlns="http://www.w3.org/2000/svg">
<path d="M20.031 15.5306C19.9614 15.6004 19.8787 15.6557 19.7876 15.6934C19.6966 15.7312 19.599 15.7506 19.5004 15.7506C19.4019 15.7506 19.3043 15.7312 19.2132 15.6934C19.1222 15.6557 19.0394 15.6004 18.9698 15.5306L12.0004 8.56032L5.03104 15.5306C4.89031 15.6714 4.69944 15.7504 4.50042 15.7504C4.30139 15.7504 4.11052 15.6714 3.96979 15.5306C3.82906 15.3899 3.75 15.199 3.75 15C3.75 14.801 3.82906 14.6101 3.96979 14.4694L11.4698 6.96938C11.5394 6.89965 11.6222 6.84433 11.7132 6.80659C11.8043 6.76885 11.9019 6.74942 12.0004 6.74942C12.099 6.74942 12.1966 6.76885 12.2876 6.80659C12.3787 6.84433 12.4614 6.89965 12.531 6.96938L20.031 14.4694C20.1008 14.539 20.1561 14.6218 20.1938 14.7128C20.2316 14.8039 20.251 14.9014 20.251 15C20.251 15.0986 20.2316 15.1962 20.1938 15.2872C20.1561 15.3783 20.1008 15.461 20.031 15.5306Z" fill="#EAECF5"/>
</svg>
