<svg width="16" height="17" viewBox="0 0 16 17" fill="none" xmlns="http://www.w3.org/2000/svg">
<path d="M1.7 8.40001C1.75253 8.4394 1.8123 8.46807 1.87591 8.48436C1.93952 8.50066 2.00571 8.50427 2.07071 8.49498C2.13571 8.48569 2.19825 8.4637 2.25475 8.43024C2.31125 8.39679 2.3606 8.35254 2.4 8.30001C2.70273 7.89637 3.09528 7.56876 3.54656 7.34312C3.99784 7.11748 4.49545 7.00001 5 7.00001C5.50455 7.00001 6.00216 7.11748 6.45344 7.34312C6.90472 7.56876 7.29727 7.89637 7.6 8.30001C7.67966 8.406 7.79815 8.47601 7.92942 8.49464C8.06069 8.51328 8.19399 8.47901 8.3 8.39938C8.33779 8.37128 8.37127 8.3378 8.39937 8.30001C8.7021 7.89637 9.09465 7.56876 9.54593 7.34312C9.99721 7.11748 10.4948 7.00001 10.9994 7.00001C11.5039 7.00001 12.0015 7.11748 12.4528 7.34312C12.9041 7.56876 13.2966 7.89637 13.5994 8.30001C13.679 8.40609 13.7976 8.47619 13.9289 8.49489C14.0602 8.51358 14.1936 8.47934 14.2997 8.39969C14.4058 8.32005 14.4759 8.20152 14.4946 8.07018C14.5133 7.93885 14.479 7.80547 14.3994 7.69938C13.9568 7.10605 13.3666 6.6389 12.6875 6.34438C13.0598 6.00447 13.3206 5.55994 13.4358 5.06913C13.5509 4.57832 13.515 4.06417 13.3327 3.59414C13.1504 3.12412 12.8303 2.72019 12.4143 2.43536C11.9984 2.15054 11.506 1.99812 11.0019 1.99812C10.4977 1.99812 10.0054 2.15054 9.58942 2.43536C9.17346 2.72019 8.85332 3.12412 8.67103 3.59414C8.48874 4.06417 8.45281 4.57832 8.56796 5.06913C8.6831 5.55994 8.94394 6.00447 9.31625 6.34438C8.8259 6.55641 8.38046 6.85995 8.00375 7.23876C7.62704 6.85995 7.1816 6.55641 6.69125 6.34438C7.06355 6.00447 7.3244 5.55994 7.43954 5.06913C7.55469 4.57832 7.51876 4.06417 7.33647 3.59414C7.15418 3.12412 6.83404 2.72019 6.41808 2.43536C6.00212 2.15054 5.50976 1.99812 5.00562 1.99812C4.50149 1.99812 4.00913 2.15054 3.59317 2.43536C3.17721 2.72019 2.85707 3.12412 2.67478 3.59414C2.49249 4.06417 2.45656 4.57832 2.57171 5.06913C2.68685 5.55994 2.9477 6.00447 3.32 6.34438C2.63791 6.63794 2.04481 7.10539 1.6 7.70001C1.5606 7.75253 1.53194 7.81231 1.51564 7.87592C1.49935 7.93952 1.49574 8.00572 1.50503 8.07072C1.51431 8.13572 1.53631 8.19825 1.56976 8.25475C1.60322 8.31125 1.64747 8.36061 1.7 8.40001ZM11 3.00001C11.2967 3.00001 11.5867 3.08798 11.8334 3.2528C12.08 3.41762 12.2723 3.65189 12.3858 3.92598C12.4994 4.20007 12.5291 4.50167 12.4712 4.79264C12.4133 5.08361 12.2704 5.35089 12.0607 5.56067C11.8509 5.77045 11.5836 5.91331 11.2926 5.97118C11.0017 6.02906 10.7001 5.99936 10.426 5.88583C10.1519 5.77229 9.91762 5.58004 9.7528 5.33336C9.58797 5.08669 9.5 4.79668 9.5 4.50001C9.5 4.10218 9.65804 3.72065 9.93934 3.43935C10.2206 3.15804 10.6022 3.00001 11 3.00001ZM5 3.00001C5.29667 3.00001 5.58668 3.08798 5.83336 3.2528C6.08003 3.41762 6.27229 3.65189 6.38582 3.92598C6.49935 4.20007 6.52906 4.50167 6.47118 4.79264C6.4133 5.08361 6.27044 5.35089 6.06066 5.56067C5.85088 5.77045 5.58361 5.91331 5.29264 5.97118C5.00166 6.02906 4.70006 5.99936 4.42597 5.88583C4.15189 5.77229 3.91762 5.58004 3.7528 5.33336C3.58797 5.08669 3.5 4.79668 3.5 4.50001C3.5 4.10218 3.65804 3.72065 3.93934 3.43935C4.22064 3.15804 4.60218 3.00001 5 3.00001ZM12.6875 12.8444C13.0598 12.5045 13.3206 12.0599 13.4358 11.5691C13.5509 11.0783 13.515 10.5642 13.3327 10.0941C13.1504 9.62412 12.8303 9.22019 12.4143 8.93536C11.9984 8.65054 11.506 8.49812 11.0019 8.49812C10.4977 8.49812 10.0054 8.65054 9.58942 8.93536C9.17346 9.22019 8.85332 9.62412 8.67103 10.0941C8.48874 10.5642 8.45281 11.0783 8.56796 11.5691C8.6831 12.0599 8.94394 12.5045 9.31625 12.8444C8.8259 13.0564 8.38046 13.36 8.00375 13.7388C7.62704 13.36 7.1816 13.0564 6.69125 12.8444C7.06355 12.5045 7.3244 12.0599 7.43954 11.5691C7.55469 11.0783 7.51876 10.5642 7.33647 10.0941C7.15418 9.62412 6.83404 9.22019 6.41808 8.93536C6.00212 8.65054 5.50976 8.49812 5.00562 8.49812C4.50149 8.49812 4.00913 8.65054 3.59317 8.93536C3.17721 9.22019 2.85707 9.62412 2.67478 10.0941C2.49249 10.5642 2.45656 11.0783 2.57171 11.5691C2.68685 12.0599 2.9477 12.5045 3.32 12.8444C2.63791 13.1379 2.04481 13.6054 1.6 14.2C1.5606 14.2525 1.53194 14.3123 1.51564 14.3759C1.49935 14.4395 1.49574 14.5057 1.50503 14.5707C1.51431 14.6357 1.53631 14.6983 1.56976 14.7548C1.60322 14.8113 1.64747 14.8606 1.7 14.9C1.75253 14.9394 1.8123 14.9681 1.87591 14.9844C1.93952 15.0007 2.00571 15.0043 2.07071 14.995C2.13571 14.9857 2.19825 14.9637 2.25475 14.9302C2.31125 14.8968 2.3606 14.8525 2.4 14.8C2.70273 14.3964 3.09528 14.0688 3.54656 13.8431C3.99784 13.6175 4.49545 13.5 5 13.5C5.50455 13.5 6.00216 13.6175 6.45344 13.8431C6.90472 14.0688 7.29727 14.3964 7.6 14.8C7.67966 14.906 7.79815 14.976 7.92942 14.9946C8.06069 15.0133 8.19399 14.979 8.3 14.8994C8.33779 14.8713 8.37127 14.8378 8.39937 14.8C8.7021 14.3964 9.09465 14.0688 9.54593 13.8431C9.99721 13.6175 10.4948 13.5 10.9994 13.5C11.5039 13.5 12.0015 13.6175 12.4528 13.8431C12.9041 14.0688 13.2966 14.3964 13.5994 14.8C13.679 14.9061 13.7976 14.9762 13.9289 14.9949C14.0602 15.0136 14.1936 14.9793 14.2997 14.8997C14.4058 14.82 14.4759 14.7015 14.4946 14.5702C14.5133 14.4388 14.479 14.3055 14.3994 14.1994C13.9568 13.606 13.3666 13.1389 12.6875 12.8444ZM5 9.50001C5.29667 9.50001 5.58668 9.58798 5.83336 9.7528C6.08003 9.91762 6.27229 10.1519 6.38582 10.426C6.49935 10.7001 6.52906 11.0017 6.47118 11.2926C6.4133 11.5836 6.27044 11.8509 6.06066 12.0607C5.85088 12.2704 5.58361 12.4133 5.29264 12.4712C5.00166 12.5291 4.70006 12.4994 4.42597 12.3858C4.15189 12.2723 3.91762 12.08 3.7528 11.8334C3.58797 11.5867 3.5 11.2967 3.5 11C3.5 10.6022 3.65804 10.2207 3.93934 9.93935C4.22064 9.65804 4.60218 9.50001 5 9.50001ZM11 9.50001C11.2967 9.50001 11.5867 9.58798 11.8334 9.7528C12.08 9.91762 12.2723 10.1519 12.3858 10.426C12.4994 10.7001 12.5291 11.0017 12.4712 11.2926C12.4133 11.5836 12.2704 11.8509 12.0607 12.0607C11.8509 12.2704 11.5836 12.4133 11.2926 12.4712C11.0017 12.5291 10.7001 12.4994 10.426 12.3858C10.1519 12.2723 9.91762 12.08 9.7528 11.8334C9.58797 11.5867 9.5 11.2967 9.5 11C9.5 10.6022 9.65804 10.2207 9.93934 9.93935C10.2206 9.65804 10.6022 9.50001 11 9.50001Z" fill="#FCFCFD"/>
</svg>
