<svg width="18" height="18" viewBox="0 0 18 18" fill="none" xmlns="http://www.w3.org/2000/svg">
<path d="M17.625 7.12501V7.75001C17.6237 8.80751 17.2398 9.82883 16.5442 10.6254C15.8486 11.4219 14.8883 11.9399 13.8406 12.0836C14.2683 12.6308 14.5004 13.3055 14.5 14V17.125C14.5 17.2908 14.4342 17.4497 14.3169 17.567C14.1997 17.6842 14.0408 17.75 13.875 17.75H8.875C8.70924 17.75 8.55027 17.6842 8.43306 17.567C8.31585 17.4497 8.25 17.2908 8.25 17.125V15.875H6.375C5.5462 15.875 4.75134 15.5458 4.16529 14.9597C3.57924 14.3737 3.25 13.5788 3.25 12.75C3.25 12.2527 3.05246 11.7758 2.70083 11.4242C2.34919 11.0726 1.87228 10.875 1.375 10.875C1.20924 10.875 1.05027 10.8092 0.933058 10.692C0.815848 10.5747 0.75 10.4158 0.75 10.25C0.75 10.0842 0.815848 9.92528 0.933058 9.80807C1.05027 9.69086 1.20924 9.62501 1.375 9.62501C1.78538 9.62501 2.19174 9.70584 2.57089 9.86289C2.95003 10.0199 3.29453 10.2501 3.58471 10.5403C3.87489 10.8305 4.10508 11.175 4.26212 11.5541C4.41917 11.9333 4.5 12.3396 4.5 12.75C4.5 13.2473 4.69754 13.7242 5.04917 14.0758C5.40081 14.4275 5.87772 14.625 6.375 14.625H8.25V14C8.2496 13.3055 8.48173 12.6308 8.90938 12.0836C7.86169 11.9399 6.90139 11.4219 6.2058 10.6254C5.51021 9.82883 5.12632 8.80751 5.125 7.75001V7.12501C5.13278 6.34827 5.33963 5.58651 5.72578 4.91251C5.53474 4.29626 5.47346 3.64711 5.5458 3.00599C5.61814 2.36487 5.82254 1.7457 6.14609 1.18751C6.20096 1.09248 6.27988 1.01357 6.37492 0.958709C6.46996 0.903853 6.57777 0.874986 6.6875 0.87501C7.41548 0.873486 8.13372 1.04225 8.78485 1.36781C9.43598 1.69337 10.0019 2.16671 10.4375 2.75001H12.3125C12.7481 2.16671 13.314 1.69337 13.9651 1.36781C14.6163 1.04225 15.3345 0.873486 16.0625 0.87501C16.1722 0.874986 16.28 0.903853 16.3751 0.958709C16.4701 1.01357 16.549 1.09248 16.6039 1.18751C16.9275 1.74569 17.1319 2.3649 17.2041 3.00604C17.2763 3.64719 17.2148 4.29634 17.0234 4.91251C17.4103 5.58624 17.6175 6.34813 17.625 7.12501Z" fill="#101323"/>
</svg>
