<svg width="24" height="24" viewBox="0 0 24 24" fill="none" xmlns="http://www.w3.org/2000/svg">
<path d="M21.75 9.75001V10.5C21.7484 11.769 21.2877 12.9946 20.453 13.9504C19.6183 14.9063 18.466 15.5278 17.2087 15.7003C17.7219 16.357 18.0005 17.1666 18 18V21.75C18 21.9489 17.921 22.1397 17.7803 22.2803C17.6397 22.421 17.4489 22.5 17.25 22.5H11.25C11.0511 22.5 10.8603 22.421 10.7197 22.2803C10.579 22.1397 10.5 21.9489 10.5 21.75V20.25H8.25C7.25544 20.25 6.30161 19.8549 5.59835 19.1517C4.89509 18.4484 4.5 17.4946 4.5 16.5C4.5 15.9033 4.26295 15.331 3.84099 14.909C3.41903 14.4871 2.84674 14.25 2.25 14.25C2.05109 14.25 1.86032 14.171 1.71967 14.0303C1.57902 13.8897 1.5 13.6989 1.5 13.5C1.5 13.3011 1.57902 13.1103 1.71967 12.9697C1.86032 12.829 2.05109 12.75 2.25 12.75C2.74246 12.75 3.23009 12.847 3.68506 13.0355C4.14003 13.2239 4.55343 13.5001 4.90165 13.8484C5.24987 14.1966 5.52609 14.61 5.71455 15.0649C5.903 15.5199 6 16.0076 6 16.5C6 17.0968 6.23705 17.669 6.65901 18.091C7.08097 18.513 7.65326 18.75 8.25 18.75H10.5V18C10.4995 17.1666 10.7781 16.357 11.2913 15.7003C10.034 15.5278 8.88166 14.9063 8.04696 13.9504C7.21225 12.9946 6.75158 11.769 6.75 10.5V9.75001C6.75934 8.81793 7.00756 7.90381 7.47094 7.09501C7.24169 6.35551 7.16816 5.57653 7.25497 4.80719C7.34177 4.03785 7.58704 3.29484 7.97531 2.62501C8.04115 2.51097 8.13586 2.41628 8.2499 2.35045C8.36395 2.28462 8.49332 2.24998 8.625 2.25001C9.49857 2.24818 10.3605 2.4507 11.1418 2.84137C11.9232 3.23205 12.6023 3.80006 13.125 4.50001H15.375C15.8977 3.80006 16.5768 3.23205 17.3582 2.84137C18.1395 2.4507 19.0014 2.24818 19.875 2.25001C20.0067 2.24998 20.136 2.28462 20.2501 2.35045C20.3641 2.41628 20.4588 2.51097 20.5247 2.62501C20.913 3.29482 21.1582 4.03787 21.2449 4.80725C21.3315 5.57662 21.2577 6.35561 21.0281 7.09501C21.4924 7.90349 21.741 8.81776 21.75 9.75001Z" fill="white"/>
</svg>
