<svg width="16" height="16" viewBox="0 0 16 16" fill="none" xmlns="http://www.w3.org/2000/svg">
<path d="M14.5 6.50001V7.00001C14.4989 7.84601 14.1918 8.66306 13.6354 9.30029C13.0789 9.93752 12.3107 10.3519 11.4725 10.4669C11.8146 10.9047 12.0003 11.4444 12 12V14.5C12 14.6326 11.9473 14.7598 11.8536 14.8536C11.7598 14.9473 11.6326 15 11.5 15H7.5C7.36739 15 7.24021 14.9473 7.14645 14.8536C7.05268 14.7598 7 14.6326 7 14.5V13.5H5.5C4.83696 13.5 4.20107 13.2366 3.73223 12.7678C3.26339 12.2989 3 11.663 3 11C3 10.6022 2.84196 10.2207 2.56066 9.93935C2.27936 9.65804 1.89782 9.50001 1.5 9.50001C1.36739 9.50001 1.24021 9.44733 1.14645 9.35356C1.05268 9.25979 1 9.13262 1 9.00001C1 8.8674 1.05268 8.74022 1.14645 8.64645C1.24021 8.55269 1.36739 8.50001 1.5 8.50001C1.8283 8.50001 2.15339 8.56467 2.45671 8.69031C2.76002 8.81595 3.03562 9.00009 3.26777 9.23224C3.49991 9.46439 3.68406 9.73999 3.8097 10.0433C3.93534 10.3466 4 10.6717 4 11C4 11.3978 4.15804 11.7794 4.43934 12.0607C4.72064 12.342 5.10218 12.5 5.5 12.5H7V12C6.99968 11.4444 7.18538 10.9047 7.5275 10.4669C6.68935 10.3519 5.92111 9.93752 5.36464 9.30029C4.80817 8.66306 4.50105 7.84601 4.5 7.00001V6.50001C4.50623 5.87862 4.6717 5.26921 4.98062 4.73001C4.8278 4.23701 4.77877 3.71768 4.83664 3.20479C4.89452 2.6919 5.05803 2.19656 5.31687 1.75001C5.36077 1.67398 5.4239 1.61085 5.49994 1.56697C5.57597 1.52308 5.66221 1.49999 5.75 1.50001C6.33238 1.49879 6.90698 1.6338 7.42788 1.89425C7.94878 2.1547 8.40155 2.53337 8.75 3.00001H10.25C10.5985 2.53337 11.0512 2.1547 11.5721 1.89425C12.093 1.6338 12.6676 1.49879 13.25 1.50001C13.3378 1.49999 13.424 1.52308 13.5001 1.56697C13.5761 1.61085 13.6392 1.67398 13.6831 1.75001C13.942 2.19655 14.1055 2.69192 14.1633 3.20483C14.221 3.71775 14.1718 4.23707 14.0188 4.73001C14.3283 5.269 14.494 5.87851 14.5 6.50001Z" fill="#101323"/>
</svg>
