<svg width="80" height="80" viewBox="0 0 80 80" fill="none" xmlns="http://www.w3.org/2000/svg">
<rect width="80" height="80" rx="16" fill="#101323"/>
<path d="M56.5 35.5V37C56.4968 39.538 55.5755 41.9892 53.9061 43.9008C52.2367 45.8125 49.932 47.0556 47.4175 47.4006C48.4439 48.714 49.001 50.3332 49 52V59.5C49 59.8978 48.842 60.2794 48.5607 60.5607C48.2794 60.842 47.8978 61 47.5 61H35.5C35.1022 61 34.7206 60.842 34.4393 60.5607C34.158 60.2794 34 59.8978 34 59.5V56.5H29.5C27.5109 56.5 25.6032 55.7098 24.1967 54.3033C22.7902 52.8968 22 50.9891 22 49C22 47.8065 21.5259 46.6619 20.682 45.818C19.8381 44.9741 18.6935 44.5 17.5 44.5C17.1022 44.5 16.7206 44.342 16.4393 44.0607C16.158 43.7794 16 43.3978 16 43C16 42.6022 16.158 42.2206 16.4393 41.9393C16.7206 41.658 17.1022 41.5 17.5 41.5C18.4849 41.5 19.4602 41.694 20.3701 42.0709C21.2801 42.4478 22.1069 43.0003 22.8033 43.6967C23.4997 44.3931 24.0522 45.2199 24.4291 46.1299C24.806 47.0398 25 48.0151 25 49C25 50.1935 25.4741 51.3381 26.318 52.182C27.1619 53.0259 28.3065 53.5 29.5 53.5H34V52C33.999 50.3332 34.5561 48.714 35.5825 47.4006C33.068 47.0556 30.7633 45.8125 29.0939 43.9008C27.4245 41.9892 26.5032 39.538 26.5 37V35.5C26.5187 33.6358 27.0151 31.8076 27.9419 30.19C27.4834 28.711 27.3363 27.153 27.5099 25.6143C27.6835 24.0757 28.1741 22.5896 28.9506 21.25C29.0823 21.0219 29.2717 20.8325 29.4998 20.7009C29.7279 20.5692 29.9866 20.4999 30.25 20.5C31.9971 20.4963 33.7209 20.9014 35.2836 21.6827C36.8463 22.4641 38.2046 23.6001 39.25 25H43.75C44.7954 23.6001 46.1537 22.4641 47.7164 21.6827C49.2791 20.9014 51.0028 20.4963 52.75 20.5C53.0134 20.4999 53.2721 20.5692 53.5002 20.7009C53.7283 20.8325 53.9177 21.0219 54.0494 21.25C54.826 22.5896 55.3165 24.0757 55.4898 25.6145C55.6631 27.1532 55.5155 28.7112 55.0563 30.19C55.9848 31.807 56.4819 33.6355 56.5 35.5Z" fill="#FCFCFD"/>
</svg>
