<svg width="13" height="13" viewBox="0 0 13 13" fill="none" xmlns="http://www.w3.org/2000/svg">
<path fill-rule="evenodd" clip-rule="evenodd" d="M10.58 6.59661C10.58 6.29525 10.553 6.00548 10.5027 5.72729H6.5V7.37127H8.78728C8.68875 7.90253 8.38932 8.35264 7.93921 8.654V9.72037H9.31273C10.1164 8.98048 10.58 7.89093 10.58 6.59661Z" fill="#4285F4"/>
<path fill-rule="evenodd" clip-rule="evenodd" d="M6.50011 10.75C7.64761 10.75 8.60966 10.3694 9.31284 9.72034L7.93932 8.65397C7.55875 8.90897 7.07193 9.05966 6.50011 9.05966C5.39318 9.05966 4.45624 8.31204 4.12204 7.3075H2.70215V8.40863C3.40147 9.79761 4.83874 10.75 6.50011 10.75Z" fill="#34A853"/>
<path fill-rule="evenodd" clip-rule="evenodd" d="M4.12193 7.30745C4.03693 7.05245 3.98864 6.78006 3.98864 6.49995C3.98864 6.21983 4.03693 5.94745 4.12193 5.69245V4.59131H2.70205C2.4142 5.16506 2.25 5.81415 2.25 6.49995C2.25 7.18574 2.4142 7.83484 2.70205 8.40859L4.12193 7.30745Z" fill="#FBBC05"/>
<path fill-rule="evenodd" clip-rule="evenodd" d="M6.50011 3.94034C7.12409 3.94034 7.68431 4.15478 8.12477 4.57591L9.34375 3.35693C8.60773 2.67114 7.64568 2.25 6.50011 2.25C4.83874 2.25 3.40147 3.20239 2.70215 4.59137L4.12204 5.69251C4.45624 4.68796 5.39318 3.94034 6.50011 3.94034Z" fill="#EA4335"/>
</svg>
