<svg width="16" height="16" viewBox="0 0 16 16" fill="none" xmlns="http://www.w3.org/2000/svg">
<path fill-rule="evenodd" clip-rule="evenodd" d="M14.8 8.16127C14.8 7.65899 14.7549 7.17604 14.6712 6.7124H8V9.45237H11.8121C11.6479 10.3378 11.1489 11.088 10.3987 11.5903V13.3675H12.6879C14.0273 12.1344 14.8 10.3185 14.8 8.16127Z" fill="#4285F4"/>
<path fill-rule="evenodd" clip-rule="evenodd" d="M7.9979 15.0835C9.91041 15.0835 11.5138 14.4492 12.6858 13.3674L10.3966 11.5901C9.7623 12.0151 8.95093 12.2662 7.9979 12.2662C6.15301 12.2662 4.59146 11.0202 4.03445 9.34595H1.66797V11.1812C2.8335 13.4961 5.22896 15.0835 7.9979 15.0835Z" fill="#34A853"/>
<path fill-rule="evenodd" clip-rule="evenodd" d="M4.03591 9.34599C3.89424 8.92099 3.81375 8.46701 3.81375 8.00016C3.81375 7.5333 3.89424 7.07932 4.03591 6.65432V4.81909H1.66943C1.18969 5.77534 0.916016 6.85716 0.916016 8.00016C0.916016 9.14315 1.18969 10.225 1.66943 11.1812L4.03591 9.34599Z" fill="#FBBC05"/>
<path fill-rule="evenodd" clip-rule="evenodd" d="M7.9979 3.73399C9.03787 3.73399 9.97158 4.09137 10.7057 4.79327L12.7373 2.76164C11.5106 1.61864 9.90719 0.916748 7.9979 0.916748C5.22896 0.916748 2.8335 2.50406 1.66797 4.81903L4.03445 6.65426C4.59146 4.98001 6.15301 3.73399 7.9979 3.73399Z" fill="#EA4335"/>
</svg>
