<svg width="16" height="17" viewBox="0 0 16 17" fill="none" xmlns="http://www.w3.org/2000/svg">
<path d="M13.893 8.19124L8.39296 1.19124C8.34618 1.13171 8.28648 1.08358 8.21838 1.05049C8.15028 1.01739 8.07556 1.0002 7.99984 1.0002C7.92412 1.0002 7.8494 1.01739 7.7813 1.05049C7.7132 1.08358 7.6535 1.13171 7.60671 1.19124L2.10671 8.19124C2.03758 8.27931 2 8.38803 2 8.49999C2 8.61196 2.03758 8.72068 2.10671 8.80874L7.60671 15.8087C7.6535 15.8683 7.7132 15.9164 7.7813 15.9495C7.8494 15.9826 7.92412 15.9998 7.99984 15.9998C8.07556 15.9998 8.15028 15.9826 8.21838 15.9495C8.28648 15.9164 8.34618 15.8683 8.39296 15.8087L13.893 8.80874C13.9621 8.72068 13.9997 8.61196 13.9997 8.49999C13.9997 8.38803 13.9621 8.27931 13.893 8.19124ZM8.49984 2.94562L12.7136 8.30812L8.49984 10.2237V2.94562ZM7.49984 10.2237L3.28609 8.30812L7.49984 2.94562V10.2237ZM7.49984 11.3219V14.0544L4.16046 9.80437L7.49984 11.3219ZM8.49984 11.3219L11.8392 9.80374L8.49984 14.0537V11.3219Z" fill="#FCFCFD"/>
</svg>
