<svg width="80" height="81" viewBox="0 0 80 81" fill="none" xmlns="http://www.w3.org/2000/svg">
<rect y="0.5" width="80" height="80" rx="16" fill="url(#paint0_linear_2487_20839)"/>
<g clip-path="url(#clip0_2487_20839)">
<path d="M18.5615 30.4007V38.7977H30.9885V41.2989H18.5615V50.4106H31.75V52.9118H16V27.8994H32.8577V30.4007H18.5615Z" fill="#FCFCFD"/>
<path d="M46.1159 30.4007H38.7428V34.6885H43.6236V36.9396H38.7428V50.6607H43.9698V52.9118H36.2852V36.9396H33.3428V34.6885H36.2852V30.4007H31.889V27.8994H46.1159V30.4007Z" fill="#FCFCFD"/>
<path d="M55.7671 34.224C60.1287 34.224 62.4133 36.6538 62.4133 40.9773V52.9118H59.9556V41.2989C59.9556 37.5113 58.1902 36.4751 55.4556 36.4751C52.4787 36.4751 50.4364 38.762 50.4364 41.692V52.9118H47.9787V30.4007H45.4864V27.8994H50.4364V37.4041C51.2671 35.4746 52.8594 34.224 55.7671 34.224Z" fill="#FCFCFD"/>
<path d="M99.0939 27.8994V30.4007H93.5555C95.9439 32.5088 97.2939 35.9391 97.2939 40.4056C97.2939 48.3024 93.1055 53.0905 86.2516 53.0905C79.3632 53.0905 75.1747 48.3024 75.1747 40.4056C75.1747 32.5088 79.3632 27.8994 86.2516 27.8994H99.0939ZM94.5939 40.4414C94.5939 34.0811 91.4439 30.4007 86.2516 30.4007C81.0593 30.4007 77.8747 34.0811 77.8747 40.4414C77.8747 46.7302 81.0593 50.5893 86.2516 50.5893C91.4439 50.5893 94.5939 46.7302 94.5939 40.4414Z" fill="#FCFCFD"/>
<path d="M98.483 27.8994H120.187V30.4007H98.483V27.8994ZM110.079 34.0453C114.648 34.0453 118.041 37.5828 118.041 43.55C118.041 49.553 114.648 53.0905 110.079 53.0905C106.791 53.0905 104.818 51.8041 103.779 49.4458V60.094H101.321V34.6885H103.779V37.69C104.818 35.3317 106.791 34.0453 110.079 34.0453ZM109.768 50.8394C113.195 50.8394 115.479 47.9094 115.479 43.5858C115.479 39.1907 113.195 36.2964 109.768 36.2964C106.168 36.2964 103.779 39.1907 103.779 43.5858C103.779 47.9094 106.168 50.8394 109.768 50.8394Z" fill="#FCFCFD"/>
<path d="M117.474 27.8994H140.32V30.4007H117.474V27.8994ZM129.59 34.224C134.366 34.224 137.17 37.5113 137.17 42.4781V44.1932H123.947C124.155 48.1952 126.128 50.8751 129.59 50.8394C132.601 50.8036 134.124 49.3386 134.54 46.6945L136.997 47.0518C136.409 50.8036 133.847 53.0548 129.59 53.0905C124.536 53.1262 121.351 49.7317 121.351 43.6572C121.351 37.9044 124.19 34.224 129.59 34.224ZM129.59 36.4751C126.509 36.4394 124.432 38.1545 123.982 41.9421H134.747C134.609 38.1188 132.566 36.5108 129.59 36.4751Z" fill="#FCFCFD"/>
<path d="M138.684 27.8994H155.473V30.4007H138.684V27.8994ZM155.403 52.9476H152.946V41.2632C152.946 37.9044 150.973 36.4394 148.238 36.4394C145.503 36.4394 143.53 37.9044 143.53 41.2632V52.9476H141.073V40.9416C140.969 36.5823 143.807 34.1883 148.238 34.1883C152.669 34.1883 155.473 36.5823 155.403 40.9416V52.9476Z" fill="#FCFCFD"/>
<path d="M187.968 27.8994V30.4007H183.745H182.07C179.185 30.4007 180.733 30.4007 176.96 30.4007C173.568 30.4007 171.56 31.687 171.56 34.0811C171.56 36.4394 172.668 37.5828 177.099 38.7977C184.022 40.6915 185.96 42.4424 185.96 46.4443C185.96 50.5893 182.637 53.0905 177.168 53.0905C171.733 53.0905 168.203 50.089 167.822 45.158L170.487 44.6935C170.73 48.1952 173.326 50.5893 177.376 50.5893C181.045 50.5893 183.26 49.0528 183.26 46.5158C183.26 43.8359 181.807 43.0855 177.099 41.7992C170.522 40.0126 168.86 38.1902 168.86 34.3669C168.86 30.222 171.941 27.8994 177.133 27.8994H187.968Z" fill="#FCFCFD"/>
<path d="M186.315 27.8994H209.162V30.4007H186.315V27.8994ZM197.912 34.224C202.965 34.2597 206.323 37.6543 206.323 43.693C206.323 49.3029 203.312 53.0548 197.912 53.0905C192.858 53.0548 189.5 49.6602 189.5 43.693C189.5 38.0473 192.512 34.2597 197.912 34.224ZM197.912 50.8394C201.442 50.8036 203.796 48.2309 203.796 43.693C203.796 39.3337 201.685 36.4394 197.912 36.4751C194.381 36.5108 192.027 39.1193 192.062 43.693C192.096 48.0165 194.208 50.8751 197.912 50.8394Z" fill="#FCFCFD"/>
<path d="M207.501 27.8994H226.817V30.4007H207.501V27.8994ZM224.151 34.6885V46.3371C224.151 50.6964 221.59 53.0905 217.159 53.0905C212.728 53.0905 210.132 50.6964 210.167 46.3371V34.6885H212.693V46.0156C212.693 49.3744 214.424 50.8394 217.159 50.8394C219.893 50.8394 221.624 49.3744 221.624 46.0156V34.6885H224.151Z" fill="#FCFCFD"/>
<path d="M225.857 27.8994H240.568V30.4007H225.857V27.8994ZM239.149 34.6885V36.9396H231.153V52.9118H228.695V34.6885H239.149Z" fill="#FCFCFD"/>
<path d="M236.532 27.8994H259.378V30.4007H236.532V27.8994ZM248.578 36.4751C245.013 36.5108 242.936 38.9763 242.971 43.5858C243.005 48.3024 245.082 50.8394 248.578 50.8394C251.417 50.8036 253.009 49.0528 253.424 46.4086L255.882 46.7659C255.294 50.5178 252.836 53.0548 248.578 53.0905C243.455 53.1262 240.409 49.5888 240.409 43.6572C240.409 37.7615 243.455 34.1883 248.578 34.224C252.836 34.2597 255.294 36.9754 255.882 41.5491L253.424 41.9064C252.905 38.5833 251.59 36.5108 248.578 36.4751Z" fill="#FCFCFD"/>
<path d="M257.032 27.8994H274.652V30.4007H257.032V27.8994ZM267.071 34.224C271.848 34.224 274.652 37.5113 274.652 42.4781V44.1932H261.428C261.636 48.1952 263.609 50.8751 267.071 50.8394C270.082 50.8036 271.605 49.3386 272.021 46.6945L274.478 47.0518C273.89 50.8036 271.328 53.0548 267.071 53.0905C262.017 53.1262 258.832 49.7317 258.832 43.6572C258.832 37.9044 261.671 34.224 267.071 34.224ZM267.071 36.4751C263.99 36.4394 261.913 38.1545 261.463 41.9421H272.228C272.09 38.1188 270.048 36.5108 267.071 36.4751Z" fill="#FCFCFD"/>
</g>
<defs>
<linearGradient id="paint0_linear_2487_20839" x1="0" y1="0.5" x2="80" y2="80.5" gradientUnits="userSpaceOnUse">
<stop stop-color="#F1CA74"/>
<stop offset="1" stop-color="#A64DB6"/>
</linearGradient>
<clipPath id="clip0_2487_20839">
<rect width="48" height="48" fill="white" transform="translate(16 16.5)"/>
</clipPath>
</defs>
</svg>
