<svg width="64" height="64" viewBox="0 0 64 64" fill="none" xmlns="http://www.w3.org/2000/svg">
<rect x="1" y="1" width="62" height="62" rx="11" stroke="url(#paint0_linear_538_4312)" stroke-width="2"/>
<path d="M43 22H21C20.7348 22 20.4804 22.1054 20.2929 22.2929C20.1054 22.4804 20 22.7348 20 23V42C20 42.5304 20.2107 43.0391 20.5858 43.4142C20.9609 43.7893 21.4696 44 22 44H27C27.5304 44 28.0391 43.7893 28.4142 43.4142C28.7893 43.0391 29 42.5304 29 42V36H35V38C35 38.5304 35.2107 39.0391 35.5858 39.4142C35.9609 39.7893 36.4696 40 37 40H42C42.5304 40 43.0391 39.7893 43.4142 39.4142C43.7893 39.0391 44 38.5304 44 38V23C44 22.7348 43.8946 22.4804 43.7071 22.2929C43.5196 22.1054 43.2652 22 43 22ZM27 42H22V32H27V42ZM27 30H22V24H27V30ZM35 34H29V24H35V34ZM42 38H37V32H42V38ZM42 30H37V24H42V30Z" fill="#101323"/>
<defs>
<linearGradient id="paint0_linear_538_4312" x1="0" y1="0" x2="64" y2="64" gradientUnits="userSpaceOnUse">
<stop stop-color="#E8D07A"/>
<stop offset="1" stop-color="#5312D6"/>
</linearGradient>
</defs>
</svg>
