<svg width="21" height="20" viewBox="0 0 21 20" fill="none" xmlns="http://www.w3.org/2000/svg">
<path d="M14.7806 7.21937C14.8504 7.28903 14.9057 7.37175 14.9434 7.46279C14.9812 7.55384 15.0006 7.65144 15.0006 7.75C15.0006 7.84856 14.9812 7.94616 14.9434 8.03721C14.9057 8.12825 14.8504 8.21097 14.7806 8.28063L9.53063 13.5306C9.46097 13.6004 9.37826 13.6557 9.28721 13.6934C9.19616 13.7312 9.09857 13.7506 9 13.7506C8.90144 13.7506 8.80385 13.7312 8.7128 13.6934C8.62175 13.6557 8.53903 13.6004 8.46938 13.5306L6.21938 11.2806C6.07865 11.1399 5.99959 10.949 5.99959 10.75C5.99959 10.551 6.07865 10.3601 6.21938 10.2194C6.36011 10.0786 6.55098 9.99958 6.75 9.99958C6.94903 9.99958 7.1399 10.0786 7.28063 10.2194L9 11.9397L13.7194 7.21937C13.789 7.14964 13.8718 7.09432 13.9628 7.05658C14.0538 7.01884 14.1514 6.99941 14.25 6.99941C14.3486 6.99941 14.4462 7.01884 14.5372 7.05658C14.6283 7.09432 14.711 7.14964 14.7806 7.21937ZM20.25 10C20.25 11.9284 19.6782 13.8134 18.6068 15.4168C17.5355 17.0202 16.0127 18.2699 14.2312 19.0078C12.4496 19.7458 10.4892 19.9389 8.59787 19.5627C6.70656 19.1865 4.96928 18.2579 3.60571 16.8943C2.24215 15.5307 1.31355 13.7934 0.937348 11.9021C0.561142 10.0108 0.754225 8.05042 1.49218 6.26884C2.23013 4.48726 3.47982 2.96451 5.08319 1.89317C6.68657 0.821828 8.57164 0.25 10.5 0.25C13.085 0.25273 15.5634 1.28084 17.3913 3.10872C19.2192 4.93661 20.2473 7.41498 20.25 10ZM18.75 10C18.75 8.3683 18.2661 6.77325 17.3596 5.41655C16.4531 4.05984 15.1646 3.00242 13.6571 2.37799C12.1497 1.75357 10.4909 1.59019 8.89051 1.90852C7.29017 2.22685 5.82016 3.01259 4.66637 4.16637C3.51259 5.32015 2.72685 6.79016 2.40853 8.3905C2.0902 9.99085 2.25358 11.6496 2.878 13.1571C3.50242 14.6646 4.55984 15.9531 5.91655 16.8596C7.27326 17.7661 8.86831 18.25 10.5 18.25C12.6873 18.2475 14.7843 17.3775 16.3309 15.8309C17.8775 14.2843 18.7475 12.1873 18.75 10Z" fill="url(#paint0_linear_2487_20856)"/>
<defs>
<linearGradient id="paint0_linear_2487_20856" x1="0.75" y1="0.25" x2="20.25" y2="19.75" gradientUnits="userSpaceOnUse">
<stop stop-color="#E8D07A"/>
<stop offset="1" stop-color="#5312D6"/>
</linearGradient>
</defs>
</svg>
