<svg width="64" height="64" viewBox="0 0 64 64" fill="none" xmlns="http://www.w3.org/2000/svg">
<rect x="1" y="1" width="62" height="62" rx="11" stroke="url(#paint0_linear_538_4305)" stroke-width="2"/>
<path d="M44.8648 42.5005C42.9611 39.2092 40.0273 36.8492 36.6036 35.7305C38.2971 34.7223 39.6129 33.1861 40.3489 31.3577C41.0848 29.5294 41.2002 27.51 40.6774 25.6097C40.1546 23.7094 39.0224 22.0332 37.4548 20.8386C35.8872 19.644 33.9708 18.9971 31.9999 18.9971C30.0289 18.9971 28.1125 19.644 26.5449 20.8386C24.9773 22.0332 23.8451 23.7094 23.3223 25.6097C22.7995 27.51 22.9149 29.5294 23.6508 31.3577C24.3868 33.1861 25.7026 34.7223 27.3961 35.7305C23.9724 36.848 21.0386 39.208 19.1349 42.5005C19.065 42.6143 19.0187 42.741 18.9987 42.873C18.9786 43.005 18.9852 43.1397 19.018 43.2692C19.0508 43.3986 19.1093 43.5201 19.1898 43.6266C19.2704 43.7331 19.3715 43.8224 19.4871 43.8892C19.6028 43.956 19.7306 43.9989 19.8631 44.0155C19.9956 44.0321 20.1301 44.022 20.2586 43.9858C20.3872 43.9495 20.5071 43.8879 20.6115 43.8046C20.7158 43.7212 20.8024 43.6178 20.8661 43.5005C23.2211 39.4305 27.3836 37.0005 31.9999 37.0005C36.6161 37.0005 40.7786 39.4305 43.1336 43.5005C43.1973 43.6178 43.2839 43.7212 43.3882 43.8046C43.4926 43.8879 43.6125 43.9495 43.7411 43.9858C43.8696 44.022 44.0041 44.0321 44.1366 44.0155C44.2691 43.9989 44.3969 43.956 44.5126 43.8892C44.6282 43.8224 44.7293 43.7331 44.8099 43.6266C44.8904 43.5201 44.9489 43.3986 44.9817 43.2692C45.0145 43.1397 45.0211 43.005 45.001 42.873C44.981 42.741 44.9347 42.6143 44.8648 42.5005ZM24.9999 28.0005C24.9999 26.616 25.4104 25.2626 26.1796 24.1115C26.9487 22.9603 28.042 22.0631 29.3211 21.5333C30.6001 21.0035 32.0076 20.8649 33.3655 21.135C34.7234 21.4051 35.9706 22.0718 36.9496 23.0507C37.9286 24.0297 38.5953 25.277 38.8653 26.6348C39.1354 27.9927 38.9968 29.4002 38.467 30.6793C37.9372 31.9583 37.04 33.0516 35.8888 33.8208C34.7377 34.5899 33.3843 35.0005 31.9999 35.0005C30.1439 34.9985 28.3646 34.2604 27.0523 32.948C25.74 31.6357 25.0018 29.8564 24.9999 28.0005Z" fill="#101323"/>
<defs>
<linearGradient id="paint0_linear_538_4305" x1="0" y1="0" x2="64" y2="64" gradientUnits="userSpaceOnUse">
<stop stop-color="#E8D07A"/>
<stop offset="1" stop-color="#5312D6"/>
</linearGradient>
</defs>
</svg>
