<svg width="145" height="244" viewBox="0 0 145 244" fill="none" xmlns="http://www.w3.org/2000/svg">
<path d="M67.1667 40C67.1667 42.9455 69.5545 45.3333 72.5 45.3333C75.4455 45.3333 77.8333 42.9455 77.8333 40C77.8333 37.0545 75.4455 34.6667 72.5 34.6667C69.5545 34.6667 67.1667 37.0545 67.1667 40ZM71.5 0V40H73.5V0H71.5Z" fill="url(#paint0_linear_538_8066)"/>
<rect x="13" y="64.5" width="119" height="119" rx="31.5" fill="white" fill-opacity="0.06"/>
<rect x="13" y="64.5" width="119" height="119" rx="31.5" stroke="url(#paint1_linear_538_8066)"/>
<rect x="29" y="80.5" width="87" height="87" rx="23.5" fill="white" fill-opacity="0.06"/>
<rect x="29" y="80.5" width="87" height="87" rx="23.5" stroke="url(#paint2_linear_538_8066)"/>
<path d="M89.0648 127.734V127.718C89.0621 127.707 89.0585 127.695 89.0539 127.684C88.9502 127.401 88.8296 127.124 88.6929 126.856L82.1976 112.093C82.1351 111.951 82.0466 111.822 81.9367 111.712C81.4724 111.248 80.9211 110.879 80.3144 110.628C79.7077 110.377 79.0575 110.247 78.4008 110.247C77.7441 110.247 77.0938 110.377 76.4871 110.628C75.8804 110.879 75.3291 111.248 74.8648 111.712C74.6312 111.946 74.4998 112.263 74.4992 112.593V116.5H69.4992V112.593C69.4993 112.429 69.4671 112.267 69.4044 112.115C69.3416 111.963 69.2496 111.825 69.1336 111.709C68.6693 111.245 68.118 110.876 67.5113 110.625C66.9046 110.374 66.2543 110.244 65.5976 110.244C64.9409 110.244 64.2907 110.374 63.684 110.625C63.0772 110.876 62.526 111.245 62.0617 111.709C61.9518 111.819 61.8633 111.948 61.8008 112.09L55.3117 126.856C55.175 127.124 55.0545 127.401 54.9508 127.684C54.9464 127.695 54.9428 127.706 54.9398 127.717C54.9398 127.717 54.9398 127.729 54.9398 127.734C54.2945 129.599 54.4099 131.642 55.2612 133.423C56.1124 135.203 57.6308 136.575 59.4873 137.244C61.3438 137.912 63.3889 137.822 65.1793 136.992C66.9697 136.163 68.3613 134.662 69.0523 132.814C69.3566 131.984 69.51 131.106 69.5054 130.222V119H74.5054V130.223C74.5008 131.107 74.6543 131.985 74.9586 132.815C75.6496 134.663 77.0411 136.165 78.8316 136.994C80.622 137.823 82.6671 137.914 84.5236 137.245C86.3801 136.577 87.8985 135.204 88.7497 133.424C89.6009 131.644 89.7164 129.6 89.0711 127.736L89.0648 127.734ZM66.6976 131.953C66.236 133.184 65.3077 134.185 64.1139 134.737C62.92 135.288 61.5567 135.348 60.3194 134.902C59.0821 134.455 58.0705 133.54 57.5037 132.353C56.9369 131.166 56.8606 129.803 57.2914 128.561L57.5742 127.915C58.094 126.927 58.9295 126.142 59.9477 125.683C60.9658 125.225 62.108 125.121 63.1922 125.388C64.2764 125.654 65.2402 126.276 65.9302 127.153C66.6201 128.031 66.9964 129.114 66.9992 130.231V130.25C66.9991 130.833 66.897 131.411 66.6976 131.959V131.953ZM83.7179 134.948C82.9621 135.225 82.1507 135.315 81.3526 135.211C80.5545 135.107 79.7934 134.812 79.1338 134.35C78.4742 133.889 77.9357 133.275 77.5641 132.561C77.1925 131.848 76.9987 131.054 76.9992 130.25V130.232C77.0033 129.117 77.3806 128.034 78.0711 127.157C78.7615 126.281 79.7254 125.66 80.8092 125.395C81.8931 125.129 83.0346 125.234 84.0521 125.692C85.0697 126.15 85.9046 126.935 86.4242 127.923L86.707 128.568C87.1516 129.811 87.0869 131.179 86.5269 132.374C85.967 133.569 84.9573 134.494 83.7179 134.948Z" fill="url(#paint3_linear_538_8066)"/>
<g clip-path="url(#clip0_538_8066)">
<g filter="url(#filter0_f_538_8066)">
<circle cx="72.5" cy="195.5" r="24.5" fill="white" fill-opacity="0.24"/>
</g>
<path d="M73 208C73 207.448 72.5523 207 72 207C71.4477 207 71 207.448 71 208H73ZM66.6667 237C66.6667 239.946 69.0545 242.333 72 242.333C74.9455 242.333 77.3333 239.946 77.3333 237C77.3333 234.054 74.9455 231.667 72 231.667C69.0545 231.667 66.6667 234.054 66.6667 237ZM71 208V237H73V208H71Z" fill="url(#paint4_linear_538_8066)"/>
<path d="M28 209H116" stroke="url(#paint5_linear_538_8066)" stroke-width="2" stroke-linecap="round"/>
</g>
<defs>
<filter id="filter0_f_538_8066" x="8" y="131" width="129" height="129" filterUnits="userSpaceOnUse" color-interpolation-filters="sRGB">
<feFlood flood-opacity="0" result="BackgroundImageFix"/>
<feBlend mode="normal" in="SourceGraphic" in2="BackgroundImageFix" result="shape"/>
<feGaussianBlur stdDeviation="20" result="effect1_foregroundBlur_538_8066"/>
</filter>
<linearGradient id="paint0_linear_538_8066" x1="72.5" y1="0" x2="74.4988" y2="0.0499688" gradientUnits="userSpaceOnUse">
<stop stop-color="#E8D07A"/>
<stop offset="1" stop-color="#5312D6"/>
</linearGradient>
<linearGradient id="paint1_linear_538_8066" x1="12.5" y1="64" x2="132.5" y2="184" gradientUnits="userSpaceOnUse">
<stop stop-color="#E8D07A"/>
<stop offset="1" stop-color="#5312D6"/>
</linearGradient>
<linearGradient id="paint2_linear_538_8066" x1="28.5" y1="80" x2="116.5" y2="168" gradientUnits="userSpaceOnUse">
<stop stop-color="#E8D07A"/>
<stop offset="1" stop-color="#5312D6"/>
</linearGradient>
<linearGradient id="paint3_linear_538_8066" x1="54.5273" y1="110.244" x2="81.1877" y2="144.202" gradientUnits="userSpaceOnUse">
<stop stop-color="#E8D07A"/>
<stop offset="1" stop-color="#5312D6"/>
</linearGradient>
<linearGradient id="paint4_linear_538_8066" x1="72" y1="208" x2="73.9976" y2="208.069" gradientUnits="userSpaceOnUse">
<stop stop-color="#E8D07A"/>
<stop offset="1" stop-color="#5312D6"/>
</linearGradient>
<linearGradient id="paint5_linear_538_8066" x1="28" y1="209" x2="28.0227" y2="211" gradientUnits="userSpaceOnUse">
<stop stop-color="#E8D07A"/>
<stop offset="1" stop-color="#5312D6"/>
</linearGradient>
<clipPath id="clip0_538_8066">
<rect width="112" height="36" fill="white" transform="translate(16.5 208)"/>
</clipPath>
</defs>
</svg>
