<svg width="243" height="303" viewBox="0 0 243 303" fill="none" xmlns="http://www.w3.org/2000/svg">
<path d="M155.581 279.553L44.6084 213.113L86.913 23.2818L218.466 166.529L155.581 279.553Z" fill="#760CAC"/>
<path opacity="0.5" d="M141.691 227.717L77.6517 195.758L106.621 96.8342L181.171 168.02L141.691 227.717Z" fill="#9612C8"/>
<path d="M86.9141 23.2812L106.621 96.8295L181.171 168.015L218.467 166.528L86.9141 23.2812Z" fill="#B518E6"/>
<path opacity="0.5" d="M155.582 279.555L141.692 227.714L181.172 168.018L218.467 166.53L155.582 279.555Z" fill="#760CAC"/>
<path d="M44.6089 213.116L77.6515 195.756L141.691 227.715L155.581 279.555L44.6089 213.116Z" fill="#370173"/>
<path opacity="0.5" d="M86.913 23.2818L106.62 96.83L77.651 195.754L44.6084 213.113L86.913 23.2818Z" fill="#570692"/>
<path d="M86.9141 23.2812L109.796 94.84L182.625 164.365L218.467 166.528L184.315 171.378L146.59 229.622L155.582 279.552L141.691 227.712L181.171 168.015L106.621 96.8295L86.9141 23.2812Z" fill="#D622F5"/>
<path d="M106.623 96.8334L80.1458 195.089L141.693 227.716L77.402 197.637L71.3228 199.083L76.285 194.971L106.623 96.8334Z" fill="#D622F5"/>
<path opacity="0.5" d="M44.6094 213.113L69.677 206.396L113.443 233.178L151.379 277.037L44.6094 213.113Z" fill="#280061"/>
<path opacity="0.5" d="M45.2857 210.08L70.8366 131.346L86.9139 23.283L45.2857 210.08Z" fill="#30016A"/>
<path d="M153.025 194.697L139.37 219.063L91.1505 185.583L110.418 111.014L99.5898 180.955L136.27 207.494L147.044 191.296L135.035 159.365L153.025 194.697Z" fill="#C71EEB"/>
<path d="M86.9141 23.2812L150.362 100.313L218.467 166.528L86.9141 23.2812Z" fill="#D622F5"/>
<path d="M218.468 166.53L189.36 210.84L155.583 279.554L218.468 166.53Z" fill="#D622F5"/>
<path d="M104.152 55.3555L183.128 159.744L113.961 91.9616L104.152 55.3555Z" fill="#D622F5"/>
<path d="M156.657 259.939L150.828 229.547L195.761 174.051L156.657 259.939Z" fill="#D622F5"/>
</svg>
