<svg width="16" height="16" viewBox="0 0 16 16" fill="none" xmlns="http://www.w3.org/2000/svg">
<path d="M12.2574 8.00003C13.798 5.8369 14.5837 3.60128 13.4912 2.50878C12.3987 1.41628 10.163 2.2019 7.99991 3.74253C5.83678 2.2019 3.60116 1.41628 2.50866 2.50878C1.41616 3.60128 2.20178 5.8369 3.74241 8.00003C2.20178 10.1632 1.41616 12.3988 2.50866 13.4913C2.86053 13.8432 3.33053 14 3.87803 14C5.03303 14 6.53303 13.3019 8.00303 12.2575C9.46678 13.3019 10.9668 14 12.1249 14C12.6724 14 13.143 13.8425 13.4943 13.4913C14.5837 12.3988 13.798 10.1632 12.2574 8.00003ZM12.7843 3.21565C13.2618 3.69315 12.9393 5.24065 11.6268 7.17065C11.2116 6.65664 10.7695 6.16492 10.3024 5.69753C9.83497 5.23109 9.34325 4.78964 8.82928 4.37503C10.7593 3.06253 12.3068 2.73753 12.7843 3.21565ZM11.018 8.00003C10.5758 8.55951 10.1008 9.09231 9.59553 9.59565C9.09219 10.1009 8.55939 10.5759 7.99991 11.0182C7.44043 10.5759 6.90762 10.1009 6.40428 9.59565C5.89905 9.09231 5.42405 8.55951 4.98178 8.00003C5.8691 6.88188 6.88176 5.86922 7.99991 4.9819C8.55939 5.42417 9.09219 5.89917 9.59553 6.4044C10.1008 6.90774 10.5758 7.44055 11.018 8.00003ZM3.21553 3.21565C3.35303 3.07753 3.57991 3.00628 3.87928 3.00628C4.61803 3.00628 5.79741 3.43753 7.16991 4.37503C6.65643 4.78998 6.16493 5.23141 5.69741 5.69753C5.23097 6.16497 4.78952 6.65669 4.37491 7.17065C3.06241 5.24065 2.73803 3.69315 3.21553 3.21565ZM3.21553 12.7844C2.73803 12.3069 3.06241 10.7594 4.37491 8.8294C4.79013 9.34341 5.2322 9.83514 5.69928 10.3025C6.16642 10.7686 6.6575 11.21 7.17053 11.625C5.24053 12.9375 3.69303 13.2625 3.21553 12.7844ZM12.7843 12.7844C12.3068 13.2625 10.7593 12.9394 8.82928 11.6269C9.34301 11.2113 9.83471 10.7693 10.3024 10.3025C10.7688 9.83509 11.2103 9.34337 11.6249 8.8294C12.9374 10.7594 13.2618 12.3069 12.7843 12.7844ZM8.74991 8.00003C8.74991 8.14837 8.70592 8.29337 8.62351 8.41671C8.5411 8.54004 8.42396 8.63617 8.28692 8.69294C8.14988 8.7497 7.99908 8.76456 7.85359 8.73562C7.7081 8.70668 7.57447 8.63525 7.46958 8.53036C7.36469 8.42547 7.29326 8.29183 7.26432 8.14635C7.23538 8.00086 7.25023 7.85006 7.307 7.71302C7.36376 7.57597 7.45989 7.45884 7.58323 7.37643C7.70657 7.29402 7.85157 7.25003 7.99991 7.25003C8.19882 7.25003 8.38959 7.32905 8.53024 7.4697C8.67089 7.61035 8.74991 7.80112 8.74991 8.00003Z" fill="#FCFCFD"/>
</svg>
