<svg width="18" height="17" viewBox="0 0 18 17" fill="none" xmlns="http://www.w3.org/2000/svg">
<path d="M17.0306 13.531L14.0306 16.531C13.8899 16.6718 13.699 16.7508 13.5 16.7508C13.301 16.7508 13.1101 16.6718 12.9694 16.531C12.8286 16.3903 12.7496 16.1994 12.7496 16.0004C12.7496 15.8014 12.8286 15.6105 12.9694 15.4698L14.6897 13.7504H1.49998C1.30107 13.7504 1.1103 13.6714 0.96965 13.5307C0.828998 13.3901 0.74998 13.1993 0.74998 13.0004C0.74998 12.8015 0.828998 12.6107 0.96965 12.4701C1.1103 12.3294 1.30107 12.2504 1.49998 12.2504H14.6897L12.9694 10.531C12.8286 10.3903 12.7496 10.1994 12.7496 10.0004C12.7496 9.80139 12.8286 9.61052 12.9694 9.46979C13.1101 9.32906 13.301 9.25 13.5 9.25C13.699 9.25 13.8899 9.32906 14.0306 9.46979L17.0306 12.4698C17.1003 12.5394 17.1557 12.6222 17.1934 12.7132C17.2311 12.8043 17.2506 12.9019 17.2506 13.0004C17.2506 13.099 17.2311 13.1966 17.1934 13.2876C17.1557 13.3787 17.1003 13.4614 17.0306 13.531ZM3.96935 7.53104C4.11009 7.67177 4.30096 7.75083 4.49998 7.75083C4.699 7.75083 4.88987 7.67177 5.03061 7.53104C5.17134 7.39031 5.2504 7.19944 5.2504 7.00042C5.2504 6.80139 5.17134 6.61052 5.03061 6.46979L3.31029 4.75042H16.5C16.6989 4.75042 16.8897 4.6714 17.0303 4.53075C17.171 4.39009 17.25 4.19933 17.25 4.00042C17.25 3.8015 17.171 3.61074 17.0303 3.47009C16.8897 3.32943 16.6989 3.25042 16.5 3.25042H3.31029L5.03061 1.53104C5.17134 1.39031 5.2504 1.19944 5.2504 1.00042C5.2504 0.801394 5.17133 0.610523 5.0306 0.469792C4.88987 0.329062 4.699 0.25 4.49998 0.25C4.30096 0.25 4.11009 0.329062 3.96935 0.469792L0.969355 3.46979C0.899622 3.53945 0.844303 3.62216 0.80656 3.71321C0.768817 3.80426 0.74939 3.90186 0.74939 4.00042C0.74939 4.09898 0.768817 4.19657 0.80656 4.28762C0.844303 4.37867 0.899622 4.46139 0.969355 4.53104L3.96935 7.53104Z" fill="#9DA4AE"/>
</svg>
