<svg width="52" height="53" viewBox="0 0 52 53" fill="none" xmlns="http://www.w3.org/2000/svg">
<rect x="0.5" y="1" width="51" height="51" rx="25.5" fill="#101323"/>
<rect x="0.5" y="1" width="51" height="51" rx="25.5" stroke="url(#paint0_linear_538_8712)"/>
<path d="M20.0117 28.3569C20.0143 28.4077 20.0065 28.4585 19.9888 28.5062C19.9711 28.5538 19.9438 28.5974 19.9088 28.6343C19.8737 28.6711 19.8315 28.7004 19.7847 28.7204C19.738 28.7404 19.6876 28.7507 19.6367 28.7506H15.5005C15.3312 28.7509 15.1668 28.6939 15.0341 28.5889C14.9013 28.4838 14.808 28.337 14.7692 28.1722C14.7451 28.0594 14.7462 27.9427 14.7725 27.8304C14.7988 27.718 14.8495 27.6129 14.9211 27.5225C15.5828 26.645 16.4608 25.9541 17.4692 25.5172C17.0265 25.1135 16.6869 24.6096 16.4789 24.0477C16.271 23.4858 16.2007 22.8822 16.2739 22.2876C16.3472 21.6929 16.5619 21.1244 16.9 20.6298C17.2382 20.1352 17.6899 19.7288 18.2174 19.4446C18.7449 19.1605 19.3328 19.0069 19.9319 18.9966C20.531 18.9864 21.1238 19.1199 21.6606 19.3859C22.1975 19.6519 22.6628 20.0427 23.0176 20.5255C23.3724 21.0083 23.6064 21.5691 23.6999 22.1609C23.7119 22.2405 23.6977 22.3219 23.6593 22.3926C23.6209 22.4634 23.5604 22.5196 23.4871 22.5528C22.4468 23.0337 21.5658 23.8022 20.948 24.7675C20.3303 25.7327 20.0015 26.8546 20.0005 28.0006C20.0005 28.1206 20.0005 28.2388 20.0117 28.3569ZM37.0742 27.5216C36.4141 26.6451 35.5381 25.9545 34.5317 25.5172C34.9745 25.1135 35.3141 24.6096 35.5221 24.0477C35.73 23.4858 35.8003 22.8822 35.727 22.2876C35.6538 21.6929 35.4391 21.1244 35.101 20.6298C34.7628 20.1352 34.3111 19.7288 33.7836 19.4446C33.2561 19.1605 32.6682 19.0069 32.0691 18.9966C31.47 18.9864 30.8772 19.1199 30.3404 19.3859C29.8035 19.6519 29.3382 20.0427 28.9834 20.5255C28.6286 21.0083 28.3946 21.5691 28.3011 22.1609C28.289 22.2405 28.3033 22.3219 28.3417 22.3926C28.3801 22.4634 28.4406 22.5196 28.5139 22.5528C29.5542 23.0337 30.4352 23.8022 31.053 24.7675C31.6707 25.7327 31.9995 26.8546 32.0005 28.0006C32.0005 28.1206 32.0005 28.2388 31.9892 28.3569C31.9867 28.4077 31.9945 28.4585 32.0122 28.5062C32.0299 28.5538 32.0571 28.5974 32.0922 28.6343C32.1273 28.6711 32.1695 28.7004 32.2163 28.7204C32.263 28.7404 32.3134 28.7507 32.3642 28.7506H36.5005C36.6698 28.7509 36.8342 28.6939 36.9669 28.5889C37.0997 28.4838 37.193 28.337 37.2317 28.1722C37.256 28.0592 37.2549 27.9422 37.2285 27.8297C37.202 27.7172 37.151 27.612 37.0789 27.5216H37.0742ZM28.7305 31.5697C29.4773 30.9978 30.026 30.2063 30.2997 29.3063C30.5734 28.4064 30.5582 27.4434 30.2563 26.5526C29.9543 25.6617 29.3808 24.8879 28.6164 24.3399C27.852 23.7918 26.935 23.497 25.9944 23.497C25.0538 23.497 24.1368 23.7918 23.3724 24.3399C22.608 24.8879 22.0345 25.6617 21.7325 26.5526C21.4306 27.4434 21.4154 28.4064 21.6891 29.3063C21.9628 30.2063 22.5115 30.9978 23.2583 31.5697C21.9332 32.1438 20.8267 33.1272 20.1008 34.3756C20.035 34.4897 20.0003 34.619 20.0003 34.7507C20.0003 34.8823 20.035 35.0117 20.1009 35.1257C20.1667 35.2397 20.2614 35.3344 20.3754 35.4002C20.4895 35.466 20.6188 35.5007 20.7505 35.5006H31.2505C31.3822 35.5007 31.5115 35.466 31.6256 35.4002C31.7396 35.3344 31.8343 35.2397 31.9001 35.1257C31.966 35.0117 32.0007 34.8823 32.0007 34.7507C32.0007 34.619 31.966 34.4897 31.9002 34.3756C31.1728 33.1263 30.0642 32.143 28.7371 31.5697H28.7305Z" fill="#FCFCFD"/>
<defs>
<linearGradient id="paint0_linear_538_8712" x1="0" y1="0.5" x2="52" y2="52.5" gradientUnits="userSpaceOnUse">
<stop stop-color="#E8D07A"/>
<stop offset="1" stop-color="#5312D6"/>
</linearGradient>
</defs>
</svg>
