<svg width="302" height="302" viewBox="0 0 302 302" fill="none" xmlns="http://www.w3.org/2000/svg">
<g clip-path="url(#clip0_538_7774)">
<path d="M132.304 33.6993C195.18 39.854 254.523 95.3698 264.853 157.695C270.698 192.974 259.588 222.873 237.441 241.064L223.337 252.653C206.357 266.599 182.89 273.663 155.603 270.992C92.728 264.838 33.3838 209.323 23.0548 146.996C17.2091 111.718 28.3196 81.8184 50.4663 63.6277L64.5702 52.0398C81.5499 38.0924 105.017 31.0283 132.304 33.6993Z" fill="url(#paint0_linear_538_7774)"/>
<path d="M66.41 54.053C83.0292 40.4028 105.997 33.489 132.703 36.1033C194.241 42.127 252.322 96.4604 262.431 157.461C268.153 191.989 257.279 221.252 235.603 239.056L221.521 250.625L221.499 250.644C204.881 264.294 181.912 271.208 155.207 268.594C93.6676 262.57 35.587 208.236 25.4778 147.236C19.7568 112.708 30.6302 83.4448 52.306 65.642L66.41 54.053Z" fill="#0D0F1C"/>
<path d="M169.308 257.003C107.771 250.979 49.6899 196.646 39.5808 135.645L25.4768 147.234C35.5859 208.235 93.6665 262.568 155.206 268.592L169.308 257.003Z" fill="#0D0F1C"/>
<path d="M83.7051 218.475C31.9389 170.049 20.0973 98.5908 57.2561 58.8692C94.4149 19.1477 166.503 26.2044 218.269 74.6308C270.035 123.057 281.877 194.515 244.718 234.237C207.559 273.958 135.471 266.901 83.7051 218.475Z" fill="url(#paint1_linear_538_7774)"/>
<path d="M85.1373 216.946C34.4725 169.55 22.8832 99.6119 59.2517 60.7351C95.6203 21.8583 166.175 28.7645 216.84 76.1605C267.504 123.556 279.094 193.494 242.725 232.371C206.356 271.248 135.802 264.342 85.1373 216.946Z" fill="#101323"/>
<path d="M100.884 200.113C62.3342 164.05 53.5159 110.837 81.1873 81.2572C108.859 51.6773 162.541 56.9324 201.091 92.9947C239.64 129.057 248.458 182.27 220.787 211.85C193.116 241.43 139.433 236.175 100.884 200.113Z" fill="#101323"/>
<path d="M173.358 252.675C111.82 246.651 53.7385 192.318 43.6306 131.317C38.7787 102.038 45.8606 76.5453 61.3422 58.6155C43.0764 76.6457 34.3244 103.923 39.5816 135.645C49.6907 196.645 107.771 250.98 169.309 257.003C201.311 260.136 227.945 249.586 244.719 230.16C227.86 246.802 202.895 255.566 173.358 252.675Z" fill="#0D0F1C"/>
<path d="M57.2936 62.945C74.1529 46.3043 99.1171 37.5403 128.654 40.4316C190.192 46.4553 248.274 100.789 258.382 161.789C263.234 191.068 256.152 216.561 240.67 234.491C258.936 216.461 267.688 189.182 262.431 157.461C252.322 96.4604 194.241 42.127 132.703 36.1033C100.702 32.9707 74.0673 43.5191 57.2936 62.945Z" fill="#101323"/>
<path fill-rule="evenodd" clip-rule="evenodd" d="M142.174 157.065C142.794 157.041 145.974 156.881 152.876 156.142C158.366 155.555 162.188 154.985 163.526 154.78C184.311 151.649 198.442 146.547 196.399 142.469C194.356 138.39 176.817 136.684 155.162 138.079L161.827 151.387C160.486 151.627 156.622 152.269 151.13 152.856C144.543 153.561 141.118 153.661 140.498 153.674L133.835 140.371C113.1 143.507 99.0041 148.604 101.042 152.673C103.08 156.742 120.582 158.458 142.193 157.058L142.174 157.065ZM133.126 138.997L127.161 127.089L97.6152 130.251L88.5208 112.091L168.965 103.483L178.06 121.643L148.518 124.804L154.48 136.707C179 135.155 199.255 137.609 201.888 142.866C204.52 148.123 188.658 154.437 165.159 158.028L184.271 196.188L162.919 198.472L143.8 160.299C119.334 161.846 99.1126 159.393 96.4821 154.14C93.8517 148.888 109.668 142.579 133.128 138.992L133.126 138.997Z" fill="url(#paint2_linear_538_7774)"/>
<path d="M76.5056 87.0029C89.1512 76.61 106.632 71.3442 126.959 73.3339C173.781 77.9172 217.973 119.258 225.664 165.672C229.004 185.82 224.914 203.613 215.387 216.923C231.87 203.376 240.139 181.116 235.786 154.852C228.095 108.438 183.903 67.0976 137.081 62.5143C110.585 59.9206 88.9248 69.6537 76.5056 87.0029Z" fill="#0D0F1C"/>
<path d="M86.8174 42.0114C90.458 40.5446 94.2639 39.3129 98.2189 38.3318L123.786 62.2483C120.5 62.4513 117.314 62.8596 114.236 63.4595L236.362 177.706C236.756 174.595 236.95 171.388 236.935 168.096L262.5 192.013C261.785 196.026 260.81 199.905 259.589 203.635L235.796 181.378C235.28 184.212 234.595 186.957 233.746 189.605L102.538 66.8617C105.124 65.8395 107.817 64.9709 110.61 64.2686L86.8174 42.0114Z" fill="white" fill-opacity="0.1"/>
<path d="M230.896 196.883L253.341 217.88C248.104 227.182 241.063 235.149 232.529 241.449L210.301 220.656C208.152 222.059 205.894 223.333 203.532 224.468L69.7659 99.3335C70.7424 96.9017 71.8627 94.5634 73.1199 92.3254L50.8912 71.532C56.6103 62.5972 64.0908 55.0417 73.0228 49.1971L95.4676 70.1938C93.2147 71.4369 91.0661 72.8137 89.0289 74.3139L227.214 203.583C228.576 201.45 229.804 199.214 230.896 196.883Z" fill="white" fill-opacity="0.1"/>
<path d="M78.7677 84.0477C91.5713 72.0404 110.147 65.7837 132.018 67.9246C178.84 72.5079 223.032 113.849 230.724 160.261C234.317 181.941 229.309 200.892 218.181 214.468C232.789 200.768 239.883 179.586 235.785 154.852C228.093 108.438 183.901 67.0975 137.079 62.5142C112.127 60.0717 91.4632 68.5609 78.7677 84.0477Z" fill="#0D0F1C"/>
<path fill-rule="evenodd" clip-rule="evenodd" d="M63.8036 138.018C71.7149 185.758 117.169 228.28 165.33 232.994C213.49 237.709 246.119 202.83 238.207 155.09C230.296 107.35 184.842 64.8283 136.681 60.114C88.5214 55.3998 55.8922 90.2784 63.8036 138.018ZM66.2259 138.255C73.9173 184.669 118.109 226.01 164.932 230.593C186.88 232.742 205.51 226.431 218.318 214.341C218.273 214.384 218.227 214.427 218.182 214.469C229.31 200.894 234.317 181.942 230.724 160.263C223.032 113.85 178.841 72.5091 132.018 67.9258C110.148 65.7849 91.5717 72.0428 78.768 84.0501C67.6403 97.624 62.6329 116.575 66.2259 138.255ZM95.0833 70.4069C106.631 63.9221 120.96 60.9375 137.079 62.5153C183.902 67.0986 228.094 108.439 235.785 154.853C238.433 170.831 236.41 185.326 230.708 197.28C234.381 186.449 235.382 173.987 233.146 160.501C225.235 112.761 179.781 70.2387 131.62 65.5244C118.014 64.1926 105.647 66.0205 95.0833 70.4069Z" fill="url(#paint3_linear_538_7774)"/>
</g>
<defs>
<linearGradient id="paint0_linear_538_7774" x1="279.396" y1="48.0977" x2="22.8502" y2="272.954" gradientUnits="userSpaceOnUse">
<stop stop-color="#E8D07A"/>
<stop offset="1" stop-color="#5312D6"/>
</linearGradient>
<linearGradient id="paint1_linear_538_7774" x1="312" y1="162.314" x2="3.66525" y2="213.41" gradientUnits="userSpaceOnUse">
<stop stop-color="#E8D07A"/>
<stop offset="1" stop-color="#5312D6"/>
</linearGradient>
<linearGradient id="paint2_linear_538_7774" x1="193.01" y1="100.91" x2="120.547" y2="213.098" gradientUnits="userSpaceOnUse">
<stop stop-color="#E8D07A"/>
<stop offset="1" stop-color="#5312D6"/>
</linearGradient>
<linearGradient id="paint3_linear_538_7774" x1="249.348" y1="71.1426" x2="63.6681" y2="234.476" gradientUnits="userSpaceOnUse">
<stop stop-color="#E8D07A"/>
<stop offset="1" stop-color="#5312D6"/>
</linearGradient>
<clipPath id="clip0_538_7774">
<rect width="302" height="302" fill="white" transform="matrix(-1 -8.74228e-08 -8.74228e-08 1 302 0)"/>
</clipPath>
</defs>
</svg>
