<svg width="14" height="13" viewBox="0 0 14 13" fill="none" xmlns="http://www.w3.org/2000/svg">
<path d="M13.3541 6.14625L7.35414 0.14625C7.30771 0.0997622 7.25256 0.0628826 7.19186 0.0377205C7.13117 0.0125584 7.0661 -0.000392914 7.00039 -0.000392914C6.93469 -0.000392914 6.86962 0.0125584 6.80892 0.0377205C6.74822 0.0628826 6.69308 0.0997622 6.64664 0.14625L0.646644 6.14625C0.576638 6.21618 0.528954 6.3053 0.509629 6.40235C0.490304 6.49939 0.500206 6.59998 0.538082 6.6914C0.575959 6.78281 0.640106 6.86093 0.722403 6.91586C0.8047 6.9708 0.901446 7.00008 1.00039 7H3.50039V8.5C3.50039 8.63261 3.55307 8.75979 3.64684 8.85355C3.74061 8.94732 3.86779 9 4.00039 9H10.0004C10.133 9 10.2602 8.94732 10.3539 8.85355C10.4477 8.75979 10.5004 8.63261 10.5004 8.5V7H13.0004C13.0993 7.00008 13.1961 6.9708 13.2784 6.91586C13.3607 6.86093 13.4248 6.78281 13.4627 6.6914C13.5006 6.59998 13.5105 6.49939 13.4912 6.40235C13.4718 6.3053 13.4241 6.21618 13.3541 6.14625ZM10.0004 6C9.86779 6 9.74061 6.05268 9.64684 6.14645C9.55307 6.24022 9.50039 6.36739 9.50039 6.5V8H4.50039V6.5C4.50039 6.36739 4.44772 6.24022 4.35395 6.14645C4.26018 6.05268 4.133 6 4.00039 6H2.20727L7.00039 1.20688L11.7935 6H10.0004ZM10.5004 12.5C10.5004 12.6326 10.4477 12.7598 10.3539 12.8536C10.2602 12.9473 10.133 13 10.0004 13H4.00039C3.86779 13 3.74061 12.9473 3.64684 12.8536C3.55307 12.7598 3.50039 12.6326 3.50039 12.5C3.50039 12.3674 3.55307 12.2402 3.64684 12.1464C3.74061 12.0527 3.86779 12 4.00039 12H10.0004C10.133 12 10.2602 12.0527 10.3539 12.1464C10.4477 12.2402 10.5004 12.3674 10.5004 12.5ZM10.5004 10.5C10.5004 10.6326 10.4477 10.7598 10.3539 10.8536C10.2602 10.9473 10.133 11 10.0004 11H4.00039C3.86779 11 3.74061 10.9473 3.64684 10.8536C3.55307 10.7598 3.50039 10.6326 3.50039 10.5C3.50039 10.3674 3.55307 10.2402 3.64684 10.1464C3.74061 10.0527 3.86779 10 4.00039 10H10.0004C10.133 10 10.2602 10.0527 10.3539 10.1464C10.4477 10.2402 10.5004 10.3674 10.5004 10.5Z" fill="white"/>
</svg>
