<svg width="174" height="23" viewBox="0 0 174 23" fill="none" xmlns="http://www.w3.org/2000/svg">
<mask id="path-1-outside-1_538_4325" maskUnits="userSpaceOnUse" x="0" y="0.0742188" width="174" height="23" fill="black">
<rect fill="white" y="0.0742188" width="174" height="23"/>
<path d="M2.70769 2.74171V8.33973H10.9923V10.0072H2.70769V16.0817H11.5V17.7492H1V1.07422H12.2385V2.74171H2.70769Z"/>
<path d="M21.0773 2.74171H16.1619V5.60028H19.4157V7.10102H16.1619V16.2484H19.6465V17.7492H14.5234V7.10102H12.5619V5.60028H14.5234V2.74171H11.5927V1.07422H21.0773V2.74171Z"/>
<path d="M27.5114 5.2906C30.4191 5.2906 31.9422 6.91045 31.9422 9.79283V17.7492H30.3037V10.0072C30.3037 7.48216 29.1268 6.79134 27.3037 6.79134C25.3191 6.79134 23.9576 8.31591 23.9576 10.2693V17.7492H22.3191V2.74171H20.6576V1.07422H23.9576V7.4107C24.5114 6.12435 25.573 5.2906 27.5114 5.2906Z"/>
<path d="M56.396 1.07422V2.74171H52.7037C54.296 4.14717 55.196 6.43402 55.196 9.41169C55.196 14.6762 52.4037 17.8683 47.8344 17.8683C43.2421 17.8683 40.4498 14.6762 40.4498 9.41169C40.4498 4.14717 43.2421 1.07422 47.8344 1.07422H56.396ZM53.396 9.43551C53.396 5.19531 51.296 2.74171 47.8344 2.74171C44.3729 2.74171 42.2498 5.19531 42.2498 9.43551C42.2498 13.6281 44.3729 16.2008 47.8344 16.2008C51.296 16.2008 53.396 13.6281 53.396 9.43551Z"/>
<path d="M55.9887 1.07422H70.4579V2.74171H55.9887V1.07422ZM63.7195 5.17149C66.7656 5.17149 69.0272 7.52981 69.0272 11.508C69.0272 15.51 66.7656 17.8683 63.7195 17.8683C61.5272 17.8683 60.2118 17.0107 59.5195 15.4385V22.5373H57.881V5.60028H59.5195V7.60127C60.2118 6.02906 61.5272 5.17149 63.7195 5.17149ZM63.5118 16.3675C65.7964 16.3675 67.3195 14.4142 67.3195 11.5318C67.3195 8.60177 65.7964 6.67224 63.5118 6.67224C61.1118 6.67224 59.5195 8.60177 59.5195 11.5318C59.5195 14.4142 61.1118 16.3675 63.5118 16.3675Z"/>
<path d="M68.6495 1.07422H83.8802V2.74171H68.6495V1.07422ZM76.7264 5.2906C79.911 5.2906 81.7802 7.48216 81.7802 10.7933V11.9368H72.9648C73.1033 14.6047 74.4187 16.3913 76.7264 16.3675C78.7341 16.3437 79.7495 15.367 80.0264 13.6042L81.6648 13.8425C81.2725 16.3437 79.5648 17.8445 76.7264 17.8683C73.3571 17.8921 71.2341 15.6291 71.2341 11.5794C71.2341 7.7442 73.1264 5.2906 76.7264 5.2906ZM76.7264 6.79134C74.6725 6.76752 73.2879 7.91095 72.9879 10.436H80.1648C80.0725 7.88713 78.711 6.81517 76.7264 6.79134Z"/>
<path d="M82.7895 1.07422H93.9818V2.74171H82.7895V1.07422ZM93.9356 17.773H92.2972V9.98341C92.2972 7.7442 90.9818 6.76752 89.1587 6.76752C87.3356 6.76752 86.0202 7.7442 86.0202 9.98341V17.773H84.3818V9.76901C84.3125 6.86281 86.2049 5.26678 89.1587 5.26678C92.1125 5.26678 93.9818 6.86281 93.9356 9.76901V17.773Z"/>
<path d="M115.645 1.07422V2.74171H112.83H111.713C109.79 2.74171 110.822 2.74171 108.307 2.74171C106.045 2.74171 104.707 3.59928 104.707 5.19531C104.707 6.76752 105.445 7.52981 108.399 8.33973C113.015 9.60226 114.307 10.7695 114.307 13.4375C114.307 16.2008 112.092 17.8683 108.445 17.8683C104.822 17.8683 102.468 15.8673 102.215 12.5799L103.992 12.2703C104.153 14.6047 105.884 16.2008 108.584 16.2008C111.03 16.2008 112.507 15.1765 112.507 13.4851C112.507 11.6985 111.538 11.1983 108.399 10.3407C104.015 9.14966 102.907 7.93477 102.907 5.38588C102.907 2.62261 104.961 1.07422 108.422 1.07422H115.645Z"/>
<path d="M114.544 1.07422H129.774V2.74171H114.544V1.07422ZM122.274 5.2906C125.644 5.31442 127.882 7.57745 127.882 11.6033C127.882 15.3432 125.874 17.8445 122.274 17.8683C118.905 17.8445 116.667 15.5814 116.667 11.6033C116.667 7.83948 118.674 5.31442 122.274 5.2906ZM122.274 16.3675C124.628 16.3437 126.198 14.6286 126.198 11.6033C126.198 8.69705 124.79 6.76752 122.274 6.79134C119.921 6.81517 118.351 8.55412 118.374 11.6033C118.398 14.4856 119.805 16.3913 122.274 16.3675Z"/>
<path d="M128.667 1.07422H141.544V2.74171H128.667V1.07422ZM139.767 5.60028V13.366C139.767 16.2722 138.06 17.8683 135.106 17.8683C132.152 17.8683 130.421 16.2722 130.444 13.366V5.60028H132.129V13.1516C132.129 15.3909 133.283 16.3675 135.106 16.3675C136.929 16.3675 138.083 15.3909 138.083 13.1516V5.60028H139.767Z"/>
<path d="M140.905 1.07422H150.712V2.74171H140.905V1.07422ZM149.766 5.60028V7.10102H144.435V17.7492H142.797V5.60028H149.766Z"/>
<path d="M148.021 1.07422H163.252V2.74171H148.021V1.07422ZM156.052 6.79134C153.675 6.81517 152.291 8.45884 152.314 11.5318C152.337 14.6762 153.721 16.3675 156.052 16.3675C157.945 16.3437 159.006 15.1765 159.283 13.4137L160.921 13.6519C160.529 16.1531 158.891 17.8445 156.052 17.8683C152.637 17.8921 150.606 15.5338 150.606 11.5794C150.606 7.64891 152.637 5.26678 156.052 5.2906C158.891 5.31442 160.529 7.12484 160.921 10.174L159.283 10.4122C158.937 8.1968 158.06 6.81517 156.052 6.79134Z"/>
<path d="M161.688 1.07422H173.434V2.74171H161.688V1.07422ZM168.38 5.2906C171.565 5.2906 173.434 7.48216 173.434 10.7933V11.9368H164.619C164.757 14.6047 166.073 16.3913 168.38 16.3675C170.388 16.3437 171.404 15.367 171.681 13.6042L173.319 13.8425C172.927 16.3437 171.219 17.8445 168.38 17.8683C165.011 17.8921 162.888 15.6291 162.888 11.5794C162.888 7.7442 164.781 5.2906 168.38 5.2906ZM168.38 6.79134C166.327 6.76752 164.942 7.91095 164.642 10.436H171.819C171.727 7.88713 170.365 6.81517 168.38 6.79134Z"/>
</mask>
<path d="M2.70769 2.74171V8.33973H10.9923V10.0072H2.70769V16.0817H11.5V17.7492H1V1.07422H12.2385V2.74171H2.70769Z" fill="#101323"/>
<path d="M21.0773 2.74171H16.1619V5.60028H19.4157V7.10102H16.1619V16.2484H19.6465V17.7492H14.5234V7.10102H12.5619V5.60028H14.5234V2.74171H11.5927V1.07422H21.0773V2.74171Z" fill="#101323"/>
<path d="M27.5114 5.2906C30.4191 5.2906 31.9422 6.91045 31.9422 9.79283V17.7492H30.3037V10.0072C30.3037 7.48216 29.1268 6.79134 27.3037 6.79134C25.3191 6.79134 23.9576 8.31591 23.9576 10.2693V17.7492H22.3191V2.74171H20.6576V1.07422H23.9576V7.4107C24.5114 6.12435 25.573 5.2906 27.5114 5.2906Z" fill="#101323"/>
<path d="M56.396 1.07422V2.74171H52.7037C54.296 4.14717 55.196 6.43402 55.196 9.41169C55.196 14.6762 52.4037 17.8683 47.8344 17.8683C43.2421 17.8683 40.4498 14.6762 40.4498 9.41169C40.4498 4.14717 43.2421 1.07422 47.8344 1.07422H56.396ZM53.396 9.43551C53.396 5.19531 51.296 2.74171 47.8344 2.74171C44.3729 2.74171 42.2498 5.19531 42.2498 9.43551C42.2498 13.6281 44.3729 16.2008 47.8344 16.2008C51.296 16.2008 53.396 13.6281 53.396 9.43551Z" fill="#101323"/>
<path d="M55.9887 1.07422H70.4579V2.74171H55.9887V1.07422ZM63.7195 5.17149C66.7656 5.17149 69.0272 7.52981 69.0272 11.508C69.0272 15.51 66.7656 17.8683 63.7195 17.8683C61.5272 17.8683 60.2118 17.0107 59.5195 15.4385V22.5373H57.881V5.60028H59.5195V7.60127C60.2118 6.02906 61.5272 5.17149 63.7195 5.17149ZM63.5118 16.3675C65.7964 16.3675 67.3195 14.4142 67.3195 11.5318C67.3195 8.60177 65.7964 6.67224 63.5118 6.67224C61.1118 6.67224 59.5195 8.60177 59.5195 11.5318C59.5195 14.4142 61.1118 16.3675 63.5118 16.3675Z" fill="#101323"/>
<path d="M68.6495 1.07422H83.8802V2.74171H68.6495V1.07422ZM76.7264 5.2906C79.911 5.2906 81.7802 7.48216 81.7802 10.7933V11.9368H72.9648C73.1033 14.6047 74.4187 16.3913 76.7264 16.3675C78.7341 16.3437 79.7495 15.367 80.0264 13.6042L81.6648 13.8425C81.2725 16.3437 79.5648 17.8445 76.7264 17.8683C73.3571 17.8921 71.2341 15.6291 71.2341 11.5794C71.2341 7.7442 73.1264 5.2906 76.7264 5.2906ZM76.7264 6.79134C74.6725 6.76752 73.2879 7.91095 72.9879 10.436H80.1648C80.0725 7.88713 78.711 6.81517 76.7264 6.79134Z" fill="#101323"/>
<path d="M82.7895 1.07422H93.9818V2.74171H82.7895V1.07422ZM93.9356 17.773H92.2972V9.98341C92.2972 7.7442 90.9818 6.76752 89.1587 6.76752C87.3356 6.76752 86.0202 7.7442 86.0202 9.98341V17.773H84.3818V9.76901C84.3125 6.86281 86.2049 5.26678 89.1587 5.26678C92.1125 5.26678 93.9818 6.86281 93.9356 9.76901V17.773Z" fill="#101323"/>
<path d="M115.645 1.07422V2.74171H112.83H111.713C109.79 2.74171 110.822 2.74171 108.307 2.74171C106.045 2.74171 104.707 3.59928 104.707 5.19531C104.707 6.76752 105.445 7.52981 108.399 8.33973C113.015 9.60226 114.307 10.7695 114.307 13.4375C114.307 16.2008 112.092 17.8683 108.445 17.8683C104.822 17.8683 102.468 15.8673 102.215 12.5799L103.992 12.2703C104.153 14.6047 105.884 16.2008 108.584 16.2008C111.03 16.2008 112.507 15.1765 112.507 13.4851C112.507 11.6985 111.538 11.1983 108.399 10.3407C104.015 9.14966 102.907 7.93477 102.907 5.38588C102.907 2.62261 104.961 1.07422 108.422 1.07422H115.645Z" fill="#101323"/>
<path d="M114.544 1.07422H129.774V2.74171H114.544V1.07422ZM122.274 5.2906C125.644 5.31442 127.882 7.57745 127.882 11.6033C127.882 15.3432 125.874 17.8445 122.274 17.8683C118.905 17.8445 116.667 15.5814 116.667 11.6033C116.667 7.83948 118.674 5.31442 122.274 5.2906ZM122.274 16.3675C124.628 16.3437 126.198 14.6286 126.198 11.6033C126.198 8.69705 124.79 6.76752 122.274 6.79134C119.921 6.81517 118.351 8.55412 118.374 11.6033C118.398 14.4856 119.805 16.3913 122.274 16.3675Z" fill="#101323"/>
<path d="M128.667 1.07422H141.544V2.74171H128.667V1.07422ZM139.767 5.60028V13.366C139.767 16.2722 138.06 17.8683 135.106 17.8683C132.152 17.8683 130.421 16.2722 130.444 13.366V5.60028H132.129V13.1516C132.129 15.3909 133.283 16.3675 135.106 16.3675C136.929 16.3675 138.083 15.3909 138.083 13.1516V5.60028H139.767Z" fill="#101323"/>
<path d="M140.905 1.07422H150.712V2.74171H140.905V1.07422ZM149.766 5.60028V7.10102H144.435V17.7492H142.797V5.60028H149.766Z" fill="#101323"/>
<path d="M148.021 1.07422H163.252V2.74171H148.021V1.07422ZM156.052 6.79134C153.675 6.81517 152.291 8.45884 152.314 11.5318C152.337 14.6762 153.721 16.3675 156.052 16.3675C157.945 16.3437 159.006 15.1765 159.283 13.4137L160.921 13.6519C160.529 16.1531 158.891 17.8445 156.052 17.8683C152.637 17.8921 150.606 15.5338 150.606 11.5794C150.606 7.64891 152.637 5.26678 156.052 5.2906C158.891 5.31442 160.529 7.12484 160.921 10.174L159.283 10.4122C158.937 8.1968 158.06 6.81517 156.052 6.79134Z" fill="#101323"/>
<path d="M161.688 1.07422H173.434V2.74171H161.688V1.07422ZM168.38 5.2906C171.565 5.2906 173.434 7.48216 173.434 10.7933V11.9368H164.619C164.757 14.6047 166.073 16.3913 168.38 16.3675C170.388 16.3437 171.404 15.367 171.681 13.6042L173.319 13.8425C172.927 16.3437 171.219 17.8445 168.38 17.8683C165.011 17.8921 162.888 15.6291 162.888 11.5794C162.888 7.7442 164.781 5.2906 168.38 5.2906ZM168.38 6.79134C166.327 6.76752 164.942 7.91095 164.642 10.436H171.819C171.727 7.88713 170.365 6.81517 168.38 6.79134Z" fill="#101323"/>
<path d="M2.70769 2.74171V8.33973H10.9923V10.0072H2.70769V16.0817H11.5V17.7492H1V1.07422H12.2385V2.74171H2.70769Z" stroke="#101323" stroke-width="0.2" mask="url(#path-1-outside-1_538_4325)"/>
<path d="M21.0773 2.74171H16.1619V5.60028H19.4157V7.10102H16.1619V16.2484H19.6465V17.7492H14.5234V7.10102H12.5619V5.60028H14.5234V2.74171H11.5927V1.07422H21.0773V2.74171Z" stroke="#101323" stroke-width="0.2" mask="url(#path-1-outside-1_538_4325)"/>
<path d="M27.5114 5.2906C30.4191 5.2906 31.9422 6.91045 31.9422 9.79283V17.7492H30.3037V10.0072C30.3037 7.48216 29.1268 6.79134 27.3037 6.79134C25.3191 6.79134 23.9576 8.31591 23.9576 10.2693V17.7492H22.3191V2.74171H20.6576V1.07422H23.9576V7.4107C24.5114 6.12435 25.573 5.2906 27.5114 5.2906Z" stroke="#101323" stroke-width="0.2" mask="url(#path-1-outside-1_538_4325)"/>
<path d="M56.396 1.07422V2.74171H52.7037C54.296 4.14717 55.196 6.43402 55.196 9.41169C55.196 14.6762 52.4037 17.8683 47.8344 17.8683C43.2421 17.8683 40.4498 14.6762 40.4498 9.41169C40.4498 4.14717 43.2421 1.07422 47.8344 1.07422H56.396ZM53.396 9.43551C53.396 5.19531 51.296 2.74171 47.8344 2.74171C44.3729 2.74171 42.2498 5.19531 42.2498 9.43551C42.2498 13.6281 44.3729 16.2008 47.8344 16.2008C51.296 16.2008 53.396 13.6281 53.396 9.43551Z" stroke="#101323" stroke-width="0.2" mask="url(#path-1-outside-1_538_4325)"/>
<path d="M55.9887 1.07422H70.4579V2.74171H55.9887V1.07422ZM63.7195 5.17149C66.7656 5.17149 69.0272 7.52981 69.0272 11.508C69.0272 15.51 66.7656 17.8683 63.7195 17.8683C61.5272 17.8683 60.2118 17.0107 59.5195 15.4385V22.5373H57.881V5.60028H59.5195V7.60127C60.2118 6.02906 61.5272 5.17149 63.7195 5.17149ZM63.5118 16.3675C65.7964 16.3675 67.3195 14.4142 67.3195 11.5318C67.3195 8.60177 65.7964 6.67224 63.5118 6.67224C61.1118 6.67224 59.5195 8.60177 59.5195 11.5318C59.5195 14.4142 61.1118 16.3675 63.5118 16.3675Z" stroke="#101323" stroke-width="0.2" mask="url(#path-1-outside-1_538_4325)"/>
<path d="M68.6495 1.07422H83.8802V2.74171H68.6495V1.07422ZM76.7264 5.2906C79.911 5.2906 81.7802 7.48216 81.7802 10.7933V11.9368H72.9648C73.1033 14.6047 74.4187 16.3913 76.7264 16.3675C78.7341 16.3437 79.7495 15.367 80.0264 13.6042L81.6648 13.8425C81.2725 16.3437 79.5648 17.8445 76.7264 17.8683C73.3571 17.8921 71.2341 15.6291 71.2341 11.5794C71.2341 7.7442 73.1264 5.2906 76.7264 5.2906ZM76.7264 6.79134C74.6725 6.76752 73.2879 7.91095 72.9879 10.436H80.1648C80.0725 7.88713 78.711 6.81517 76.7264 6.79134Z" stroke="#101323" stroke-width="0.2" mask="url(#path-1-outside-1_538_4325)"/>
<path d="M82.7895 1.07422H93.9818V2.74171H82.7895V1.07422ZM93.9356 17.773H92.2972V9.98341C92.2972 7.7442 90.9818 6.76752 89.1587 6.76752C87.3356 6.76752 86.0202 7.7442 86.0202 9.98341V17.773H84.3818V9.76901C84.3125 6.86281 86.2049 5.26678 89.1587 5.26678C92.1125 5.26678 93.9818 6.86281 93.9356 9.76901V17.773Z" stroke="#101323" stroke-width="0.2" mask="url(#path-1-outside-1_538_4325)"/>
<path d="M115.645 1.07422V2.74171H112.83H111.713C109.79 2.74171 110.822 2.74171 108.307 2.74171C106.045 2.74171 104.707 3.59928 104.707 5.19531C104.707 6.76752 105.445 7.52981 108.399 8.33973C113.015 9.60226 114.307 10.7695 114.307 13.4375C114.307 16.2008 112.092 17.8683 108.445 17.8683C104.822 17.8683 102.468 15.8673 102.215 12.5799L103.992 12.2703C104.153 14.6047 105.884 16.2008 108.584 16.2008C111.03 16.2008 112.507 15.1765 112.507 13.4851C112.507 11.6985 111.538 11.1983 108.399 10.3407C104.015 9.14966 102.907 7.93477 102.907 5.38588C102.907 2.62261 104.961 1.07422 108.422 1.07422H115.645Z" stroke="#101323" stroke-width="0.2" mask="url(#path-1-outside-1_538_4325)"/>
<path d="M114.544 1.07422H129.774V2.74171H114.544V1.07422ZM122.274 5.2906C125.644 5.31442 127.882 7.57745 127.882 11.6033C127.882 15.3432 125.874 17.8445 122.274 17.8683C118.905 17.8445 116.667 15.5814 116.667 11.6033C116.667 7.83948 118.674 5.31442 122.274 5.2906ZM122.274 16.3675C124.628 16.3437 126.198 14.6286 126.198 11.6033C126.198 8.69705 124.79 6.76752 122.274 6.79134C119.921 6.81517 118.351 8.55412 118.374 11.6033C118.398 14.4856 119.805 16.3913 122.274 16.3675Z" stroke="#101323" stroke-width="0.2" mask="url(#path-1-outside-1_538_4325)"/>
<path d="M128.667 1.07422H141.544V2.74171H128.667V1.07422ZM139.767 5.60028V13.366C139.767 16.2722 138.06 17.8683 135.106 17.8683C132.152 17.8683 130.421 16.2722 130.444 13.366V5.60028H132.129V13.1516C132.129 15.3909 133.283 16.3675 135.106 16.3675C136.929 16.3675 138.083 15.3909 138.083 13.1516V5.60028H139.767Z" stroke="#101323" stroke-width="0.2" mask="url(#path-1-outside-1_538_4325)"/>
<path d="M140.905 1.07422H150.712V2.74171H140.905V1.07422ZM149.766 5.60028V7.10102H144.435V17.7492H142.797V5.60028H149.766Z" stroke="#101323" stroke-width="0.2" mask="url(#path-1-outside-1_538_4325)"/>
<path d="M148.021 1.07422H163.252V2.74171H148.021V1.07422ZM156.052 6.79134C153.675 6.81517 152.291 8.45884 152.314 11.5318C152.337 14.6762 153.721 16.3675 156.052 16.3675C157.945 16.3437 159.006 15.1765 159.283 13.4137L160.921 13.6519C160.529 16.1531 158.891 17.8445 156.052 17.8683C152.637 17.8921 150.606 15.5338 150.606 11.5794C150.606 7.64891 152.637 5.26678 156.052 5.2906C158.891 5.31442 160.529 7.12484 160.921 10.174L159.283 10.4122C158.937 8.1968 158.06 6.81517 156.052 6.79134Z" stroke="#101323" stroke-width="0.2" mask="url(#path-1-outside-1_538_4325)"/>
<path d="M161.688 1.07422H173.434V2.74171H161.688V1.07422ZM168.38 5.2906C171.565 5.2906 173.434 7.48216 173.434 10.7933V11.9368H164.619C164.757 14.6047 166.073 16.3913 168.38 16.3675C170.388 16.3437 171.404 15.367 171.681 13.6042L173.319 13.8425C172.927 16.3437 171.219 17.8445 168.38 17.8683C165.011 17.8921 162.888 15.6291 162.888 11.5794C162.888 7.7442 164.781 5.2906 168.38 5.2906ZM168.38 6.79134C166.327 6.76752 164.942 7.91095 164.642 10.436H171.819C171.727 7.88713 170.365 6.81517 168.38 6.79134Z" stroke="#101323" stroke-width="0.2" mask="url(#path-1-outside-1_538_4325)"/>
</svg>
